<?xml version="1.0" encoding="UTF-8" standalone="no"?>
<!-- Created with Inkscape (http://www.inkscape.org/) -->

<svg
   xmlns:dc="http://purl.org/dc/elements/1.1/"
   xmlns:cc="http://creativecommons.org/ns#"
   xmlns:rdf="http://www.w3.org/1999/02/22-rdf-syntax-ns#"
   xmlns:svg="http://www.w3.org/2000/svg"
   xmlns="http://www.w3.org/2000/svg"
   xmlns:sodipodi="http://sodipodi.sourceforge.net/DTD/sodipodi-0.dtd"
   xmlns:inkscape="http://www.inkscape.org/namespaces/inkscape"
   width="791.94727"
   height="987.70312"
   viewBox="0 0 209.53604 261.32977"
   version="1.1"
   id="svg825"
   sodipodi:docname="st-blood-bank.svg"
   inkscape:version="0.92.3 (2405546, 2018-03-11)">
  <defs
     id="defs819" />
  <sodipodi:namedview
     id="base"
     pagecolor="#ffffff"
     bordercolor="#666666"
     borderopacity="1.0"
     inkscape:pageopacity="0.0"
     inkscape:pageshadow="2"
     inkscape:zoom="0.35"
     inkscape:cx="307.8105"
     inkscape:cy="506.06702"
     inkscape:document-units="px"
     inkscape:current-layer="layer1"
     showgrid="false"
     units="px"
     width="805.71484px"
     inkscape:pagecheckerboard="true"
     showborder="true"
     inkscape:window-width="1280"
     inkscape:window-height="725"
     inkscape:window-x="0"
     inkscape:window-y="0"
     inkscape:window-maximized="1"
     borderlayer="false"
     fit-margin-top="0"
     fit-margin-left="0"
     fit-margin-right="0"
     fit-margin-bottom="0" />
  <metadata
     id="metadata822">
    <rdf:RDF>
      <cc:Work
         rdf:about="">
        <dc:format>image/svg+xml</dc:format>
        <dc:type
           rdf:resource="http://purl.org/dc/dcmitype/StillImage" />
        <dc:title></dc:title>
      </cc:Work>
    </rdf:RDF>
  </metadata>
  <g
     inkscape:label="Layer 1"
     inkscape:groupmode="layer"
     id="layer1"
     transform="translate(6.9494465,-17.835087)">
    <path
       style="fill:#ff0000;fill-opacity:1;stroke:none;stroke-width:0.92304534"
       d="M 22.855469 0 C 10.192603 0 -2.3684758e-15 8.7154268 0 19.542969 L 0 494.42188 L 791.94727 494.42188 L 791.94727 19.542969 C 791.94727 8.7154268 781.7527 0 769.08984 0 L 22.855469 0 z M 231.30078 102.10156 C 276.71376 102.10156 311.29772 110.58542 335.05469 127.55469 C 358.97328 144.36233 373.19557 171.19151 377.7207 208.03906 L 274.20898 214.09961 C 271.46157 198.10002 265.64257 186.46395 256.75391 179.19141 C 248.02686 171.91887 235.90734 168.28125 220.39258 168.28125 C 207.62523 168.28125 198.0094 171.02863 191.54492 176.52344 C 185.08043 181.85664 181.84766 188.40277 181.84766 196.16016 C 181.84766 201.81656 184.51446 206.90651 189.84766 211.43164 C 195.01923 216.11839 207.30186 220.48314 226.69531 224.52344 C 274.69409 234.86661 309.0363 245.37072 329.72266 256.03711 C 350.5706 266.5419 365.68119 279.63222 375.05469 295.30859 C 384.5898 310.98496 389.35742 328.52063 389.35742 347.91406 C 389.35742 370.70133 383.05496 391.70958 370.44922 410.94141 C 357.84348 430.17323 340.22724 444.80037 317.60156 454.82031 C 294.97587 464.67864 266.45073 469.60742 232.02734 469.60742 C 171.58444 469.60742 129.72722 457.97136 106.45508 434.69922 C 83.182935 411.42708 70.012034 381.85249 66.941406 345.97461 L 171.42383 339.42969 C 173.6864 356.39897 178.29091 369.32615 185.24023 378.21484 C 196.55308 392.59829 212.71505 399.79102 233.72461 399.79102 C 249.40098 399.79102 261.44187 396.15534 269.8457 388.88281 C 278.41114 381.44867 282.69336 372.88227 282.69336 363.18555 C 282.69336 353.97363 278.65287 345.73151 270.57227 338.45898 C 262.49167 331.18642 243.74542 324.31798 214.33203 317.85352 C 166.17163 307.02545 131.82747 292.64208 111.30273 274.70312 C 90.616404 256.76418 80.273438 233.89689 80.273438 206.09961 C 80.273438 187.83745 85.526468 170.6241 96.03125 154.46289 C 106.69765 138.14008 122.61593 125.374 143.78711 116.16211 C 165.11991 106.78861 194.29162 102.10156 231.30078 102.10156 z M 557.35352 108.16211 L 557.35352 206.09961 L 611.6543 206.09961 L 611.6543 278.09766 L 557.35352 278.09766 L 557.35352 369.48828 C 557.35352 380.4779 558.40294 387.75116 560.50391 391.30664 C 563.73616 396.80143 569.39402 399.54883 577.47461 399.54883 C 584.74718 399.54883 594.92703 397.44802 608.01758 393.24609 L 615.29102 461.36523 C 590.88759 466.69845 568.10086 469.36523 546.92969 469.36523 C 522.36465 469.36523 504.26302 466.21297 492.62695 459.91016 C 480.99088 453.60723 472.34586 444.07208 466.68945 431.30469 C 461.19462 418.37575 458.44727 397.52865 458.44727 368.76172 L 458.44727 278.09766 L 422.08398 278.09766 L 422.08398 206.09961 L 458.44727 206.09961 L 458.44727 158.82812 L 557.35352 108.16211 z M 619.29102 381.36523 L 713.57617 381.36523 L 713.57617 461.36523 L 619.29102 461.36523 L 619.29102 381.36523 z M 0 517.2793 L 0 968.16016 C 0 978.98763 10.192603 987.70312 22.855469 987.70312 L 769.08984 987.70312 C 781.7527 987.70312 791.94727 978.98763 791.94727 968.16016 L 791.94727 517.2793 L 0 517.2793 z M 633.50781 539.13477 C 656.94629 539.13477 674.79525 543.41641 687.05664 551.97852 C 699.40145 560.45906 706.7426 573.99586 709.07812 592.58789 L 655.65234 595.64453 C 654.23434 587.57169 651.23212 581.70072 646.64453 578.03125 C 642.14035 574.36174 635.88441 572.52734 627.87695 572.52734 C 621.2875 572.52734 616.3247 573.91304 612.98828 576.68555 C 609.65183 579.3765 607.98242 582.67963 607.98242 586.59375 C 607.98242 589.44778 609.35877 592.01558 612.11133 594.29883 C 614.78047 596.66357 621.12157 598.8657 631.13086 600.9043 C 655.90393 606.12311 673.62809 611.42474 684.30469 616.80664 C 695.0647 622.10697 702.86334 628.71134 707.70117 636.62109 C 712.62242 644.53085 715.08203 653.37879 715.08203 663.16406 C 715.08203 674.66173 711.83026 685.26113 705.32422 694.96484 C 698.81814 704.66859 689.72636 712.04978 678.04883 717.10547 C 666.3713 722.07967 651.64935 724.56641 633.88281 724.56641 C 602.68712 724.56641 581.08345 718.69544 569.07227 706.95312 C 557.06112 695.21081 550.26253 680.28828 548.67773 662.18555 L 602.60352 658.88281 C 603.77128 667.44492 606.14768 673.96819 609.73438 678.45312 C 615.57314 685.71054 623.91439 689.33984 634.75781 689.33984 C 642.84869 689.33984 649.063 687.50349 653.40039 683.83398 C 657.82115 680.08299 660.03125 675.76178 660.03125 670.86914 C 660.03125 666.22115 657.94591 662.06205 653.77539 658.39258 C 649.60483 654.72311 639.92882 651.25783 624.74805 647.99609 C 599.89157 642.53264 582.1674 635.27601 571.57422 626.22461 C 560.89762 617.17325 555.56055 605.63494 555.56055 591.60938 C 555.56055 582.39492 558.26967 573.70906 563.69141 565.55469 C 569.19652 557.31872 577.413 550.87846 588.33984 546.23047 C 599.3501 541.50092 614.40672 539.13477 633.50781 539.13477 z M 76.865234 542.19336 L 133.66797 542.19336 L 133.66797 721.50781 L 76.865234 721.50781 L 76.865234 542.19336 z M 156.0625 542.19336 L 215.36719 542.19336 L 256.65625 671.23633 L 297.32031 542.19336 L 354.87305 542.19336 L 286.80859 721.50781 L 225.37695 721.50781 L 156.0625 542.19336 z M 373.26562 542.19336 L 525.15625 542.19336 L 525.15625 580.47852 L 430.06836 580.47852 L 430.06836 608.97852 L 518.27539 608.97852 L 518.27539 645.55078 L 430.06836 645.55078 L 430.06836 680.89844 L 527.9082 680.89844 L 527.9082 721.50781 L 373.26562 721.50781 L 373.26562 542.19336 z M 230.95117 736.3418 C 241.29552 736.3418 249.26716 740.80039 254.86328 749.71875 C 260.4594 758.59184 263.25586 771.04248 263.25586 787.06836 C 263.25586 798.70297 262.02726 808.25492 259.56836 815.72461 C 257.13772 823.14903 253.60392 828.9425 248.96875 833.10742 C 244.36184 837.22707 238.61107 839.28711 231.71484 839.28711 C 224.70556 839.28711 218.89792 837.50022 214.29102 833.92383 C 209.71237 830.34743 205.99521 824.68858 203.14062 816.94727 C 200.28604 809.20595 198.85938 799.51742 198.85938 787.88281 C 198.85938 771.63058 201.68524 758.978 207.33789 749.92383 C 212.99054 740.86966 220.86119 736.3418 230.95117 736.3418 z M 303.44727 736.3418 C 313.79161 736.3418 321.7613 740.80039 327.35742 749.71875 C 332.95354 758.59184 335.75195 771.04248 335.75195 787.06836 C 335.75195 798.70297 334.5214 808.25492 332.0625 815.72461 C 329.63186 823.14903 326.10002 828.9425 321.46484 833.10742 C 316.85794 837.22707 311.10717 839.28711 304.21094 839.28711 C 297.20165 839.28711 291.39206 837.50022 286.78516 833.92383 C 282.20651 830.34743 278.49131 824.68858 275.63672 816.94727 C 272.78213 809.20595 271.35352 799.51742 271.35352 787.88281 C 271.35352 771.63058 274.17938 758.978 279.83203 749.92383 C 285.48468 740.86966 293.35729 736.3418 303.44727 736.3418 z M 77.269531 738.03906 L 113.2207 738.03906 C 119.21251 738.03906 123.80625 740.41648 127 745.16992 C 130.22201 749.92336 131.83203 755.80724 131.83203 762.82422 C 131.83203 768.70943 130.68776 773.75856 128.39844 777.96875 C 126.87222 780.77554 124.6386 782.9933 121.69922 784.62305 C 126.16481 786.34334 129.44368 789.30934 131.53516 793.51953 C 133.6549 797.68445 134.71484 802.93552 134.71484 809.27344 C 134.71484 814.43431 133.9667 819.07371 132.46875 823.19336 C 130.9708 827.31301 128.92053 830.5733 126.32031 832.97266 C 124.70931 834.46659 122.27957 835.55336 119.0293 836.23242 C 114.70502 837.13784 111.83699 837.58984 110.42383 837.58984 L 77.269531 837.58984 L 77.269531 738.03906 z M 144.7207 738.03906 L 163.92578 738.03906 L 163.92578 813.07617 L 193.89844 813.07617 L 193.89844 837.58984 L 144.7207 837.58984 L 144.7207 738.03906 z M 346.43555 738.03906 L 374.9668 738.03906 C 380.59118 738.03906 385.12806 739.26241 388.57617 741.70703 C 392.05255 744.15166 394.92058 747.66007 397.18164 752.23242 C 399.4427 756.80478 401.08213 762.12316 402.09961 768.18945 C 403.11709 774.25575 403.625 780.68398 403.625 787.47461 C 403.625 798.11326 402.86215 806.37651 401.33594 812.26172 C 399.83799 818.10166 397.74751 823.01226 395.0625 826.99609 C 392.37749 830.93466 389.49476 833.56019 386.41406 834.87305 C 382.20284 836.68388 378.38665 837.58984 374.9668 837.58984 L 346.43555 837.58984 L 346.43555 738.03906 z M 442.71484 738.03906 L 478.66406 738.03906 C 484.65587 738.03906 489.24961 740.41648 492.44336 745.16992 C 495.66537 749.92336 497.27539 755.80724 497.27539 762.82422 C 497.27539 768.70943 496.13112 773.75856 493.8418 777.96875 C 492.31558 780.77554 490.08391 782.9933 487.14453 784.62305 C 491.61012 786.34334 494.88704 789.30934 496.97852 793.51953 C 499.09826 797.68445 500.1582 802.93552 500.1582 809.27344 C 500.1582 814.43431 499.41006 819.07371 497.91211 823.19336 C 496.41416 827.31301 494.36584 830.5733 491.76562 832.97266 C 490.15462 834.46659 487.72293 835.55336 484.47266 836.23242 C 480.14838 837.13784 477.28035 837.58984 475.86719 837.58984 L 442.71484 837.58984 L 442.71484 738.03906 z M 525.80859 738.03906 L 546.75 738.03906 L 570.11133 837.58984 L 550.01562 837.58984 L 546.96289 821.15625 L 525.08789 821.15625 L 522.07812 837.58984 L 502.44922 837.58984 L 525.80859 738.03906 z M 576.42773 738.03906 L 594.36133 738.03906 L 617.76172 793.11133 L 617.76172 738.03906 L 635.86523 738.03906 L 635.86523 837.58984 L 617.76172 837.58984 L 594.48828 782.92578 L 594.48828 837.58984 L 576.42773 837.58984 L 576.42773 738.03906 z M 648.79492 738.03906 L 668 738.03906 L 668 775.66016 L 688.13867 738.03906 L 713.66016 738.03906 L 691.02148 775.5918 L 714.67773 837.58984 L 691.02148 837.58984 L 677.91992 796.64258 L 668 813.2793 L 668 837.58984 L 648.79492 837.58984 L 648.79492 738.03906 z M 96.644531 758.20703 L 96.644531 777.08594 L 104.99609 777.08594 C 107.992 777.08594 110.06972 776.27038 111.22852 774.64062 C 112.41557 772.9656 113.00977 770.56705 113.00977 767.44336 C 113.00977 764.54603 112.41557 762.28209 111.22852 760.65234 C 110.06972 759.02259 108.03416 758.20703 105.12305 758.20703 L 96.644531 758.20703 z M 462.08789 758.20703 L 462.08789 777.08594 L 470.43945 777.08594 C 473.43536 777.08594 475.51308 776.27038 476.67188 774.64062 C 477.85893 772.9656 478.45313 770.56705 478.45312 767.44336 C 478.45312 764.54603 477.85893 762.28209 476.67188 760.65234 C 475.51308 759.02259 473.47947 758.20703 470.56836 758.20703 L 462.08789 758.20703 z M 230.91016 759.63281 C 227.03809 759.63281 223.92788 761.82943 221.58203 766.2207 C 219.23618 770.61198 218.06445 777.87691 218.06445 788.01758 C 218.06445 798.06771 219.22148 805.28842 221.53906 809.67969 C 223.88491 814.07096 227.06474 816.26758 231.07812 816.26758 C 235.20456 816.26758 238.3991 814.11714 240.66016 809.81641 C 242.92122 805.51568 244.05078 797.79678 244.05078 786.66016 C 244.05078 777.28909 242.86435 770.45307 240.49023 766.15234 C 238.14439 761.80634 234.9518 759.63281 230.91016 759.63281 z M 303.4043 759.63281 C 299.53223 759.63281 296.42397 761.82943 294.07812 766.2207 C 291.73228 770.61198 290.55859 777.87691 290.55859 788.01758 C 290.55859 798.06771 291.71757 805.28842 294.03516 809.67969 C 296.38101 814.07096 299.56084 816.26758 303.57422 816.26758 C 307.70065 816.26758 310.89519 814.11714 313.15625 809.81641 C 315.41731 805.51568 316.54687 797.79678 316.54688 786.66016 C 316.54687 777.28909 315.36044 770.45307 312.98633 766.15234 C 310.64048 761.80634 307.44594 759.63281 303.4043 759.63281 z M 365.64062 760.58398 L 365.64062 814.97656 L 370.3457 814.97656 C 374.35908 814.97656 377.21436 814.27644 378.91016 812.87305 C 380.60595 811.42438 381.93358 808.93347 382.89453 805.40234 C 383.85548 801.82595 384.33594 796.05361 384.33594 788.08594 C 384.33594 777.53783 383.26129 770.31712 381.11328 766.42383 C 378.96527 762.53054 375.40597 760.58398 370.43164 760.58398 L 365.64062 760.58398 z M 536.06836 763.84375 L 529.24219 799.63086 L 542.93555 799.63086 L 536.06836 763.84375 z M 96.644531 796.03125 L 96.644531 816.19922 L 106.4375 816.19922 C 109.7443 816.19922 112.07696 815.27212 113.43359 813.41602 C 114.79023 811.51464 115.46875 808.97951 115.46875 805.81055 C 115.46875 802.86794 114.79023 800.51361 113.43359 798.74805 C 112.10522 796.93721 109.75981 796.03125 106.39648 796.03125 L 96.644531 796.03125 z M 462.08789 796.03125 L 462.08789 816.19922 L 471.88086 816.19922 C 475.18766 816.19922 477.52032 815.27212 478.87695 813.41602 C 480.23359 811.51464 480.91211 808.97951 480.91211 805.81055 C 480.91211 802.86794 480.23359 800.51361 478.87695 798.74805 C 477.54858 796.93721 475.20317 796.03125 471.83984 796.03125 L 462.08789 796.03125 z "
       transform="matrix(0.26458332,0,0,0.26458332,-6.9494465,17.835087)"
       id="rect1442" />
  </g>
</svg>
