<?xml version="1.0" encoding="UTF-8" standalone="no"?>
<!-- Created with Inkscape (http://www.inkscape.org/) -->

<svg
   xmlns:dc="http://purl.org/dc/elements/1.1/"
   xmlns:cc="http://creativecommons.org/ns#"
   xmlns:rdf="http://www.w3.org/1999/02/22-rdf-syntax-ns#"
   xmlns:svg="http://www.w3.org/2000/svg"
   xmlns="http://www.w3.org/2000/svg"
   xmlns:sodipodi="http://sodipodi.sourceforge.net/DTD/sodipodi-0.dtd"
   xmlns:inkscape="http://www.inkscape.org/namespaces/inkscape"
   width="791.94727"
   height="987.70312"
   viewBox="0 0 209.53604 261.32977"
   version="1.1"
   id="svg825"
   sodipodi:docname="st-foundation.svg"
   inkscape:version="0.92.3 (2405546, 2018-03-11)">
  <defs
     id="defs819" />
  <sodipodi:namedview
     id="base"
     pagecolor="#ffffff"
     bordercolor="#666666"
     borderopacity="1.0"
     inkscape:pageopacity="0.0"
     inkscape:pageshadow="2"
     inkscape:zoom="0.35"
     inkscape:cx="307.8105"
     inkscape:cy="506.06702"
     inkscape:document-units="px"
     inkscape:current-layer="layer1"
     showgrid="false"
     units="px"
     width="805.71484px"
     inkscape:pagecheckerboard="true"
     showborder="true"
     inkscape:window-width="1280"
     inkscape:window-height="725"
     inkscape:window-x="0"
     inkscape:window-y="0"
     inkscape:window-maximized="1"
     borderlayer="false"
     fit-margin-top="0"
     fit-margin-left="0"
     fit-margin-right="0"
     fit-margin-bottom="0" />
  <metadata
     id="metadata822">
    <rdf:RDF>
      <cc:Work
         rdf:about="">
        <dc:format>image/svg+xml</dc:format>
        <dc:type
           rdf:resource="http://purl.org/dc/dcmitype/StillImage" />
        <dc:title></dc:title>
      </cc:Work>
    </rdf:RDF>
  </metadata>
  <g
     inkscape:label="Layer 1"
     inkscape:groupmode="layer"
     id="layer1"
     transform="translate(6.9494465,-17.835087)">
    <path
       style="fill:#ff0000;fill-opacity:1;stroke:none;stroke-width:0.92304534"
       d="M 22.855469 0 C 10.192603 0 -2.3684758e-15 8.7154268 0 19.542969 L 0 494.42188 L 791.94727 494.42188 L 791.94727 19.542969 C 791.94727 8.7154268 781.7527 0 769.08984 0 L 22.855469 0 z M 231.30078 102.10156 C 276.71376 102.10156 311.29772 110.58542 335.05469 127.55469 C 358.97328 144.36233 373.19557 171.19151 377.7207 208.03906 L 274.20898 214.09961 C 271.46157 198.10002 265.64257 186.46395 256.75391 179.19141 C 248.02686 171.91887 235.90734 168.28125 220.39258 168.28125 C 207.62523 168.28125 198.0094 171.02863 191.54492 176.52344 C 185.08043 181.85664 181.84766 188.40277 181.84766 196.16016 C 181.84766 201.81656 184.51446 206.90651 189.84766 211.43164 C 195.01923 216.11839 207.30186 220.48314 226.69531 224.52344 C 274.69409 234.86661 309.0363 245.37072 329.72266 256.03711 C 350.5706 266.5419 365.68119 279.63222 375.05469 295.30859 C 384.5898 310.98496 389.35742 328.52063 389.35742 347.91406 C 389.35742 370.70133 383.05496 391.70958 370.44922 410.94141 C 357.84348 430.17323 340.22724 444.80037 317.60156 454.82031 C 294.97587 464.67864 266.45073 469.60742 232.02734 469.60742 C 171.58444 469.60742 129.72722 457.97136 106.45508 434.69922 C 83.182935 411.42708 70.012034 381.85249 66.941406 345.97461 L 171.42383 339.42969 C 173.6864 356.39897 178.29091 369.32615 185.24023 378.21484 C 196.55308 392.59829 212.71505 399.79102 233.72461 399.79102 C 249.40098 399.79102 261.44187 396.15534 269.8457 388.88281 C 278.41114 381.44867 282.69336 372.88227 282.69336 363.18555 C 282.69336 353.97363 278.65287 345.73151 270.57227 338.45898 C 262.49167 331.18642 243.74542 324.31798 214.33203 317.85352 C 166.17163 307.02545 131.82747 292.64208 111.30273 274.70312 C 90.616404 256.76418 80.273438 233.89689 80.273438 206.09961 C 80.273438 187.83745 85.526468 170.6241 96.03125 154.46289 C 106.69765 138.14008 122.61593 125.374 143.78711 116.16211 C 165.11991 106.78861 194.29162 102.10156 231.30078 102.10156 z M 557.35352 108.16211 L 557.35352 206.09961 L 611.6543 206.09961 L 611.6543 278.09766 L 557.35352 278.09766 L 557.35352 369.48828 C 557.35352 380.4779 558.40294 387.75116 560.50391 391.30664 C 563.73616 396.80143 569.39402 399.54883 577.47461 399.54883 C 584.74718 399.54883 594.92703 397.44802 608.01758 393.24609 L 615.29102 461.36523 C 590.88759 466.69845 568.10086 469.36523 546.92969 469.36523 C 522.36465 469.36523 504.26302 466.21297 492.62695 459.91016 C 480.99088 453.60723 472.34586 444.07208 466.68945 431.30469 C 461.19462 418.37575 458.44727 397.52865 458.44727 368.76172 L 458.44727 278.09766 L 422.08398 278.09766 L 422.08398 206.09961 L 458.44727 206.09961 L 458.44727 158.82812 L 557.35352 108.16211 z M 619.29102 381.36523 L 713.57617 381.36523 L 713.57617 461.36523 L 619.29102 461.36523 L 619.29102 381.36523 z M 0 517.2793 L 0 968.16016 C 0 978.98763 10.192603 987.70312 22.855469 987.70312 L 769.08984 987.70312 C 781.7527 987.70312 791.94727 978.98763 791.94727 968.16016 L 791.94727 517.2793 L 0 517.2793 z M 633.50781 539.13477 C 656.94629 539.13477 674.79525 543.41641 687.05664 551.97852 C 699.40145 560.45906 706.7426 573.99586 709.07812 592.58789 L 655.65234 595.64453 C 654.23434 587.57169 651.23212 581.70072 646.64453 578.03125 C 642.14035 574.36174 635.88441 572.52734 627.87695 572.52734 C 621.2875 572.52734 616.3247 573.91304 612.98828 576.68555 C 609.65183 579.3765 607.98242 582.67963 607.98242 586.59375 C 607.98242 589.44778 609.35877 592.01558 612.11133 594.29883 C 614.78047 596.66357 621.12157 598.8657 631.13086 600.9043 C 655.90393 606.12311 673.62809 611.42474 684.30469 616.80664 C 695.0647 622.10697 702.86334 628.71134 707.70117 636.62109 C 712.62242 644.53085 715.08203 653.37879 715.08203 663.16406 C 715.08203 674.66173 711.83026 685.26113 705.32422 694.96484 C 698.81814 704.66859 689.72636 712.04978 678.04883 717.10547 C 666.3713 722.07967 651.64935 724.56641 633.88281 724.56641 C 602.68712 724.56641 581.08345 718.69544 569.07227 706.95312 C 557.06112 695.21081 550.26253 680.28828 548.67773 662.18555 L 602.60352 658.88281 C 603.77128 667.44492 606.14768 673.96819 609.73438 678.45312 C 615.57314 685.71054 623.91439 689.33984 634.75781 689.33984 C 642.84869 689.33984 649.063 687.50349 653.40039 683.83398 C 657.82115 680.08299 660.03125 675.76178 660.03125 670.86914 C 660.03125 666.22115 657.94591 662.06205 653.77539 658.39258 C 649.60483 654.72311 639.92882 651.25783 624.74805 647.99609 C 599.89157 642.53264 582.1674 635.27601 571.57422 626.22461 C 560.89762 617.17325 555.56055 605.63494 555.56055 591.60938 C 555.56055 582.39492 558.26967 573.70906 563.69141 565.55469 C 569.19652 557.31872 577.413 550.87846 588.33984 546.23047 C 599.3501 541.50092 614.40672 539.13477 633.50781 539.13477 z M 76.865234 542.19336 L 133.66797 542.19336 L 133.66797 721.50781 L 76.865234 721.50781 L 76.865234 542.19336 z M 156.0625 542.19336 L 215.36719 542.19336 L 256.65625 671.23633 L 297.32031 542.19336 L 354.87305 542.19336 L 286.80859 721.50781 L 225.37695 721.50781 L 156.0625 542.19336 z M 373.26562 542.19336 L 525.15625 542.19336 L 525.15625 580.47852 L 430.06836 580.47852 L 430.06836 608.97852 L 518.27539 608.97852 L 518.27539 645.55078 L 430.06836 645.55078 L 430.06836 680.89844 L 527.9082 680.89844 L 527.9082 721.50781 L 373.26562 721.50781 L 373.26562 542.19336 z M 168.70703 736.3418 C 179.06528 736.3418 187.04675 740.80039 192.65039 749.71875 C 198.25403 758.59184 201.05664 771.04248 201.05664 787.06836 C 201.05664 798.70297 199.82549 808.25492 197.36328 815.72461 C 194.92938 823.14903 191.3914 828.9425 186.75 833.10742 C 182.1369 837.22707 176.37816 839.28711 169.47266 839.28711 C 162.45395 839.28711 156.63654 837.50022 152.02344 833.92383 C 147.43864 830.34743 143.7178 824.68858 140.85938 816.94727 C 138.00095 809.20595 136.57227 799.51742 136.57227 787.88281 C 136.57227 771.63058 139.40225 758.978 145.0625 749.92383 C 150.72275 740.86966 158.60349 736.3418 168.70703 736.3418 z M 608.50781 736.3418 C 618.86606 736.3418 626.84753 740.80039 632.45117 749.71875 C 638.05482 758.59184 640.85742 771.04248 640.85742 787.06836 C 640.85742 798.70297 639.62627 808.25492 637.16406 815.72461 C 634.73016 823.14903 631.19218 828.9425 626.55078 833.10742 C 621.93768 837.22707 616.17894 839.28711 609.27344 839.28711 C 602.25473 839.28711 596.43927 837.50022 591.82617 833.92383 C 587.24137 830.34743 583.51858 824.68858 580.66016 816.94727 C 577.80173 809.20595 576.37305 799.51742 576.37305 787.88281 C 576.37305 771.63058 579.20304 758.978 584.86328 749.92383 C 590.52353 740.86966 598.40427 736.3418 608.50781 736.3418 z M 81.001953 738.03906 L 128.54883 738.03906 L 128.54883 759.42969 L 100.31836 759.42969 L 100.31836 776.81445 L 124.42969 776.81445 L 124.42969 796.91406 L 100.31836 796.91406 L 100.31836 837.58984 L 81.001953 837.58984 L 81.001953 738.03906 z M 211.54102 738.03906 L 230.73047 738.03906 L 230.73047 798.81641 C 230.73047 804.24891 231.66337 808.50361 233.53125 811.58203 C 235.42743 814.61518 238.04522 816.13086 241.38477 816.13086 C 244.69601 816.13086 247.28642 814.63827 249.1543 811.65039 C 251.05048 808.61724 251.99805 804.33945 251.99805 798.81641 L 251.99805 738.03906 L 271.18555 738.03906 L 271.18555 797.38867 C 271.18555 803.27388 270.60566 808.84233 269.44531 814.09375 C 268.31326 819.2999 266.51689 823.87198 264.05469 827.81055 C 261.62078 831.70384 259.05971 834.44286 256.37109 836.02734 C 252.63533 838.24562 248.14979 839.35547 242.91406 839.35547 C 239.88583 839.35547 236.57472 839.01695 232.98047 838.33789 C 229.41451 837.65883 226.42709 836.322 224.02148 834.33008 C 221.61588 832.29289 219.40978 829.41924 217.40039 825.70703 C 215.4193 821.99482 214.06005 818.16903 213.32422 814.23047 C 212.13557 807.89255 211.54102 802.27792 211.54102 797.38867 L 211.54102 738.03906 z M 284.13477 738.03906 L 302.0918 738.03906 L 325.52539 793.11133 L 325.52539 738.03906 L 343.65234 738.03906 L 343.65234 837.58984 L 325.52539 837.58984 L 302.21875 782.92578 L 302.21875 837.58984 L 284.13477 837.58984 L 284.13477 738.03906 z M 356.76953 738.03906 L 385.33984 738.03906 C 390.97179 738.03906 395.51405 739.26241 398.9668 741.70703 C 402.44785 744.15166 405.31989 747.66007 407.58398 752.23242 C 409.84808 756.80478 411.48897 762.12316 412.50781 768.18945 C 413.52666 774.25575 414.03711 780.68398 414.03711 787.47461 C 414.03711 798.11326 413.27241 806.37651 411.74414 812.26172 C 410.24418 818.10166 408.14955 823.01226 405.46094 826.99609 C 402.77232 830.93466 399.88562 833.56019 396.80078 834.87305 C 392.5839 836.68388 388.76429 837.58984 385.33984 837.58984 L 356.76953 837.58984 L 356.76953 738.03906 z M 437.4707 738.03906 L 458.44141 738.03906 L 481.83203 837.58984 L 461.71094 837.58984 L 458.6543 821.15625 L 436.74805 821.15625 L 433.73438 837.58984 L 414.08008 837.58984 L 437.4707 738.03906 z M 477.71484 738.03906 L 536.16992 738.03906 L 536.16992 762.62109 L 516.55859 762.62109 L 516.55859 837.58984 L 497.32812 837.58984 L 497.32812 762.62109 L 477.71484 762.62109 L 477.71484 738.03906 z M 545.76562 738.03906 L 565.03906 738.03906 L 565.03906 837.58984 L 545.76562 837.58984 L 545.76562 738.03906 z M 651.42773 738.03906 L 669.38477 738.03906 L 692.81836 793.11133 L 692.81836 738.03906 L 710.94531 738.03906 L 710.94531 837.58984 L 692.81836 837.58984 L 669.51172 782.92578 L 669.51172 837.58984 L 651.42773 837.58984 L 651.42773 738.03906 z M 168.66602 759.63281 C 164.78875 759.63281 161.67517 761.82943 159.32617 766.2207 C 156.97717 770.61197 155.80273 777.87691 155.80273 788.01758 C 155.80273 798.06771 156.9625 805.28842 159.2832 809.67969 C 161.63221 814.07096 164.81716 816.26758 168.83594 816.26758 C 172.96792 816.26758 176.16559 814.11714 178.42969 809.81641 C 180.69379 805.51568 181.82617 797.79678 181.82617 786.66016 C 181.82617 777.28909 180.63707 770.45307 178.25977 766.15234 C 175.91076 761.80634 172.71309 759.63281 168.66602 759.63281 z M 608.4668 759.63281 C 604.58953 759.63281 601.47596 761.82943 599.12695 766.2207 C 596.77795 770.61197 595.60352 777.87691 595.60352 788.01758 C 595.60352 798.06771 596.76328 805.28842 599.08398 809.67969 C 601.43299 814.07096 604.61794 816.26758 608.63672 816.26758 C 612.7687 816.26758 615.96637 814.11714 618.23047 809.81641 C 620.49457 805.51568 621.62695 797.79678 621.62695 786.66016 C 621.62695 777.28909 620.43785 770.45307 618.06055 766.15234 C 615.71154 761.80634 612.51387 759.63281 608.4668 759.63281 z M 376 760.58398 L 376 814.97656 L 380.71289 814.97656 C 384.73167 814.97656 387.58904 814.27644 389.28711 812.87305 C 390.98518 811.42438 392.3151 808.93347 393.27734 805.40234 C 394.23959 801.82595 394.7207 796.05361 394.7207 788.08594 C 394.7207 777.53783 393.64503 770.31712 391.49414 766.42383 C 389.34325 762.53054 385.77789 760.58398 380.79688 760.58398 L 376 760.58398 z M 447.74414 763.84375 L 440.9082 799.63086 L 454.62109 799.63086 L 447.74414 763.84375 z "
       transform="matrix(0.26458332,0,0,0.26458332,-6.9494465,17.835087)"
       id="rect1442" />
  </g>
</svg>
