<?xml version="1.0" encoding="UTF-8" standalone="no"?>
<!-- Created with Inkscape (http://www.inkscape.org/) -->

<svg
   xmlns:dc="http://purl.org/dc/elements/1.1/"
   xmlns:cc="http://creativecommons.org/ns#"
   xmlns:rdf="http://www.w3.org/1999/02/22-rdf-syntax-ns#"
   xmlns:svg="http://www.w3.org/2000/svg"
   xmlns="http://www.w3.org/2000/svg"
   xmlns:sodipodi="http://sodipodi.sourceforge.net/DTD/sodipodi-0.dtd"
   xmlns:inkscape="http://www.inkscape.org/namespaces/inkscape"
   width="791.94727"
   height="987.70312"
   viewBox="0 0 209.53604 261.32977"
   version="1.1"
   id="svg825"
   sodipodi:docname="st-family-clinic.svg"
   inkscape:version="0.92.3 (2405546, 2018-03-11)">
  <defs
     id="defs819" />
  <sodipodi:namedview
     id="base"
     pagecolor="#ffffff"
     bordercolor="#666666"
     borderopacity="1.0"
     inkscape:pageopacity="0.0"
     inkscape:pageshadow="2"
     inkscape:zoom="0.35"
     inkscape:cx="307.8105"
     inkscape:cy="506.06702"
     inkscape:document-units="px"
     inkscape:current-layer="layer1"
     showgrid="false"
     units="px"
     width="805.71484px"
     inkscape:pagecheckerboard="true"
     showborder="true"
     inkscape:window-width="1280"
     inkscape:window-height="725"
     inkscape:window-x="0"
     inkscape:window-y="0"
     inkscape:window-maximized="1"
     borderlayer="false"
     fit-margin-top="0"
     fit-margin-left="0"
     fit-margin-right="0"
     fit-margin-bottom="0" />
  <metadata
     id="metadata822">
    <rdf:RDF>
      <cc:Work
         rdf:about="">
        <dc:format>image/svg+xml</dc:format>
        <dc:type
           rdf:resource="http://purl.org/dc/dcmitype/StillImage" />
        <dc:title></dc:title>
      </cc:Work>
    </rdf:RDF>
  </metadata>
  <g
     inkscape:label="Layer 1"
     inkscape:groupmode="layer"
     id="layer1"
     transform="translate(6.9494465,-17.835087)">
    <path
       style="fill:#ff0000;fill-opacity:1;stroke:none;stroke-width:0.92304534"
       d="M 22.855469 0 C 10.192603 0 -2.3684758e-15 8.7154268 0 19.542969 L 0 494.42188 L 791.94727 494.42188 L 791.94727 19.542969 C 791.94727 8.7154268 781.7527 0 769.08984 0 L 22.855469 0 z M 231.30078 102.10156 C 276.71376 102.10156 311.29772 110.58542 335.05469 127.55469 C 358.97328 144.36233 373.19557 171.19151 377.7207 208.03906 L 274.20898 214.09961 C 271.46157 198.10002 265.64257 186.46395 256.75391 179.19141 C 248.02686 171.91887 235.90734 168.28125 220.39258 168.28125 C 207.62523 168.28125 198.0094 171.02863 191.54492 176.52344 C 185.08043 181.85664 181.84766 188.40277 181.84766 196.16016 C 181.84766 201.81656 184.51446 206.90651 189.84766 211.43164 C 195.01923 216.11839 207.30186 220.48314 226.69531 224.52344 C 274.69409 234.86661 309.0363 245.37072 329.72266 256.03711 C 350.5706 266.5419 365.68119 279.63222 375.05469 295.30859 C 384.5898 310.98496 389.35742 328.52063 389.35742 347.91406 C 389.35742 370.70133 383.05496 391.70958 370.44922 410.94141 C 357.84348 430.17323 340.22724 444.80037 317.60156 454.82031 C 294.97587 464.67864 266.45073 469.60742 232.02734 469.60742 C 171.58444 469.60742 129.72722 457.97136 106.45508 434.69922 C 83.182935 411.42708 70.012034 381.85249 66.941406 345.97461 L 171.42383 339.42969 C 173.6864 356.39897 178.29091 369.32615 185.24023 378.21484 C 196.55308 392.59829 212.71505 399.79102 233.72461 399.79102 C 249.40098 399.79102 261.44187 396.15534 269.8457 388.88281 C 278.41114 381.44867 282.69336 372.88227 282.69336 363.18555 C 282.69336 353.97363 278.65287 345.73151 270.57227 338.45898 C 262.49167 331.18642 243.74542 324.31798 214.33203 317.85352 C 166.17163 307.02545 131.82747 292.64208 111.30273 274.70312 C 90.616404 256.76418 80.273438 233.89689 80.273438 206.09961 C 80.273438 187.83745 85.526468 170.6241 96.03125 154.46289 C 106.69765 138.14008 122.61593 125.374 143.78711 116.16211 C 165.11991 106.78861 194.29162 102.10156 231.30078 102.10156 z M 557.35352 108.16211 L 557.35352 206.09961 L 611.6543 206.09961 L 611.6543 278.09766 L 557.35352 278.09766 L 557.35352 369.48828 C 557.35352 380.4779 558.40294 387.75116 560.50391 391.30664 C 563.73616 396.80143 569.39402 399.54883 577.47461 399.54883 C 584.74718 399.54883 594.92703 397.44802 608.01758 393.24609 L 615.29102 461.36523 C 590.88759 466.69845 568.10086 469.36523 546.92969 469.36523 C 522.36465 469.36523 504.26302 466.21297 492.62695 459.91016 C 480.99088 453.60723 472.34586 444.07208 466.68945 431.30469 C 461.19462 418.37575 458.44727 397.52865 458.44727 368.76172 L 458.44727 278.09766 L 422.08398 278.09766 L 422.08398 206.09961 L 458.44727 206.09961 L 458.44727 158.82812 L 557.35352 108.16211 z M 619.29102 381.36523 L 713.57617 381.36523 L 713.57617 461.36523 L 619.29102 461.36523 L 619.29102 381.36523 z M 0 517.2793 L 0 968.16016 C 0 978.98763 10.192603 987.70312 22.855469 987.70312 L 769.08984 987.70312 C 781.7527 987.70312 791.94727 978.98763 791.94727 968.16016 L 791.94727 517.2793 L 0 517.2793 z M 633.50781 539.13477 C 656.94629 539.13477 674.79525 543.41641 687.05664 551.97852 C 699.40145 560.45906 706.7426 573.99586 709.07812 592.58789 L 655.65234 595.64453 C 654.23434 587.57169 651.23212 581.70072 646.64453 578.03125 C 642.14035 574.36174 635.88441 572.52734 627.87695 572.52734 C 621.2875 572.52734 616.3247 573.91304 612.98828 576.68555 C 609.65183 579.3765 607.98242 582.67963 607.98242 586.59375 C 607.98242 589.44778 609.35877 592.01558 612.11133 594.29883 C 614.78047 596.66357 621.12157 598.8657 631.13086 600.9043 C 655.90393 606.12311 673.62809 611.42474 684.30469 616.80664 C 695.0647 622.10697 702.86334 628.71134 707.70117 636.62109 C 712.62242 644.53085 715.08203 653.37879 715.08203 663.16406 C 715.08203 674.66173 711.83026 685.26113 705.32422 694.96484 C 698.81814 704.66859 689.72636 712.04978 678.04883 717.10547 C 666.3713 722.07967 651.64935 724.56641 633.88281 724.56641 C 602.68712 724.56641 581.08345 718.69544 569.07227 706.95312 C 557.06112 695.21081 550.26253 680.28828 548.67773 662.18555 L 602.60352 658.88281 C 603.77128 667.44492 606.14768 673.96819 609.73438 678.45312 C 615.57314 685.71054 623.91439 689.33984 634.75781 689.33984 C 642.84869 689.33984 649.063 687.50349 653.40039 683.83398 C 657.82115 680.08299 660.03125 675.76178 660.03125 670.86914 C 660.03125 666.22115 657.94591 662.06205 653.77539 658.39258 C 649.60483 654.72311 639.92882 651.25783 624.74805 647.99609 C 599.89157 642.53264 582.1674 635.27601 571.57422 626.22461 C 560.89762 617.17325 555.56055 605.63494 555.56055 591.60938 C 555.56055 582.39492 558.26967 573.70906 563.69141 565.55469 C 569.19652 557.31872 577.413 550.87846 588.33984 546.23047 C 599.3501 541.50092 614.40672 539.13477 633.50781 539.13477 z M 76.865234 542.19336 L 133.66797 542.19336 L 133.66797 721.50781 L 76.865234 721.50781 L 76.865234 542.19336 z M 156.0625 542.19336 L 215.36719 542.19336 L 256.65625 671.23633 L 297.32031 542.19336 L 354.87305 542.19336 L 286.80859 721.50781 L 225.37695 721.50781 L 156.0625 542.19336 z M 373.26562 542.19336 L 525.15625 542.19336 L 525.15625 580.47852 L 430.06836 580.47852 L 430.06836 608.97852 L 518.27539 608.97852 L 518.27539 645.55078 L 430.06836 645.55078 L 430.06836 680.89844 L 527.9082 680.89844 L 527.9082 721.50781 L 373.26562 721.50781 L 373.26562 542.19336 z M 448.04492 736.3418 C 455.09202 736.3418 460.62489 738.87693 464.64453 743.94727 C 468.68961 749.0176 471.69145 756.80381 473.65039 767.30664 L 458.38672 773.34961 C 457.85246 770.31646 457.29217 768.09871 456.70703 766.69531 C 455.74028 764.34123 454.55745 762.53126 453.1582 761.26367 C 451.75896 759.99609 450.19482 759.36133 448.46484 759.36133 C 444.54696 759.36133 441.54513 762.16767 439.45898 767.78125 C 437.88166 771.94617 437.0918 778.48789 437.0918 787.40625 C 437.0918 798.45234 438.0334 806.0366 439.91602 810.15625 C 441.79863 814.23063 444.44445 816.26758 447.85352 816.26758 C 451.16082 816.26758 453.65489 814.61532 455.33398 811.31055 C 457.03852 808.00578 458.27193 803.20671 459.03516 796.91406 L 474.18555 805.0625 C 473.16792 812.62273 471.56486 818.93748 469.37695 824.00781 C 467.18905 829.07815 464.46736 832.90394 461.21094 835.48438 C 457.97996 838.06481 453.85754 839.35547 448.8457 839.35547 C 442.76536 839.35547 437.79278 837.79361 433.92578 834.66992 C 430.08422 831.50096 426.76333 825.9556 423.96484 818.0332 C 421.16636 810.11081 419.76758 799.97027 419.76758 787.61133 C 419.76758 771.13274 422.22274 758.4782 427.13281 749.65039 C 432.06832 740.77731 439.03889 736.3418 448.04492 736.3418 z M 686.93359 736.3418 C 693.98069 736.3418 699.51356 738.87693 703.5332 743.94727 C 707.57829 749.0176 710.58012 756.80381 712.53906 767.30664 L 697.27539 773.34961 C 696.74113 770.31646 696.18084 768.09871 695.5957 766.69531 C 694.62895 764.34123 693.44612 762.53126 692.04688 761.26367 C 690.64763 759.99609 689.08349 759.36133 687.35352 759.36133 C 683.43564 759.36133 680.4338 762.16767 678.34766 767.78125 C 676.77033 771.94617 675.98047 778.48789 675.98047 787.40625 C 675.98047 798.45234 676.92207 806.0366 678.80469 810.15625 C 680.6873 814.23063 683.33312 816.26758 686.74219 816.26758 C 690.04949 816.26758 692.54357 814.61532 694.22266 811.31055 C 695.92719 808.00578 697.1606 803.20671 697.92383 796.91406 L 713.07422 805.0625 C 712.05659 812.62273 710.45353 818.93748 708.26562 824.00781 C 706.07772 829.07815 703.35603 832.90394 700.09961 835.48438 C 696.86863 838.06481 692.74621 839.35547 687.73438 839.35547 C 681.65403 839.35547 676.68145 837.79361 672.81445 834.66992 C 668.9729 831.50096 665.652 825.9556 662.85352 818.0332 C 660.05503 810.11081 658.65625 799.97027 658.65625 787.61133 C 658.65625 771.13274 661.11142 758.4782 666.02148 749.65039 C 670.95699 740.77731 677.92756 736.3418 686.93359 736.3418 z M 78.873047 738.03906 L 121.61328 738.03906 L 121.61328 759.42969 L 96.236328 759.42969 L 96.236328 776.81445 L 117.91211 776.81445 L 117.91211 796.91406 L 96.236328 796.91406 L 96.236328 837.58984 L 78.873047 837.58984 L 78.873047 738.03906 z M 139.05273 738.03906 L 157.9043 738.03906 L 178.93164 837.58984 L 160.84375 837.58984 L 158.0957 821.15625 L 138.4043 821.15625 L 135.69531 837.58984 L 118.02734 837.58984 L 139.05273 738.03906 z M 184.23633 738.03906 L 206.98047 738.03906 L 215.75781 798.61133 L 224.49609 738.03906 L 247.16406 738.03906 L 247.16406 837.58984 L 233.04492 837.58984 L 233.04492 761.66992 L 222.0918 837.58984 L 209.30859 837.58984 L 198.39453 761.66992 L 198.39453 837.58984 L 184.23633 837.58984 L 184.23633 738.03906 z M 258.8418 738.03906 L 276.16602 738.03906 L 276.16602 837.58984 L 258.8418 837.58984 L 258.8418 738.03906 z M 288.53125 738.03906 L 305.81836 738.03906 L 305.81836 813.07617 L 332.79688 813.07617 L 332.79688 837.58984 L 288.53125 837.58984 L 288.53125 738.03906 z M 329.21094 738.03906 L 348.40625 738.03906 L 359.70117 771.65234 L 370.99805 738.03906 L 390.07812 738.03906 L 368.32617 795.89453 L 368.32617 837.58984 L 351 837.58984 L 351 795.89453 L 329.21094 738.03906 z M 482.54297 738.03906 L 499.83008 738.03906 L 499.83008 813.07617 L 526.80859 813.07617 L 526.80859 837.58984 L 482.54297 837.58984 L 482.54297 738.03906 z M 535.43359 738.03906 L 552.75781 738.03906 L 552.75781 837.58984 L 535.43359 837.58984 L 535.43359 738.03906 z M 565.23828 738.03906 L 581.37891 738.03906 L 602.44531 793.11133 L 602.44531 738.03906 L 618.74023 738.03906 L 618.74023 837.58984 L 602.44531 837.58984 L 581.49414 782.92578 L 581.49414 837.58984 L 565.23828 837.58984 L 565.23828 738.03906 z M 630.98828 738.03906 L 648.31445 738.03906 L 648.31445 837.58984 L 630.98828 837.58984 L 630.98828 738.03906 z M 148.28906 763.84375 L 142.14453 799.63086 L 154.4707 799.63086 L 148.28906 763.84375 z "
       transform="matrix(0.26458332,0,0,0.26458332,-6.9494465,17.835087)"
       id="rect1442" />
  </g>
</svg>
