<?xml version="1.0" encoding="UTF-8" standalone="no"?>
<!-- Created with Inkscape (http://www.inkscape.org/) -->

<svg
   xmlns:dc="http://purl.org/dc/elements/1.1/"
   xmlns:cc="http://creativecommons.org/ns#"
   xmlns:rdf="http://www.w3.org/1999/02/22-rdf-syntax-ns#"
   xmlns:svg="http://www.w3.org/2000/svg"
   xmlns="http://www.w3.org/2000/svg"
   xmlns:sodipodi="http://sodipodi.sourceforge.net/DTD/sodipodi-0.dtd"
   xmlns:inkscape="http://www.inkscape.org/namespaces/inkscape"
   width="791.94727"
   height="987.70312"
   viewBox="0 0 209.53604 261.32977"
   version="1.1"
   id="svg825"
   sodipodi:docname="st-fertility.svg"
   inkscape:version="0.92.3 (2405546, 2018-03-11)">
  <defs
     id="defs819" />
  <sodipodi:namedview
     id="base"
     pagecolor="#ffffff"
     bordercolor="#666666"
     borderopacity="1.0"
     inkscape:pageopacity="0.0"
     inkscape:pageshadow="2"
     inkscape:zoom="0.35"
     inkscape:cx="307.8105"
     inkscape:cy="506.06702"
     inkscape:document-units="px"
     inkscape:current-layer="layer1"
     showgrid="false"
     units="px"
     width="805.71484px"
     inkscape:pagecheckerboard="true"
     showborder="true"
     inkscape:window-width="1280"
     inkscape:window-height="725"
     inkscape:window-x="0"
     inkscape:window-y="0"
     inkscape:window-maximized="1"
     borderlayer="false"
     fit-margin-top="0"
     fit-margin-left="0"
     fit-margin-right="0"
     fit-margin-bottom="0" />
  <metadata
     id="metadata822">
    <rdf:RDF>
      <cc:Work
         rdf:about="">
        <dc:format>image/svg+xml</dc:format>
        <dc:type
           rdf:resource="http://purl.org/dc/dcmitype/StillImage" />
        <dc:title></dc:title>
      </cc:Work>
    </rdf:RDF>
  </metadata>
  <g
     inkscape:label="Layer 1"
     inkscape:groupmode="layer"
     id="layer1"
     transform="translate(6.9494465,-17.835087)">
    <path
       style="fill:#ff0000;fill-opacity:1;stroke:none;stroke-width:0.92304534"
       d="M 22.855469 0 C 10.192603 0 -2.3684758e-15 8.7154268 0 19.542969 L 0 494.42188 L 791.94727 494.42188 L 791.94727 19.542969 C 791.94727 8.7154268 781.7527 0 769.08984 0 L 22.855469 0 z M 231.30078 102.10156 C 276.71376 102.10156 311.29772 110.58542 335.05469 127.55469 C 358.97328 144.36233 373.19557 171.19151 377.7207 208.03906 L 274.20898 214.09961 C 271.46157 198.10002 265.64257 186.46395 256.75391 179.19141 C 248.02686 171.91887 235.90734 168.28125 220.39258 168.28125 C 207.62523 168.28125 198.0094 171.02863 191.54492 176.52344 C 185.08043 181.85664 181.84766 188.40277 181.84766 196.16016 C 181.84766 201.81656 184.51446 206.90651 189.84766 211.43164 C 195.01923 216.11839 207.30186 220.48314 226.69531 224.52344 C 274.69409 234.86661 309.0363 245.37072 329.72266 256.03711 C 350.5706 266.5419 365.68119 279.63222 375.05469 295.30859 C 384.5898 310.98496 389.35742 328.52063 389.35742 347.91406 C 389.35742 370.70133 383.05496 391.70958 370.44922 410.94141 C 357.84348 430.17323 340.22724 444.80037 317.60156 454.82031 C 294.97587 464.67864 266.45073 469.60742 232.02734 469.60742 C 171.58444 469.60742 129.72722 457.97136 106.45508 434.69922 C 83.182935 411.42708 70.012034 381.85249 66.941406 345.97461 L 171.42383 339.42969 C 173.6864 356.39897 178.29091 369.32615 185.24023 378.21484 C 196.55308 392.59829 212.71505 399.79102 233.72461 399.79102 C 249.40098 399.79102 261.44187 396.15534 269.8457 388.88281 C 278.41114 381.44867 282.69336 372.88227 282.69336 363.18555 C 282.69336 353.97363 278.65287 345.73151 270.57227 338.45898 C 262.49167 331.18642 243.74542 324.31798 214.33203 317.85352 C 166.17163 307.02545 131.82747 292.64208 111.30273 274.70312 C 90.616404 256.76418 80.273438 233.89689 80.273438 206.09961 C 80.273438 187.83745 85.526468 170.6241 96.03125 154.46289 C 106.69765 138.14008 122.61593 125.374 143.78711 116.16211 C 165.11991 106.78861 194.29162 102.10156 231.30078 102.10156 z M 557.35352 108.16211 L 557.35352 206.09961 L 611.6543 206.09961 L 611.6543 278.09766 L 557.35352 278.09766 L 557.35352 369.48828 C 557.35352 380.4779 558.40294 387.75116 560.50391 391.30664 C 563.73616 396.80143 569.39402 399.54883 577.47461 399.54883 C 584.74718 399.54883 594.92703 397.44802 608.01758 393.24609 L 615.29102 461.36523 C 590.88759 466.69845 568.10086 469.36523 546.92969 469.36523 C 522.36465 469.36523 504.26302 466.21297 492.62695 459.91016 C 480.99088 453.60723 472.34586 444.07208 466.68945 431.30469 C 461.19462 418.37575 458.44727 397.52865 458.44727 368.76172 L 458.44727 278.09766 L 422.08398 278.09766 L 422.08398 206.09961 L 458.44727 206.09961 L 458.44727 158.82812 L 557.35352 108.16211 z M 619.29102 381.36523 L 713.57617 381.36523 L 713.57617 461.36523 L 619.29102 461.36523 L 619.29102 381.36523 z M 0 517.2793 L 0 968.16016 C 0 978.98763 10.192603 987.70312 22.855469 987.70312 L 769.08984 987.70312 C 781.7527 987.70312 791.94727 978.98763 791.94727 968.16016 L 791.94727 517.2793 L 0 517.2793 z M 633.50781 539.13477 C 656.94629 539.13477 674.79525 543.41641 687.05664 551.97852 C 699.40145 560.45906 706.7426 573.99586 709.07812 592.58789 L 655.65234 595.64453 C 654.23434 587.57169 651.23212 581.70072 646.64453 578.03125 C 642.14035 574.36174 635.88441 572.52734 627.87695 572.52734 C 621.2875 572.52734 616.3247 573.91304 612.98828 576.68555 C 609.65183 579.3765 607.98242 582.67963 607.98242 586.59375 C 607.98242 589.44778 609.35877 592.01558 612.11133 594.29883 C 614.78047 596.66357 621.12157 598.8657 631.13086 600.9043 C 655.90393 606.12311 673.62809 611.42474 684.30469 616.80664 C 695.0647 622.10697 702.86334 628.71134 707.70117 636.62109 C 712.62242 644.53085 715.08203 653.37879 715.08203 663.16406 C 715.08203 674.66173 711.83026 685.26113 705.32422 694.96484 C 698.81814 704.66859 689.72636 712.04978 678.04883 717.10547 C 666.3713 722.07967 651.64935 724.56641 633.88281 724.56641 C 602.68712 724.56641 581.08345 718.69544 569.07227 706.95312 C 557.06112 695.21081 550.26253 680.28828 548.67773 662.18555 L 602.60352 658.88281 C 603.77128 667.44492 606.14768 673.96819 609.73438 678.45312 C 615.57314 685.71054 623.91439 689.33984 634.75781 689.33984 C 642.84869 689.33984 649.063 687.50349 653.40039 683.83398 C 657.82115 680.08299 660.03125 675.76178 660.03125 670.86914 C 660.03125 666.22115 657.94591 662.06205 653.77539 658.39258 C 649.60483 654.72311 639.92882 651.25783 624.74805 647.99609 C 599.89157 642.53264 582.1674 635.27601 571.57422 626.22461 C 560.89762 617.17325 555.56055 605.63494 555.56055 591.60938 C 555.56055 582.39492 558.26967 573.70906 563.69141 565.55469 C 569.19652 557.31872 577.413 550.87846 588.33984 546.23047 C 599.3501 541.50092 614.40672 539.13477 633.50781 539.13477 z M 76.865234 542.19336 L 133.66797 542.19336 L 133.66797 721.50781 L 76.865234 721.50781 L 76.865234 542.19336 z M 156.0625 542.19336 L 215.36719 542.19336 L 256.65625 671.23633 L 297.32031 542.19336 L 354.87305 542.19336 L 286.80859 721.50781 L 225.37695 721.50781 L 156.0625 542.19336 z M 373.26562 542.19336 L 525.15625 542.19336 L 525.15625 580.47852 L 430.06836 580.47852 L 430.06836 608.97852 L 518.27539 608.97852 L 518.27539 645.55078 L 430.06836 645.55078 L 430.06836 680.89844 L 527.9082 680.89844 L 527.9082 721.50781 L 373.26562 721.50781 L 373.26562 542.19336 z M 77.929688 738.03906 L 117.28125 738.03906 L 117.28125 759.42969 L 93.916016 759.42969 L 93.916016 776.81445 L 113.87305 776.81445 L 113.87305 796.91406 L 93.916016 796.91406 L 93.916016 837.58984 L 77.929688 837.58984 L 77.929688 738.03906 z M 125.88867 738.03906 L 168.54297 738.03906 L 168.54297 759.29492 L 141.83984 759.29492 L 141.83984 775.11523 L 166.61133 775.11523 L 166.61133 795.41992 L 141.83984 795.41992 L 141.83984 815.04492 L 169.31641 815.04492 L 169.31641 837.58984 L 125.88867 837.58984 L 125.88867 738.03906 z M 178.13477 738.03906 L 204.66211 738.03906 C 209.58104 738.03906 213.3414 738.85462 215.94141 740.48438 C 218.54141 742.11413 220.63767 745.14744 222.23047 749.58398 C 223.82327 753.97526 224.61914 759.33982 224.61914 765.67773 C 224.61914 771.20078 224.01099 775.97675 222.79297 780.00586 C 221.57495 783.98969 219.89911 787.2269 217.76758 789.7168 C 216.40902 791.30128 214.54741 792.61307 212.18164 793.6543 C 214.07894 794.87661 215.46146 796.09995 216.32812 797.32227 C 216.91371 798.13714 217.75652 799.8798 218.85742 802.55078 C 219.98175 805.22176 220.73069 807.2818 221.10547 808.73047 L 228.80078 837.58984 L 210.81055 837.58984 L 202.30859 807.16797 C 201.23111 803.22941 200.27098 800.67118 199.42773 799.49414 C 198.27998 797.95493 196.9796 797.18555 195.52734 797.18555 L 194.12109 797.18555 L 194.12109 837.58984 L 178.13477 837.58984 L 178.13477 738.03906 z M 229.67773 738.03906 L 278.06055 738.03906 L 278.06055 762.62109 L 261.82812 762.62109 L 261.82812 837.58984 L 245.91016 837.58984 L 245.91016 762.62109 L 229.67773 762.62109 L 229.67773 738.03906 z M 285.92969 738.03906 L 301.88086 738.03906 L 301.88086 837.58984 L 285.92969 837.58984 L 285.92969 738.03906 z M 313.26562 738.03906 L 329.18164 738.03906 L 329.18164 813.07617 L 354.02148 813.07617 L 354.02148 837.58984 L 313.26562 837.58984 L 313.26562 738.03906 z M 361.96289 738.03906 L 377.91406 738.03906 L 377.91406 837.58984 L 361.96289 837.58984 L 361.96289 738.03906 z M 385.67969 738.03906 L 434.06055 738.03906 L 434.06055 762.62109 L 417.82812 762.62109 L 417.82812 837.58984 L 401.91211 837.58984 L 401.91211 762.62109 L 385.67969 762.62109 L 385.67969 738.03906 z M 436.09766 738.03906 L 453.77148 738.03906 L 464.17188 771.65234 L 474.57031 738.03906 L 492.13867 738.03906 L 472.11133 795.89648 L 472.11133 837.58984 L 456.16016 837.58984 L 456.16016 795.89648 L 436.09766 738.03906 z M 521.30078 738.03906 L 537.18164 738.03906 L 537.18164 798.81641 C 537.18164 804.24891 537.956 808.50361 539.50195 811.58203 C 541.07133 814.61518 543.23798 816.13086 546.00195 816.13086 C 548.7425 816.13086 550.88569 814.63827 552.43164 811.65039 C 554.00101 808.61724 554.78516 804.33945 554.78516 798.81641 L 554.78516 738.03906 L 570.66602 738.03906 L 570.66602 797.38867 C 570.66602 803.27388 570.18497 808.84233 569.22461 814.09375 C 568.28767 819.2999 566.80151 823.87198 564.76367 827.81055 C 562.74925 831.70384 560.62953 834.44286 558.4043 836.02734 C 555.3124 838.24562 551.59897 839.35547 547.26562 839.35547 C 544.75931 839.35547 542.0197 839.01695 539.04492 838.33789 C 536.09356 837.65883 533.62186 836.322 531.63086 834.33008 C 529.63986 832.29289 527.81346 829.41924 526.15039 825.70703 C 524.51075 821.99482 523.38635 818.16903 522.77734 814.23047 C 521.79356 807.89255 521.30078 802.27792 521.30078 797.38867 L 521.30078 738.03906 z M 581.38281 738.03906 L 596.24414 738.03906 L 615.63867 793.11133 L 615.63867 738.03906 L 630.64258 738.03906 L 630.64258 837.58984 L 615.63867 837.58984 L 596.34961 782.92578 L 596.34961 837.58984 L 581.38281 837.58984 L 581.38281 738.03906 z M 641.91992 738.03906 L 657.87109 738.03906 L 657.87109 837.58984 L 641.91992 837.58984 L 641.91992 738.03906 z M 665.63672 738.03906 L 714.01758 738.03906 L 714.01758 762.62109 L 697.78516 762.62109 L 697.78516 837.58984 L 681.86914 837.58984 L 681.86914 762.62109 L 665.63672 762.62109 L 665.63672 738.03906 z M 194.12109 758.13867 L 194.12109 778.375 L 200.83203 778.375 C 201.55816 778.375 202.96414 777.92299 205.04883 777.01758 C 206.10288 776.61014 206.95742 775.56955 207.61328 773.89453 C 208.29256 772.21951 208.63281 770.29409 208.63281 768.12109 C 208.63281 764.90686 208.10484 762.441 207.05078 760.7207 C 205.99672 759.00041 204.01779 758.13867 201.11328 758.13867 L 194.12109 758.13867 z "
       transform="matrix(0.26458332,0,0,0.26458332,-6.9494465,17.835087)"
       id="rect1442" />
  </g>
</svg>
