<?xml version="1.0" encoding="UTF-8" standalone="no"?>
<!-- Created with Inkscape (http://www.inkscape.org/) -->

<svg
   xmlns:dc="http://purl.org/dc/elements/1.1/"
   xmlns:cc="http://creativecommons.org/ns#"
   xmlns:rdf="http://www.w3.org/1999/02/22-rdf-syntax-ns#"
   xmlns:svg="http://www.w3.org/2000/svg"
   xmlns="http://www.w3.org/2000/svg"
   xmlns:sodipodi="http://sodipodi.sourceforge.net/DTD/sodipodi-0.dtd"
   xmlns:inkscape="http://www.inkscape.org/namespaces/inkscape"
   width="791.94727"
   height="987.70312"
   viewBox="0 0 209.53604 261.32977"
   version="1.1"
   id="svg825"
   sodipodi:docname="st-healthcare.svg"
   inkscape:version="0.92.3 (2405546, 2018-03-11)">
  <defs
     id="defs819" />
  <sodipodi:namedview
     id="base"
     pagecolor="#ffffff"
     bordercolor="#666666"
     borderopacity="1.0"
     inkscape:pageopacity="0.0"
     inkscape:pageshadow="2"
     inkscape:zoom="0.35"
     inkscape:cx="-116.03963"
     inkscape:cy="506.06702"
     inkscape:document-units="px"
     inkscape:current-layer="layer1"
     showgrid="false"
     units="px"
     width="805.71484px"
     inkscape:pagecheckerboard="true"
     showborder="true"
     inkscape:window-width="1280"
     inkscape:window-height="725"
     inkscape:window-x="0"
     inkscape:window-y="0"
     inkscape:window-maximized="1"
     borderlayer="false"
     fit-margin-top="0"
     fit-margin-left="0"
     fit-margin-right="0"
     fit-margin-bottom="0" />
  <metadata
     id="metadata822">
    <rdf:RDF>
      <cc:Work
         rdf:about="">
        <dc:format>image/svg+xml</dc:format>
        <dc:type
           rdf:resource="http://purl.org/dc/dcmitype/StillImage" />
        <dc:title></dc:title>
      </cc:Work>
    </rdf:RDF>
  </metadata>
  <g
     inkscape:label="Layer 1"
     inkscape:groupmode="layer"
     id="layer1"
     transform="translate(6.9494465,-17.835087)">
    <path
       style="fill:#ff0000;fill-opacity:1;stroke:none;stroke-width:0.92304534"
       d="M 22.855469 0 C 10.192603 0 0 8.7154268 0 19.542969 L 0 494.42188 L 791.94727 494.42188 L 791.94727 19.542969 C 791.94727 8.7154268 781.7527 0 769.08984 0 L 22.855469 0 z M 231.30078 102.10156 C 276.71376 102.10156 311.29772 110.58542 335.05469 127.55469 C 358.97328 144.36233 373.19557 171.19151 377.7207 208.03906 L 274.20898 214.09961 C 271.46157 198.10002 265.64257 186.46395 256.75391 179.19141 C 248.02686 171.91887 235.90734 168.28125 220.39258 168.28125 C 207.62523 168.28125 198.0094 171.02863 191.54492 176.52344 C 185.08043 181.85664 181.84766 188.40277 181.84766 196.16016 C 181.84766 201.81656 184.51446 206.90651 189.84766 211.43164 C 195.01923 216.11839 207.30186 220.48314 226.69531 224.52344 C 274.69409 234.86661 309.0363 245.37072 329.72266 256.03711 C 350.5706 266.5419 365.68119 279.63222 375.05469 295.30859 C 384.5898 310.98496 389.35742 328.52063 389.35742 347.91406 C 389.35742 370.70133 383.05496 391.70958 370.44922 410.94141 C 357.84348 430.17323 340.22724 444.80037 317.60156 454.82031 C 294.97587 464.67864 266.45073 469.60742 232.02734 469.60742 C 171.58444 469.60742 129.72722 457.97136 106.45508 434.69922 C 83.182935 411.42708 70.012034 381.85249 66.941406 345.97461 L 171.42383 339.42969 C 173.6864 356.39897 178.29091 369.32615 185.24023 378.21484 C 196.55308 392.59829 212.71505 399.79102 233.72461 399.79102 C 249.40098 399.79102 261.44187 396.15534 269.8457 388.88281 C 278.41114 381.44867 282.69336 372.88227 282.69336 363.18555 C 282.69336 353.97363 278.65287 345.73151 270.57227 338.45898 C 262.49167 331.18642 243.74542 324.31798 214.33203 317.85352 C 166.17163 307.02545 131.82747 292.64208 111.30273 274.70312 C 90.616404 256.76418 80.273438 233.89689 80.273438 206.09961 C 80.273438 187.83745 85.526468 170.6241 96.03125 154.46289 C 106.69765 138.14008 122.61593 125.374 143.78711 116.16211 C 165.11991 106.78861 194.29162 102.10156 231.30078 102.10156 z M 557.35352 108.16211 L 557.35352 206.09961 L 611.6543 206.09961 L 611.6543 278.09766 L 557.35352 278.09766 L 557.35352 369.48828 C 557.35352 380.4779 558.40294 387.75116 560.50391 391.30664 C 563.73616 396.80143 569.39402 399.54883 577.47461 399.54883 C 584.74718 399.54883 594.92703 397.44802 608.01758 393.24609 L 615.29102 461.36523 C 590.88759 466.69845 568.10086 469.36523 546.92969 469.36523 C 522.36465 469.36523 504.26302 466.21297 492.62695 459.91016 C 480.99088 453.60723 472.34586 444.07208 466.68945 431.30469 C 461.19462 418.37575 458.44727 397.52865 458.44727 368.76172 L 458.44727 278.09766 L 422.08398 278.09766 L 422.08398 206.09961 L 458.44727 206.09961 L 458.44727 158.82812 L 557.35352 108.16211 z M 619.29102 381.36523 L 713.57617 381.36523 L 713.57617 461.36523 L 619.29102 461.36523 L 619.29102 381.36523 z M 0 517.2793 L 0 968.16016 C 0 978.98763 10.192603 987.70312 22.855469 987.70312 L 769.08984 987.70312 C 781.7527 987.70312 791.94727 978.98763 791.94727 968.16016 L 791.94727 517.2793 L 0 517.2793 z M 633.50781 539.13477 C 656.94629 539.13477 674.79525 543.41641 687.05664 551.97852 C 699.40145 560.45906 706.7426 573.99586 709.07812 592.58789 L 655.65234 595.64453 C 654.23434 587.57169 651.23212 581.70072 646.64453 578.03125 C 642.14035 574.36174 635.88441 572.52734 627.87695 572.52734 C 621.2875 572.52734 616.3247 573.91304 612.98828 576.68555 C 609.65183 579.3765 607.98242 582.67963 607.98242 586.59375 C 607.98242 589.44778 609.35877 592.01558 612.11133 594.29883 C 614.78047 596.66357 621.12157 598.8657 631.13086 600.9043 C 655.90393 606.12311 673.62809 611.42474 684.30469 616.80664 C 695.0647 622.10697 702.86334 628.71134 707.70117 636.62109 C 712.62242 644.53085 715.08203 653.37879 715.08203 663.16406 C 715.08203 674.66173 711.83026 685.26113 705.32422 694.96484 C 698.81814 704.66859 689.72636 712.04978 678.04883 717.10547 C 666.3713 722.07967 651.64935 724.56641 633.88281 724.56641 C 602.68712 724.56641 581.08345 718.69544 569.07227 706.95312 C 557.06112 695.21081 550.26253 680.28828 548.67773 662.18555 L 602.60352 658.88281 C 603.77128 667.44492 606.14768 673.96819 609.73438 678.45312 C 615.57314 685.71054 623.91439 689.33984 634.75781 689.33984 C 642.84869 689.33984 649.063 687.50349 653.40039 683.83398 C 657.82115 680.08299 660.03125 675.76178 660.03125 670.86914 C 660.03125 666.22115 657.94591 662.06205 653.77539 658.39258 C 649.60483 654.72311 639.92882 651.25783 624.74805 647.99609 C 599.89157 642.53264 582.1674 635.27601 571.57422 626.22461 C 560.89762 617.17325 555.56055 605.63494 555.56055 591.60938 C 555.56055 582.39492 558.26967 573.70906 563.69141 565.55469 C 569.19652 557.31872 577.413 550.87846 588.33984 546.23047 C 599.3501 541.50092 614.40672 539.13477 633.50781 539.13477 z M 76.865234 542.19336 L 133.66797 542.19336 L 133.66797 721.50781 L 76.865234 721.50781 L 76.865234 542.19336 z M 156.0625 542.19336 L 215.36719 542.19336 L 256.65625 671.23633 L 297.32031 542.19336 L 354.87305 542.19336 L 286.80859 721.50781 L 225.37695 721.50781 L 156.0625 542.19336 z M 373.26562 542.19336 L 525.15625 542.19336 L 525.15625 580.47852 L 430.06836 580.47852 L 430.06836 608.97852 L 518.27539 608.97852 L 518.27539 645.55078 L 430.06836 645.55078 L 430.06836 680.89844 L 527.9082 680.89844 L 527.9082 721.50781 L 373.26562 721.50781 L 373.26562 542.19336 z M 491.85938 736.3418 C 499.56638 736.3418 505.61762 738.87693 510.01367 743.94727 C 514.43755 749.0176 517.7209 756.80381 519.86328 767.30664 L 503.16992 773.35156 C 502.58564 770.31842 501.97196 768.09871 501.33203 766.69531 C 500.27475 764.34123 498.98144 762.53126 497.45117 761.26367 C 495.9209 759.99609 494.21033 759.36133 492.31836 759.36133 C 488.0336 759.36133 484.75025 762.16962 482.46875 767.7832 C 480.74372 771.94812 479.88086 778.48789 479.88086 787.40625 C 479.88086 798.45234 480.90984 806.0366 482.96875 810.15625 C 485.02766 814.23063 487.92209 816.26758 491.65039 816.26758 C 495.2674 816.26758 497.99375 814.61532 499.83008 811.31055 C 501.69423 808.00578 503.04421 803.20671 503.87891 796.91406 L 520.44727 805.0625 C 519.33434 812.62273 517.58224 818.93748 515.18945 824.00781 C 512.79667 829.07815 509.81917 832.90394 506.25781 835.48438 C 502.72428 838.06481 498.21748 839.35547 492.73633 839.35547 C 486.0866 839.35547 480.64708 837.79361 476.41797 834.66992 C 472.21668 831.50096 468.58593 825.9556 465.52539 818.0332 C 462.46485 810.11081 460.93359 799.97027 460.93359 787.61133 C 460.93359 771.13274 463.61842 758.4782 468.98828 749.65039 C 474.38596 740.77731 482.00999 736.3418 491.85938 736.3418 z M 77.935547 738.03906 L 96.839844 738.03906 L 96.839844 772.875 L 117.5 772.875 L 117.5 738.03906 L 136.48828 738.03906 L 136.48828 837.58984 L 117.5 837.58984 L 117.5 797.32227 L 96.839844 797.32227 L 96.839844 837.58984 L 77.935547 837.58984 L 77.935547 738.03906 z M 149.0918 738.03906 L 199.75781 738.03906 L 199.75781 759.29492 L 168.03906 759.29492 L 168.03906 775.11523 L 197.46289 775.11523 L 197.46289 795.41992 L 168.03906 795.41992 L 168.03906 815.04492 L 200.67578 815.04492 L 200.67578 837.58984 L 149.0918 837.58984 L 149.0918 738.03906 z M 227.7207 738.03906 L 248.33789 738.03906 L 271.33398 837.58984 L 251.55078 837.58984 L 248.54688 821.15625 L 227.01172 821.15625 L 224.04688 837.58984 L 204.72461 837.58984 L 227.7207 738.03906 z M 277.34375 738.03906 L 296.24805 738.03906 L 296.24805 813.07617 L 325.75586 813.07617 L 325.75586 837.58984 L 277.34375 837.58984 L 277.34375 738.03906 z M 325.79688 738.03906 L 383.26562 738.03906 L 383.26562 762.62109 L 363.98438 762.62109 L 363.98438 837.58984 L 345.07812 837.58984 L 345.07812 762.62109 L 325.79688 762.62109 L 325.79688 738.03906 z M 391.94531 738.03906 L 410.85156 738.03906 L 410.85156 772.875 L 431.50977 772.875 L 431.50977 738.03906 L 450.5 738.03906 L 450.5 837.58984 L 431.50977 837.58984 L 431.50977 797.32227 L 410.85156 797.32227 L 410.85156 837.58984 L 391.94531 837.58984 L 391.94531 738.03906 z M 546.40625 738.03906 L 567.02344 738.03906 L 590.01953 837.58984 L 570.23633 837.58984 L 567.23242 821.15625 L 545.69727 821.15625 L 542.73438 837.58984 L 523.41016 837.58984 L 546.40625 738.03906 z M 596.2793 738.03906 L 627.78906 738.03906 C 633.63192 738.03906 638.09718 738.85462 641.18555 740.48438 C 644.27391 742.11413 646.76428 745.14744 648.65625 749.58398 C 650.54822 753.97526 651.49414 759.33982 651.49414 765.67773 C 651.49414 771.20078 650.77102 775.97675 649.32422 780.00586 C 647.87742 783.98969 645.88737 787.2269 643.35547 789.7168 C 641.74173 791.30128 639.53084 792.61307 636.7207 793.6543 C 638.97438 794.87661 640.61508 796.09995 641.64453 797.32227 C 642.34011 798.13714 643.3427 799.8798 644.65039 802.55078 C 645.9859 805.22176 646.87514 807.2818 647.32031 808.73047 L 656.46094 837.58984 L 635.0918 837.58984 L 624.99219 807.16797 C 623.71232 803.22941 622.57194 800.67118 621.57031 799.49414 C 620.20698 797.95493 618.66253 797.18555 616.9375 797.18555 L 615.26758 797.18555 L 615.26758 837.58984 L 596.2793 837.58984 L 596.2793 738.03906 z M 662.42773 738.03906 L 713.09375 738.03906 L 713.09375 759.29492 L 681.37695 759.29492 L 681.37695 775.11523 L 710.79883 775.11523 L 710.79883 795.41992 L 681.37695 795.41992 L 681.37695 815.04492 L 714.01172 815.04492 L 714.01172 837.58984 L 662.42773 837.58984 L 662.42773 738.03906 z M 615.26758 758.13867 L 615.26758 778.375 L 623.24023 778.375 C 624.10275 778.375 625.77179 777.92299 628.24805 777.01758 C 629.50009 776.61014 630.51587 775.56955 631.29492 773.89453 C 632.10179 772.21951 632.50391 770.29409 632.50391 768.12109 C 632.50391 764.90686 631.87899 762.441 630.62695 760.7207 C 629.37491 759.00041 627.02428 758.13867 623.57422 758.13867 L 615.26758 758.13867 z M 237.82031 763.84375 L 231.10156 799.63086 L 244.58203 799.63086 L 237.82031 763.84375 z M 556.50586 763.84375 L 549.78711 799.63086 L 563.26758 799.63086 L 556.50586 763.84375 z "
       transform="matrix(0.26458332,0,0,0.26458332,-6.9494465,17.835087)"
       id="rect1442" />
  </g>
</svg>
