<?xml version="1.0" encoding="UTF-8" standalone="no"?>
<!-- Created with Inkscape (http://www.inkscape.org/) -->

<svg
   xmlns:dc="http://purl.org/dc/elements/1.1/"
   xmlns:cc="http://creativecommons.org/ns#"
   xmlns:rdf="http://www.w3.org/1999/02/22-rdf-syntax-ns#"
   xmlns:svg="http://www.w3.org/2000/svg"
   xmlns="http://www.w3.org/2000/svg"
   xmlns:sodipodi="http://sodipodi.sourceforge.net/DTD/sodipodi-0.dtd"
   xmlns:inkscape="http://www.inkscape.org/namespaces/inkscape"
   width="791.94727"
   height="987.70312"
   viewBox="0 0 209.53604 261.32977"
   version="1.1"
   id="svg825"
   sodipodi:docname="st-pharmacy.svg"
   inkscape:version="0.92.3 (2405546, 2018-03-11)">
  <defs
     id="defs819" />
  <sodipodi:namedview
     id="base"
     pagecolor="#ffffff"
     bordercolor="#666666"
     borderopacity="1.0"
     inkscape:pageopacity="0.0"
     inkscape:pageshadow="2"
     inkscape:zoom="0.35"
     inkscape:cx="307.8105"
     inkscape:cy="506.06702"
     inkscape:document-units="px"
     inkscape:current-layer="layer1"
     showgrid="false"
     units="px"
     width="805.71484px"
     inkscape:pagecheckerboard="true"
     showborder="true"
     inkscape:window-width="1280"
     inkscape:window-height="725"
     inkscape:window-x="0"
     inkscape:window-y="0"
     inkscape:window-maximized="1"
     borderlayer="false"
     fit-margin-top="0"
     fit-margin-left="0"
     fit-margin-right="0"
     fit-margin-bottom="0" />
  <metadata
     id="metadata822">
    <rdf:RDF>
      <cc:Work
         rdf:about="">
        <dc:format>image/svg+xml</dc:format>
        <dc:type
           rdf:resource="http://purl.org/dc/dcmitype/StillImage" />
        <dc:title></dc:title>
      </cc:Work>
    </rdf:RDF>
  </metadata>
  <g
     inkscape:label="Layer 1"
     inkscape:groupmode="layer"
     id="layer1"
     transform="translate(6.9494465,-17.835087)">
    <path
       style="fill:#ff0000;fill-opacity:1;stroke:none;stroke-width:0.92304534"
       d="M 22.855469 0 C 10.192603 0 -2.3684758e-15 8.7154268 0 19.542969 L 0 494.42188 L 791.94727 494.42188 L 791.94727 19.542969 C 791.94727 8.7154268 781.7527 0 769.08984 0 L 22.855469 0 z M 231.30078 102.10156 C 276.71376 102.10156 311.29772 110.58542 335.05469 127.55469 C 358.97328 144.36233 373.19557 171.19151 377.7207 208.03906 L 274.20898 214.09961 C 271.46157 198.10002 265.64257 186.46395 256.75391 179.19141 C 248.02686 171.91887 235.90734 168.28125 220.39258 168.28125 C 207.62523 168.28125 198.0094 171.02863 191.54492 176.52344 C 185.08043 181.85664 181.84766 188.40277 181.84766 196.16016 C 181.84766 201.81656 184.51446 206.90651 189.84766 211.43164 C 195.01923 216.11839 207.30186 220.48314 226.69531 224.52344 C 274.69409 234.86661 309.0363 245.37072 329.72266 256.03711 C 350.5706 266.5419 365.68119 279.63222 375.05469 295.30859 C 384.5898 310.98496 389.35742 328.52063 389.35742 347.91406 C 389.35742 370.70133 383.05496 391.70958 370.44922 410.94141 C 357.84348 430.17323 340.22724 444.80037 317.60156 454.82031 C 294.97587 464.67864 266.45073 469.60742 232.02734 469.60742 C 171.58444 469.60742 129.72722 457.97136 106.45508 434.69922 C 83.182935 411.42708 70.012034 381.85249 66.941406 345.97461 L 171.42383 339.42969 C 173.6864 356.39897 178.29091 369.32615 185.24023 378.21484 C 196.55308 392.59829 212.71505 399.79102 233.72461 399.79102 C 249.40098 399.79102 261.44187 396.15534 269.8457 388.88281 C 278.41114 381.44867 282.69336 372.88227 282.69336 363.18555 C 282.69336 353.97363 278.65287 345.73151 270.57227 338.45898 C 262.49167 331.18642 243.74542 324.31798 214.33203 317.85352 C 166.17163 307.02545 131.82747 292.64208 111.30273 274.70312 C 90.616404 256.76418 80.273438 233.89689 80.273438 206.09961 C 80.273438 187.83745 85.526468 170.6241 96.03125 154.46289 C 106.69765 138.14008 122.61593 125.374 143.78711 116.16211 C 165.11991 106.78861 194.29162 102.10156 231.30078 102.10156 z M 557.35352 108.16211 L 557.35352 206.09961 L 611.6543 206.09961 L 611.6543 278.09766 L 557.35352 278.09766 L 557.35352 369.48828 C 557.35352 380.4779 558.40294 387.75116 560.50391 391.30664 C 563.73616 396.80143 569.39402 399.54883 577.47461 399.54883 C 584.74718 399.54883 594.92703 397.44802 608.01758 393.24609 L 615.29102 461.36523 C 590.88759 466.69845 568.10086 469.36523 546.92969 469.36523 C 522.36465 469.36523 504.26302 466.21297 492.62695 459.91016 C 480.99088 453.60723 472.34586 444.07208 466.68945 431.30469 C 461.19462 418.37575 458.44727 397.52865 458.44727 368.76172 L 458.44727 278.09766 L 422.08398 278.09766 L 422.08398 206.09961 L 458.44727 206.09961 L 458.44727 158.82812 L 557.35352 108.16211 z M 619.29102 381.36523 L 713.57617 381.36523 L 713.57617 461.36523 L 619.29102 461.36523 L 619.29102 381.36523 z M 0 517.2793 L 0 968.16016 C 0 978.98763 10.192603 987.70312 22.855469 987.70312 L 769.08984 987.70312 C 781.7527 987.70312 791.94727 978.98763 791.94727 968.16016 L 791.94727 517.2793 L 0 517.2793 z M 633.50781 539.13477 C 656.94629 539.13477 674.79525 543.41641 687.05664 551.97852 C 699.40145 560.45906 706.7426 573.99586 709.07812 592.58789 L 655.65234 595.64453 C 654.23434 587.57169 651.23212 581.70072 646.64453 578.03125 C 642.14035 574.36174 635.88441 572.52734 627.87695 572.52734 C 621.2875 572.52734 616.3247 573.91304 612.98828 576.68555 C 609.65183 579.3765 607.98242 582.67963 607.98242 586.59375 C 607.98242 589.44778 609.35877 592.01558 612.11133 594.29883 C 614.78047 596.66357 621.12157 598.8657 631.13086 600.9043 C 655.90393 606.12311 673.62809 611.42474 684.30469 616.80664 C 695.0647 622.10697 702.86334 628.71134 707.70117 636.62109 C 712.62242 644.53085 715.08203 653.37879 715.08203 663.16406 C 715.08203 674.66173 711.83026 685.26113 705.32422 694.96484 C 698.81814 704.66859 689.72636 712.04978 678.04883 717.10547 C 666.3713 722.07967 651.64935 724.56641 633.88281 724.56641 C 602.68712 724.56641 581.08345 718.69544 569.07227 706.95312 C 557.06112 695.21081 550.26253 680.28828 548.67773 662.18555 L 602.60352 658.88281 C 603.77128 667.44492 606.14768 673.96819 609.73438 678.45312 C 615.57314 685.71054 623.91439 689.33984 634.75781 689.33984 C 642.84869 689.33984 649.063 687.50349 653.40039 683.83398 C 657.82115 680.08299 660.03125 675.76178 660.03125 670.86914 C 660.03125 666.22115 657.94591 662.06205 653.77539 658.39258 C 649.60483 654.72311 639.92882 651.25783 624.74805 647.99609 C 599.89157 642.53264 582.1674 635.27601 571.57422 626.22461 C 560.89762 617.17325 555.56055 605.63494 555.56055 591.60938 C 555.56055 582.39492 558.26967 573.70906 563.69141 565.55469 C 569.19652 557.31872 577.413 550.87846 588.33984 546.23047 C 599.3501 541.50092 614.40672 539.13477 633.50781 539.13477 z M 76.865234 542.19336 L 133.66797 542.19336 L 133.66797 721.50781 L 76.865234 721.50781 L 76.865234 542.19336 z M 156.0625 542.19336 L 215.36719 542.19336 L 256.65625 671.23633 L 297.32031 542.19336 L 354.87305 542.19336 L 286.80859 721.50781 L 225.37695 721.50781 L 156.0625 542.19336 z M 373.26562 542.19336 L 525.15625 542.19336 L 525.15625 580.47852 L 430.06836 580.47852 L 430.06836 608.97852 L 518.27539 608.97852 L 518.27539 645.55078 L 430.06836 645.55078 L 430.06836 680.89844 L 527.9082 680.89844 L 527.9082 721.50781 L 373.26562 721.50781 L 373.26562 542.19336 z M 600.3418 736.3418 C 609.54775 736.3418 616.77434 738.87693 622.02539 743.94727 C 627.30967 749.0176 631.23196 756.80381 633.79102 767.30664 L 613.85156 773.34961 C 613.15364 770.31646 612.42064 768.09871 611.65625 766.69531 C 610.39334 764.34123 608.84938 762.53126 607.02148 761.26367 C 605.19359 759.99609 603.14862 759.36133 600.88867 759.36133 C 595.77056 759.36133 591.85023 762.16767 589.125 767.78125 C 587.06446 771.94617 586.0332 778.48789 586.0332 787.40625 C 586.0332 798.45234 587.2633 806.0366 589.72266 810.15625 C 592.18201 814.23063 595.63837 816.26758 600.0918 816.26758 C 604.41228 816.26758 607.6698 814.61532 609.86328 811.31055 C 612.08999 808.00578 613.70023 803.20671 614.69727 796.91406 L 634.49023 805.0625 C 633.16085 812.62273 631.0652 818.93748 628.20703 824.00781 C 625.34886 829.07815 621.79308 832.90394 617.53906 835.48438 C 613.31828 838.06481 607.93587 839.35547 601.38867 839.35547 C 593.44563 839.35547 586.94813 837.79361 581.89648 834.66992 C 576.87808 831.50096 572.54056 825.9556 568.88477 818.0332 C 565.22897 810.11081 563.40039 799.97027 563.40039 787.61133 C 563.40039 771.13274 566.60723 758.4782 573.02148 749.65039 C 579.46898 740.77731 588.57679 736.3418 600.3418 736.3418 z M 74.304688 738.03906 L 111.84375 738.03906 C 120.01944 738.03906 126.13485 740.68769 130.18945 745.98438 C 134.2773 751.28106 136.32031 758.81915 136.32031 768.59766 C 136.32031 778.64778 134.09405 786.5013 129.64062 792.16016 C 125.22044 797.81901 118.45781 800.64844 109.35156 800.64844 L 96.988281 800.64844 L 96.988281 837.58984 L 74.304688 837.58984 L 74.304688 738.03906 z M 148.28516 738.03906 L 170.86719 738.03906 L 170.86719 772.875 L 195.54492 772.875 L 195.54492 738.03906 L 218.22656 738.03906 L 218.22656 837.58984 L 195.54492 837.58984 L 195.54492 797.32227 L 170.86719 797.32227 L 170.86719 837.58984 L 148.28516 837.58984 L 148.28516 738.03906 z M 253.42188 738.03906 L 278.04883 738.03906 L 305.51758 837.58984 L 281.88867 837.58984 L 278.29883 821.15625 L 252.57422 821.15625 L 249.03516 837.58984 L 225.95508 837.58984 L 253.42188 738.03906 z M 312.99609 738.03906 L 350.63281 738.03906 C 357.61206 738.03906 362.94769 738.85462 366.63672 740.48438 C 370.32575 742.11413 373.29865 745.14744 375.55859 749.58398 C 377.81854 753.97526 378.94922 759.33982 378.94922 765.67773 C 378.94922 771.20078 378.08562 775.97675 376.35742 780.00586 C 374.62923 783.98969 372.25285 787.2269 369.22852 789.7168 C 367.30092 791.30128 364.65747 792.61307 361.30078 793.6543 C 363.99278 794.87661 365.95392 796.09995 367.18359 797.32227 C 368.01446 798.13714 369.21142 799.8798 370.77344 802.55078 C 372.36869 805.22176 373.43309 807.2818 373.96484 808.73047 L 384.88086 837.58984 L 359.35742 837.58984 L 347.29297 807.16797 C 345.76418 803.22941 344.40152 800.67118 343.20508 799.49414 C 341.57659 797.95493 339.73241 797.18555 337.67188 797.18555 L 335.67773 797.18555 L 335.67773 837.58984 L 312.99609 837.58984 L 312.99609 738.03906 z M 391.81055 738.03906 L 421.52344 738.03906 L 432.98828 798.61133 L 444.4043 738.03906 L 474.01562 738.03906 L 474.01562 837.58984 L 455.57227 837.58984 L 455.57227 761.66992 L 441.26367 837.58984 L 424.56445 837.58984 L 410.30664 761.66992 L 410.30664 837.58984 L 391.81055 837.58984 L 391.81055 738.03906 z M 508.46484 738.03906 L 533.0918 738.03906 L 560.55859 837.58984 L 536.92969 837.58984 L 533.33984 821.15625 L 507.61719 821.15625 L 504.07617 837.58984 L 480.99609 837.58984 L 508.46484 738.03906 z M 638.12891 738.03906 L 663.20312 738.03906 L 677.96094 771.65234 L 692.7168 738.03906 L 717.64258 738.03906 L 689.22656 795.89453 L 689.22656 837.58984 L 666.59375 837.58984 L 666.59375 795.89453 L 638.12891 738.03906 z M 335.67773 758.13867 L 335.67773 778.375 L 345.19922 778.375 C 346.22949 778.375 348.22377 777.92299 351.18164 777.01758 C 352.67719 776.61014 353.88975 775.56955 354.82031 773.89453 C 355.78411 772.21951 356.26758 770.29409 356.26758 768.12109 C 356.26758 764.90686 355.51899 762.441 354.02344 760.7207 C 352.52789 759.00041 349.71873 758.13867 345.59766 758.13867 L 335.67773 758.13867 z M 96.988281 758.27539 L 96.988281 780.48047 L 102.52148 780.48047 C 106.8752 780.48047 109.93193 779.46297 111.69336 777.42578 C 113.45479 775.34332 114.33594 772.6947 114.33594 769.48047 C 114.33594 766.35678 113.57176 763.70816 112.04297 761.53516 C 110.51418 759.36216 107.63875 758.27539 103.41797 758.27539 L 96.988281 758.27539 z M 265.48633 763.84375 L 257.46094 799.63086 L 273.5625 799.63086 L 265.48633 763.84375 z M 520.52734 763.84375 L 512.50195 799.63086 L 528.60352 799.63086 L 520.52734 763.84375 z "
       transform="matrix(0.26458332,0,0,0.26458332,-6.9494465,17.835087)"
       id="rect1442" />
  </g>
</svg>
