<?xml version="1.0" encoding="UTF-8" standalone="no"?>
<!-- Created with Inkscape (http://www.inkscape.org/) -->

<svg
   xmlns:dc="http://purl.org/dc/elements/1.1/"
   xmlns:cc="http://creativecommons.org/ns#"
   xmlns:rdf="http://www.w3.org/1999/02/22-rdf-syntax-ns#"
   xmlns:svg="http://www.w3.org/2000/svg"
   xmlns="http://www.w3.org/2000/svg"
   xmlns:sodipodi="http://sodipodi.sourceforge.net/DTD/sodipodi-0.dtd"
   xmlns:inkscape="http://www.inkscape.org/namespaces/inkscape"
   width="791.94727"
   height="987.70312"
   viewBox="0 0 209.53604 261.32977"
   version="1.1"
   id="svg825"
   sodipodi:docname="st-specialist-hospital.svg"
   inkscape:version="0.92.3 (2405546, 2018-03-11)">
  <defs
     id="defs819" />
  <sodipodi:namedview
     id="base"
     pagecolor="#ffffff"
     bordercolor="#666666"
     borderopacity="1.0"
     inkscape:pageopacity="0.0"
     inkscape:pageshadow="2"
     inkscape:zoom="0.98994949"
     inkscape:cx="360.29286"
     inkscape:cy="211.21423"
     inkscape:document-units="px"
     inkscape:current-layer="layer1"
     showgrid="false"
     units="px"
     width="805.71484px"
     inkscape:pagecheckerboard="true"
     showborder="true"
     inkscape:window-width="1280"
     inkscape:window-height="725"
     inkscape:window-x="0"
     inkscape:window-y="0"
     inkscape:window-maximized="1"
     borderlayer="false"
     fit-margin-top="0"
     fit-margin-left="0"
     fit-margin-right="0"
     fit-margin-bottom="0" />
  <metadata
     id="metadata822">
    <rdf:RDF>
      <cc:Work
         rdf:about="">
        <dc:format>image/svg+xml</dc:format>
        <dc:type
           rdf:resource="http://purl.org/dc/dcmitype/StillImage" />
        <dc:title />
      </cc:Work>
    </rdf:RDF>
  </metadata>
  <g
     inkscape:label="Layer 1"
     inkscape:groupmode="layer"
     id="layer1"
     transform="translate(6.9494465,-17.835087)">
    <path
       style="fill:#ff0000;fill-opacity:1;stroke:none;stroke-width:0.92304534"
       d="M 22.855469 0 C 10.192603 0 -4.7369516e-15 8.7154268 0 19.542969 L 0 494.42188 L 791.94727 494.42188 L 791.94727 19.542969 C 791.94727 8.7154268 781.7527 0 769.08984 0 L 22.855469 0 z M 231.30078 102.10156 C 276.71376 102.10156 311.29772 110.58542 335.05469 127.55469 C 358.97328 144.36233 373.19557 171.19151 377.7207 208.03906 L 274.20898 214.09961 C 271.46157 198.10002 265.64257 186.46395 256.75391 179.19141 C 248.02686 171.91887 235.90734 168.28125 220.39258 168.28125 C 207.62523 168.28125 198.0094 171.02863 191.54492 176.52344 C 185.08043 181.85664 181.84766 188.40277 181.84766 196.16016 C 181.84766 201.81656 184.51446 206.90651 189.84766 211.43164 C 195.01923 216.11839 207.30186 220.48314 226.69531 224.52344 C 274.69409 234.86661 309.0363 245.37072 329.72266 256.03711 C 350.5706 266.5419 365.68119 279.63222 375.05469 295.30859 C 384.5898 310.98496 389.35742 328.52066 389.35742 347.91406 C 389.35742 370.70136 383.05496 391.70958 370.44922 410.94141 C 357.84348 430.17323 340.22724 444.80041 317.60156 454.82031 C 294.97587 464.67864 266.45073 469.60742 232.02734 469.60742 C 171.58444 469.60742 129.72722 457.97136 106.45508 434.69922 C 83.182931 411.42708 70.012034 381.85249 66.941406 345.97461 L 171.42383 339.42969 C 173.6864 356.39897 178.29091 369.32615 185.24023 378.21484 C 196.55309 392.59829 212.71505 399.79102 233.72461 399.79102 C 249.40098 399.79102 261.44187 396.15534 269.8457 388.88281 C 278.41114 381.44867 282.69336 372.88227 282.69336 363.18555 C 282.69336 353.97363 278.65287 345.73151 270.57227 338.45898 C 262.49167 331.18642 243.74542 324.31794 214.33203 317.85352 C 166.17163 307.02543 131.82747 292.64208 111.30273 274.70312 C 90.616412 256.76419 80.273437 233.89689 80.273438 206.09961 C 80.273438 187.83745 85.526468 170.6241 96.03125 154.46289 C 106.69765 138.14008 122.61593 125.374 143.78711 116.16211 C 165.11991 106.78861 194.29162 102.10156 231.30078 102.10156 z M 557.35352 108.16211 L 557.35352 206.09961 L 611.6543 206.09961 L 611.6543 278.09766 L 557.35352 278.09766 L 557.35352 369.48828 C 557.35352 380.4779 558.40294 387.75116 560.50391 391.30664 C 563.73616 396.80143 569.39402 399.54883 577.47461 399.54883 C 584.74718 399.54883 594.92703 397.44802 608.01758 393.24609 L 615.29102 461.36523 C 590.88759 466.69845 568.10083 469.36523 546.92969 469.36523 C 522.36465 469.36523 504.26302 466.21297 492.62695 459.91016 C 480.99088 453.60723 472.34586 444.07208 466.68945 431.30469 C 461.19462 418.37575 458.44727 397.52865 458.44727 368.76172 L 458.44727 278.09766 L 422.08398 278.09766 L 422.08398 206.09961 L 458.44727 206.09961 L 458.44727 158.82812 L 557.35352 108.16211 z M 619.29102 381.36523 L 713.57617 381.36523 L 713.57617 461.36523 L 619.29102 461.36523 L 619.29102 381.36523 z M 0 517.2793 L 0 968.16016 C 0 978.9876 10.192603 987.70312 22.855469 987.70312 L 769.08984 987.70312 C 781.7527 987.70312 791.94727 978.9876 791.94727 968.16016 L 791.94727 517.2793 L 0 517.2793 z M 633.50781 539.13477 C 656.94629 539.13477 674.79525 543.41637 687.05664 551.97852 C 699.40145 560.45906 706.7426 573.99586 709.07812 592.58789 L 655.65234 595.64453 C 654.23434 587.57172 651.23212 581.70072 646.64453 578.03125 C 642.14035 574.36174 635.88441 572.52734 627.87695 572.52734 C 621.2875 572.52734 616.3247 573.91304 612.98828 576.68555 C 609.65183 579.3765 607.98242 582.67963 607.98242 586.59375 C 607.98242 589.44778 609.35877 592.01558 612.11133 594.29883 C 614.78047 596.6636 621.12157 598.8657 631.13086 600.9043 C 655.90393 606.12311 673.62809 611.42471 684.30469 616.80664 C 695.0647 622.10694 702.86334 628.71134 707.70117 636.62109 C 712.62242 644.53085 715.08203 653.37879 715.08203 663.16406 C 715.08203 674.66173 711.83026 685.26113 705.32422 694.96484 C 698.81814 704.66859 689.72636 712.04978 678.04883 717.10547 C 666.3713 722.07967 651.64935 724.56641 633.88281 724.56641 C 602.68712 724.56641 581.08345 718.69544 569.07227 706.95312 C 557.06112 695.21081 550.26253 680.28828 548.67773 662.18555 L 602.60352 658.88281 C 603.77128 667.44492 606.14768 673.96819 609.73438 678.45312 C 615.57314 685.71054 623.91439 689.33984 634.75781 689.33984 C 642.84869 689.33984 649.063 687.50349 653.40039 683.83398 C 657.82115 680.08299 660.03125 675.76178 660.03125 670.86914 C 660.03125 666.22115 657.94591 662.06205 653.77539 658.39258 C 649.60483 654.72311 639.92882 651.25786 624.74805 647.99609 C 599.89157 642.53267 582.1674 635.27601 571.57422 626.22461 C 560.89762 617.17325 555.56055 605.63494 555.56055 591.60938 C 555.56055 582.39492 558.26967 573.70906 563.69141 565.55469 C 569.19652 557.31872 577.413 550.87846 588.33984 546.23047 C 599.3501 541.50092 614.40672 539.13477 633.50781 539.13477 z M 76.865234 542.19336 L 133.66797 542.19336 L 133.66797 721.50781 L 76.865234 721.50781 L 76.865234 542.19336 z M 156.0625 542.19336 L 215.36719 542.19336 L 256.65625 671.23633 L 297.32031 542.19336 L 354.87305 542.19336 L 286.80859 721.50781 L 225.37695 721.50781 L 156.0625 542.19336 z M 373.26562 542.19336 L 525.15625 542.19336 L 525.15625 580.47852 L 430.06836 580.47852 L 430.06836 608.97852 L 518.27539 608.97852 L 518.27539 645.55078 L 430.06836 645.55078 L 430.06836 680.89844 L 527.9082 680.89844 L 527.9082 721.50781 L 373.26562 721.50781 L 373.26562 542.19336 z M 111.11914 735.67383 C 115.52581 735.67383 118.88223 739.35017 121.1875 746.70508 C 123.50845 753.98994 124.88903 765.61723 125.32812 781.58789 L 115.2832 784.21484 C 115.01661 777.28022 114.45236 772.23804 113.58984 769.08594 C 112.74301 765.93383 111.56603 764.35742 110.06055 764.35742 C 108.82166 764.35742 107.889 765.5481 107.26172 767.92969 C 106.63443 770.24123 106.32031 773.07721 106.32031 776.43945 C 106.32031 778.89109 106.58015 781.09924 107.09766 783.06055 C 107.59948 785.0919 108.79002 786.98321 110.67188 788.73438 C 115.32946 793.21737 118.66261 797.76949 120.66992 802.39258 C 122.69291 806.94562 124.1588 812.61953 125.06836 819.41406 C 125.9936 826.2086 126.45703 833.80924 126.45703 842.21484 C 126.45703 852.09143 125.84625 861.19764 124.62305 869.5332 C 123.39984 877.86877 121.68964 884.20788 119.49414 888.55078 C 117.29864 892.82363 114.52974 894.95898 111.18945 894.95898 C 105.32434 894.95898 101.26408 889.91681 99.005859 879.83008 C 96.747635 869.74335 95.469835 856.92342 95.171875 841.37305 L 105.30859 838.53711 C 105.52814 845.89202 105.97606 851.49509 106.65039 855.34766 C 107.74814 861.58182 109.31679 864.69922 111.35547 864.69922 C 112.87663 864.69922 114.04391 863.12281 114.85938 859.9707 C 115.69053 856.74855 116.10742 853.03679 116.10742 848.83398 C 116.10742 844.84132 115.71379 841.26929 114.92969 838.11719 C 114.14558 834.96508 112.3268 831.98742 109.47266 829.18555 C 104.79939 824.49242 101.46819 818.25761 99.476562 810.48242 C 97.469252 802.70723 96.464844 792.79609 96.464844 780.74805 C 96.464844 772.83277 96.974803 765.37381 97.994141 758.36914 C 99.02916 751.29442 100.5726 745.76024 102.62695 741.76758 C 104.69699 737.70487 107.52794 735.67383 111.11914 735.67383 z M 217.65625 735.67383 C 222.0002 735.67383 225.4109 739.59617 227.88867 747.44141 C 230.38213 755.28664 232.23193 767.33509 233.43945 783.58594 L 224.03125 792.93555 C 223.70193 788.24242 223.35678 784.81012 222.99609 782.63867 C 222.40017 778.99624 221.67111 776.19568 220.80859 774.23438 C 219.94608 772.27307 218.98045 771.29102 217.91406 771.29102 C 215.49902 771.29102 213.64921 775.63452 212.36328 784.32031 C 211.39099 790.76461 210.9043 800.88634 210.9043 814.68555 C 210.9043 831.77695 211.48601 843.51051 212.64648 849.88477 C 213.80696 856.18897 215.43766 859.33984 217.53906 859.33984 C 219.57774 859.33984 221.11342 856.78333 222.14844 851.66992 C 223.19914 846.55651 223.96118 839.13298 224.43164 829.39648 L 233.76953 842.00391 C 233.14225 853.70171 232.1553 863.47312 230.80664 871.31836 C 229.45798 879.16359 227.7788 885.08351 225.77148 889.07617 C 223.77986 893.06884 221.23977 895.06445 218.15039 895.06445 C 214.40237 895.06445 211.33681 892.64768 208.95312 887.81445 C 206.58513 882.91118 204.53753 874.33045 202.8125 862.07227 C 201.08747 849.81409 200.22461 834.12471 200.22461 815.00195 C 200.22461 789.50494 201.73898 769.92669 204.76562 756.26758 C 207.80796 742.53842 212.10478 735.67383 217.65625 735.67383 z M 360.08984 735.67383 C 364.49652 735.67383 367.85098 739.35017 370.15625 746.70508 C 372.4772 753.98994 373.85778 765.61723 374.29688 781.58789 L 364.25195 784.21484 C 363.98536 777.28022 363.42111 772.23804 362.55859 769.08594 C 361.71176 765.93383 360.53673 764.35742 359.03125 764.35742 C 357.79236 764.35742 356.85775 765.5481 356.23047 767.92969 C 355.60318 770.24123 355.29102 773.07721 355.29102 776.43945 C 355.29102 778.89109 355.5489 781.09924 356.06641 783.06055 C 356.56823 785.0919 357.76072 786.98321 359.64258 788.73438 C 364.30017 793.21737 367.63136 797.76949 369.63867 802.39258 C 371.66166 806.94562 373.1295 812.61953 374.03906 819.41406 C 374.96431 826.2086 375.42578 833.80924 375.42578 842.21484 C 375.42578 852.09143 374.815 861.19764 373.5918 869.5332 C 372.36859 877.86877 370.65839 884.20788 368.46289 888.55078 C 366.26739 892.82363 363.50045 894.95898 360.16016 894.95898 C 354.29505 894.95898 350.23283 889.91681 347.97461 879.83008 C 345.71638 869.74335 344.43859 856.92342 344.14062 841.37305 L 354.2793 838.53711 C 354.49885 845.89202 354.94481 851.49509 355.61914 855.34766 C 356.71689 861.58182 358.28554 864.69922 360.32422 864.69922 C 361.84538 864.69922 363.01461 863.12281 363.83008 859.9707 C 364.66123 856.74855 365.07617 853.03679 365.07617 848.83398 C 365.07617 844.84132 364.6845 841.26929 363.90039 838.11719 C 363.11628 834.96508 361.2975 831.98742 358.44336 829.18555 C 353.77009 824.49242 350.43694 818.25761 348.44531 810.48242 C 346.438 802.70723 345.43359 792.79609 345.43359 780.74805 C 345.43359 772.83277 345.94355 765.37381 346.96289 758.36914 C 347.99791 751.29442 349.5433 745.76024 351.59766 741.76758 C 353.6677 737.70487 356.49864 735.67383 360.08984 735.67383 z M 488.36133 735.67383 C 494.10098 735.67383 498.52385 742.57189 501.62891 756.37109 C 504.73396 770.10025 506.28516 789.36361 506.28516 814.16016 C 506.28516 832.16217 505.60263 846.94229 504.23828 858.5 C 502.88962 869.98767 500.92929 878.95414 498.35742 885.39844 C 495.80124 891.77269 492.61159 894.95898 488.78516 894.95898 C 484.89599 894.95898 481.67337 892.1919 479.11719 886.6582 C 476.57668 881.12451 474.51358 872.36862 472.92969 860.39062 C 471.34579 848.41263 470.55469 833.42389 470.55469 815.42188 C 470.55469 790.2751 472.12139 770.69685 475.25781 756.6875 C 478.39424 742.67815 482.76281 735.67383 488.36133 735.67383 z M 526.16211 735.67383 C 530.56878 735.67383 533.9252 739.35017 536.23047 746.70508 C 538.55142 753.98994 539.93199 765.61723 540.37109 781.58789 L 530.32617 784.21484 C 530.05958 777.28022 529.49533 772.23804 528.63281 769.08594 C 527.78598 765.93383 526.609 764.35742 525.10352 764.35742 C 523.86463 764.35742 522.93197 765.5481 522.30469 767.92969 C 521.6774 770.24123 521.36328 773.07721 521.36328 776.43945 C 521.36328 778.89109 521.62312 781.09924 522.14062 783.06055 C 522.64245 785.0919 523.83299 786.98321 525.71484 788.73438 C 530.37243 793.21737 533.70558 797.76949 535.71289 802.39258 C 537.73588 806.94562 539.20177 812.61953 540.11133 819.41406 C 541.03657 826.2086 541.5 833.80924 541.5 842.21484 C 541.5 852.09143 540.88727 861.19764 539.66406 869.5332 C 538.44086 877.86877 536.73261 884.20788 534.53711 888.55078 C 532.34161 892.82363 529.57271 894.95898 526.23242 894.95898 C 520.36731 894.95898 516.30705 889.91681 514.04883 879.83008 C 511.7906 869.74335 510.5128 856.92342 510.21484 841.37305 L 520.35156 838.53711 C 520.57111 845.89202 521.01903 851.49509 521.69336 855.34766 C 522.79111 861.58182 524.35976 864.69922 526.39844 864.69922 C 527.9196 864.69922 529.08687 863.12281 529.90234 859.9707 C 530.7335 856.74855 531.15039 853.03679 531.15039 848.83398 C 531.15039 844.84132 530.75676 841.26929 529.97266 838.11719 C 529.18855 834.96508 527.36977 831.98742 524.51562 829.18555 C 519.84235 824.49242 516.51116 818.25761 514.51953 810.48242 C 512.51222 802.70723 511.50781 792.79609 511.50781 780.74805 C 511.50781 772.83277 512.01777 765.37381 513.03711 758.36914 C 514.07213 751.29442 515.61556 745.76024 517.66992 741.76758 C 519.73996 737.70487 522.57091 735.67383 526.16211 735.67383 z M 131.79688 738.30078 L 149.50977 738.30078 C 153.36757 738.30078 156.2528 742.39828 158.16602 750.59375 C 160.09492 758.78922 161.05859 770.45194 161.05859 785.58203 C 161.05859 801.13241 160.00961 813.28517 157.9082 822.04102 C 155.82248 830.79686 152.63088 835.17383 148.33398 835.17383 L 142.5 835.17383 L 142.5 892.33203 L 131.79688 892.33203 L 131.79688 738.30078 z M 166.63477 738.30078 L 195.19141 738.30078 L 195.19141 771.1875 L 177.31445 771.1875 L 177.31445 795.66797 L 193.89844 795.66797 L 193.89844 827.08398 L 177.31445 827.08398 L 177.31445 857.44922 L 195.70898 857.44922 L 195.70898 892.33203 L 166.63477 892.33203 L 166.63477 738.30078 z M 239.34375 738.30078 L 250.02344 738.30078 L 250.02344 892.33203 L 239.34375 892.33203 L 239.34375 738.30078 z M 267.125 738.30078 L 278.74609 738.30078 L 291.70703 892.33203 L 280.55664 892.33203 L 278.86328 866.90625 L 266.72461 866.90625 L 265.05469 892.33203 L 254.16406 892.33203 L 267.125 738.30078 z M 295.09375 738.30078 L 305.75 738.30078 L 305.75 854.40234 L 322.38086 854.40234 L 322.38086 892.33203 L 295.09375 892.33203 L 295.09375 738.30078 z M 327.69727 738.30078 L 338.37695 738.30078 L 338.37695 892.33203 L 327.69727 892.33203 L 327.69727 738.30078 z M 378.39062 738.30078 L 410.78125 738.30078 L 410.78125 776.33594 L 399.91406 776.33594 L 399.91406 892.33203 L 389.25781 892.33203 L 389.25781 776.33594 L 378.39062 776.33594 L 378.39062 738.30078 z M 431.76367 738.30078 L 442.41992 738.30078 L 442.41992 792.20117 L 454.06445 792.20117 L 454.06445 738.30078 L 464.76758 738.30078 L 464.76758 892.33203 L 454.06445 892.33203 L 454.06445 830.02539 L 442.41992 830.02539 L 442.41992 892.33203 L 431.76367 892.33203 L 431.76367 738.30078 z M 546.83984 738.30078 L 564.55273 738.30078 C 568.41053 738.30078 571.29577 742.39828 573.20898 750.59375 C 575.13788 758.78922 576.10156 770.45194 576.10156 785.58203 C 576.10156 801.13241 575.05258 813.28517 572.95117 822.04102 C 570.86545 830.79686 567.67385 835.17383 563.37695 835.17383 L 557.54297 835.17383 L 557.54297 892.33203 L 546.83984 892.33203 L 546.83984 738.30078 z M 582.125 738.30078 L 592.80469 738.30078 L 592.80469 892.33203 L 582.125 892.33203 L 582.125 738.30078 z M 598.00195 738.30078 L 630.39453 738.30078 L 630.39453 776.33594 L 619.52539 776.33594 L 619.52539 892.33203 L 608.87109 892.33203 L 608.87109 776.33594 L 598.00195 776.33594 L 598.00195 738.30078 z M 641.47266 738.30078 L 653.09375 738.30078 L 666.05469 892.33203 L 654.9043 892.33203 L 653.21094 866.90625 L 641.07422 866.90625 L 639.40234 892.33203 L 628.51172 892.33203 L 641.47266 738.30078 z M 669.49023 738.30078 L 680.14453 738.30078 L 680.14453 854.40234 L 696.77539 854.40234 L 696.77539 892.33203 L 669.49023 892.33203 L 669.49023 738.30078 z M 142.5 769.61133 L 142.5 803.96875 L 145.11133 803.96875 C 147.16569 803.96875 148.6083 802.39234 149.43945 799.24023 C 150.27061 796.01808 150.68555 791.92058 150.68555 786.94727 C 150.68555 782.11404 150.32489 778.01654 149.60352 774.6543 C 148.88214 771.29205 147.52678 769.61133 145.53516 769.61133 L 142.5 769.61133 z M 557.54297 769.61133 L 557.54297 803.96875 L 560.1543 803.96875 C 562.20865 803.96875 563.65127 802.39234 564.48242 799.24023 C 565.31357 796.01808 565.72852 791.92058 565.72852 786.94727 C 565.72852 782.11404 565.36786 778.01654 564.64648 774.6543 C 563.92511 771.29205 562.5678 769.61133 560.57617 769.61133 L 557.54297 769.61133 z M 488.33789 771.71289 C 486.18944 771.71289 484.46372 775.10976 483.16211 781.9043 C 481.86049 788.69883 481.20898 799.94039 481.20898 815.63086 C 481.20898 831.18124 481.85274 842.3539 483.13867 849.14844 C 484.44029 855.94297 486.20478 859.33984 488.43164 859.33984 C 490.72123 859.33984 492.49348 856.01382 493.74805 849.35938 C 495.00262 842.70493 495.62891 830.76079 495.62891 813.5293 C 495.62891 799.02962 494.97159 788.45327 493.6543 781.79883 C 492.35268 775.07434 490.58043 771.71289 488.33789 771.71289 z M 272.81836 778.22656 L 269.03125 833.59766 L 276.62891 833.59766 L 272.81836 778.22656 z M 647.16602 778.22656 L 643.37891 833.59766 L 650.97656 833.59766 L 647.16602 778.22656 z "
       transform="matrix(0.26458332,0,0,0.26458332,-6.9494465,17.835087)"
       id="rect1442" />
  </g>
</svg>
