<?xml version="1.0" encoding="UTF-8" standalone="no"?>
<!-- Created with Inkscape (http://www.inkscape.org/) -->

<svg
   xmlns:dc="http://purl.org/dc/elements/1.1/"
   xmlns:cc="http://creativecommons.org/ns#"
   xmlns:rdf="http://www.w3.org/1999/02/22-rdf-syntax-ns#"
   xmlns:svg="http://www.w3.org/2000/svg"
   xmlns="http://www.w3.org/2000/svg"
   xmlns:sodipodi="http://sodipodi.sourceforge.net/DTD/sodipodi-0.dtd"
   xmlns:inkscape="http://www.inkscape.org/namespaces/inkscape"
   width="791.94727"
   height="987.70312"
   viewBox="0 0 209.53604 261.32977"
   version="1.1"
   id="svg825"
   sodipodi:docname="st-specialist-hospital.svg"
   inkscape:version="0.92.3 (2405546, 2018-03-11)">
  <defs
     id="defs819" />
  <sodipodi:namedview
     id="base"
     pagecolor="#ffffff"
     bordercolor="#666666"
     borderopacity="1.0"
     inkscape:pageopacity="0.0"
     inkscape:pageshadow="2"
     inkscape:zoom="0.35"
     inkscape:cx="307.8105"
     inkscape:cy="506.06702"
     inkscape:document-units="px"
     inkscape:current-layer="layer1"
     showgrid="false"
     units="px"
     width="805.71484px"
     inkscape:pagecheckerboard="true"
     showborder="true"
     inkscape:window-width="1280"
     inkscape:window-height="725"
     inkscape:window-x="0"
     inkscape:window-y="0"
     inkscape:window-maximized="1"
     borderlayer="false"
     fit-margin-top="0"
     fit-margin-left="0"
     fit-margin-right="0"
     fit-margin-bottom="0" />
  <metadata
     id="metadata822">
    <rdf:RDF>
      <cc:Work
         rdf:about="">
        <dc:format>image/svg+xml</dc:format>
        <dc:type
           rdf:resource="http://purl.org/dc/dcmitype/StillImage" />
        <dc:title></dc:title>
      </cc:Work>
    </rdf:RDF>
  </metadata>
  <g
     inkscape:label="Layer 1"
     inkscape:groupmode="layer"
     id="layer1"
     transform="translate(6.9494465,-17.835087)">
    <path
       style="fill:#ff0000;fill-opacity:1;stroke:none;stroke-width:0.92304534"
       d="M 22.855469 0 C 10.192603 0 -2.3684758e-15 8.7154268 0 19.542969 L 0 494.42188 L 791.94727 494.42188 L 791.94727 19.542969 C 791.94727 8.7154268 781.7527 0 769.08984 0 L 22.855469 0 z M 231.30078 102.10156 C 276.71376 102.10156 311.29772 110.58542 335.05469 127.55469 C 358.97328 144.36233 373.19557 171.19151 377.7207 208.03906 L 274.20898 214.09961 C 271.46157 198.10002 265.64257 186.46395 256.75391 179.19141 C 248.02686 171.91887 235.90734 168.28125 220.39258 168.28125 C 207.62523 168.28125 198.0094 171.02863 191.54492 176.52344 C 185.08043 181.85664 181.84766 188.40277 181.84766 196.16016 C 181.84766 201.81656 184.51446 206.90651 189.84766 211.43164 C 195.01923 216.11839 207.30186 220.48314 226.69531 224.52344 C 274.69409 234.86661 309.0363 245.37072 329.72266 256.03711 C 350.5706 266.5419 365.68119 279.63222 375.05469 295.30859 C 384.5898 310.98496 389.35742 328.52063 389.35742 347.91406 C 389.35742 370.70133 383.05496 391.70958 370.44922 410.94141 C 357.84348 430.17323 340.22724 444.80037 317.60156 454.82031 C 294.97587 464.67864 266.45073 469.60742 232.02734 469.60742 C 171.58444 469.60742 129.72722 457.97136 106.45508 434.69922 C 83.182935 411.42708 70.012034 381.85249 66.941406 345.97461 L 171.42383 339.42969 C 173.6864 356.39897 178.29091 369.32615 185.24023 378.21484 C 196.55308 392.59829 212.71505 399.79102 233.72461 399.79102 C 249.40098 399.79102 261.44187 396.15534 269.8457 388.88281 C 278.41114 381.44867 282.69336 372.88227 282.69336 363.18555 C 282.69336 353.97363 278.65287 345.73151 270.57227 338.45898 C 262.49167 331.18642 243.74542 324.31798 214.33203 317.85352 C 166.17163 307.02545 131.82747 292.64208 111.30273 274.70312 C 90.616404 256.76418 80.273438 233.89689 80.273438 206.09961 C 80.273438 187.83745 85.526468 170.6241 96.03125 154.46289 C 106.69765 138.14008 122.61593 125.374 143.78711 116.16211 C 165.11991 106.78861 194.29162 102.10156 231.30078 102.10156 z M 557.35352 108.16211 L 557.35352 206.09961 L 611.6543 206.09961 L 611.6543 278.09766 L 557.35352 278.09766 L 557.35352 369.48828 C 557.35352 380.4779 558.40294 387.75116 560.50391 391.30664 C 563.73616 396.80143 569.39402 399.54883 577.47461 399.54883 C 584.74718 399.54883 594.92703 397.44802 608.01758 393.24609 L 615.29102 461.36523 C 590.88759 466.69845 568.10086 469.36523 546.92969 469.36523 C 522.36465 469.36523 504.26302 466.21297 492.62695 459.91016 C 480.99088 453.60723 472.34586 444.07208 466.68945 431.30469 C 461.19462 418.37575 458.44727 397.52865 458.44727 368.76172 L 458.44727 278.09766 L 422.08398 278.09766 L 422.08398 206.09961 L 458.44727 206.09961 L 458.44727 158.82812 L 557.35352 108.16211 z M 619.29102 381.36523 L 713.57617 381.36523 L 713.57617 461.36523 L 619.29102 461.36523 L 619.29102 381.36523 z M 0 517.2793 L 0 968.16016 C 0 978.98763 10.192603 987.70312 22.855469 987.70312 L 769.08984 987.70312 C 781.7527 987.70312 791.94727 978.98763 791.94727 968.16016 L 791.94727 517.2793 L 0 517.2793 z M 633.50781 539.13477 C 656.94629 539.13477 674.79525 543.41641 687.05664 551.97852 C 699.40145 560.45906 706.7426 573.99586 709.07812 592.58789 L 655.65234 595.64453 C 654.23434 587.57169 651.23212 581.70072 646.64453 578.03125 C 642.14035 574.36174 635.88441 572.52734 627.87695 572.52734 C 621.2875 572.52734 616.3247 573.91304 612.98828 576.68555 C 609.65183 579.3765 607.98242 582.67963 607.98242 586.59375 C 607.98242 589.44778 609.35877 592.01558 612.11133 594.29883 C 614.78047 596.66357 621.12157 598.8657 631.13086 600.9043 C 655.90393 606.12311 673.62809 611.42474 684.30469 616.80664 C 695.0647 622.10697 702.86334 628.71134 707.70117 636.62109 C 712.62242 644.53085 715.08203 653.37879 715.08203 663.16406 C 715.08203 674.66173 711.83026 685.26113 705.32422 694.96484 C 698.81814 704.66859 689.72636 712.04978 678.04883 717.10547 C 666.3713 722.07967 651.64935 724.56641 633.88281 724.56641 C 602.68712 724.56641 581.08345 718.69544 569.07227 706.95312 C 557.06112 695.21081 550.26253 680.28828 548.67773 662.18555 L 602.60352 658.88281 C 603.77128 667.44492 606.14768 673.96819 609.73438 678.45312 C 615.57314 685.71054 623.91439 689.33984 634.75781 689.33984 C 642.84869 689.33984 649.063 687.50349 653.40039 683.83398 C 657.82115 680.08299 660.03125 675.76178 660.03125 670.86914 C 660.03125 666.22115 657.94591 662.06205 653.77539 658.39258 C 649.60483 654.72311 639.92882 651.25783 624.74805 647.99609 C 599.89157 642.53264 582.1674 635.27601 571.57422 626.22461 C 560.89762 617.17325 555.56055 605.63494 555.56055 591.60938 C 555.56055 582.39492 558.26967 573.70906 563.69141 565.55469 C 569.19652 557.31872 577.413 550.87846 588.33984 546.23047 C 599.3501 541.50092 614.40672 539.13477 633.50781 539.13477 z M 76.865234 542.19336 L 133.66797 542.19336 L 133.66797 721.50781 L 76.865234 721.50781 L 76.865234 542.19336 z M 156.0625 542.19336 L 215.36719 542.19336 L 256.65625 671.23633 L 297.32031 542.19336 L 354.87305 542.19336 L 286.80859 721.50781 L 225.37695 721.50781 L 156.0625 542.19336 z M 373.26562 542.19336 L 525.15625 542.19336 L 525.15625 580.47852 L 430.06836 580.47852 L 430.06836 608.97852 L 518.27539 608.97852 L 518.27539 645.55078 L 430.06836 645.55078 L 430.06836 680.89844 L 527.9082 680.89844 L 527.9082 721.50781 L 373.26562 721.50781 L 373.26562 542.19336 z M 98.90625 736.3418 C 103.50187 736.3418 107.00214 738.71922 109.40625 743.47266 C 111.82672 748.18082 113.26473 755.69583 113.72266 766.01758 L 103.24805 767.71484 C 102.97002 763.23303 102.38192 759.97273 101.48242 757.93555 C 100.59928 755.89836 99.372768 754.88086 97.802734 754.88086 C 96.510727 754.88086 95.536993 755.65024 94.882812 757.18945 C 94.228632 758.68339 93.902344 760.51645 93.902344 762.68945 C 93.902344 764.27393 94.171238 765.69921 94.710938 766.9668 C 95.234282 768.27965 96.476911 769.50299 98.439453 770.63477 C 103.29675 773.5321 106.77186 776.47501 108.86523 779.46289 C 110.97497 782.4055 112.50456 786.07162 113.45312 790.46289 C 114.41804 794.85416 114.90039 799.76672 114.90039 805.19922 C 114.90039 811.58241 114.26393 817.46629 112.98828 822.85352 C 111.71263 828.24075 109.9283 832.33774 107.63867 835.14453 C 105.34904 837.90605 102.46398 839.28711 98.980469 839.28711 C 92.863879 839.28711 88.626535 836.02877 86.271484 829.50977 C 83.916434 822.99076 82.584173 814.70638 82.273438 804.65625 L 92.847656 802.82227 C 93.07662 807.5757 93.540896 811.1976 94.244141 813.6875 C 95.388957 817.71661 97.026256 819.73047 99.152344 819.73047 C 100.73873 819.73047 101.95621 818.71102 102.80664 816.67383 C 103.67343 814.59137 104.10742 812.19281 104.10742 809.47656 C 104.10742 806.89612 103.69859 804.58797 102.88086 802.55078 C 102.06313 800.51359 100.16598 798.58818 97.189453 796.77734 C 92.315807 793.7442 88.840696 789.71647 86.763672 784.69141 C 84.670294 779.66634 83.623047 773.25924 83.623047 765.47266 C 83.623047 760.35705 84.153753 755.53685 85.216797 751.00977 C 86.296195 746.43741 87.908339 742.85973 90.050781 740.2793 C 92.209578 737.65359 95.161065 736.3418 98.90625 736.3418 z M 210.00977 736.3418 C 214.53997 736.3418 218.09763 738.87693 220.68164 743.94727 C 223.28201 749.0176 225.21141 756.8038 226.4707 767.30664 L 216.6582 773.34961 C 216.31476 770.31646 215.95623 768.09871 215.58008 766.69531 C 214.95861 764.34123 214.19637 762.53126 213.29688 761.26367 C 212.39738 759.99609 211.39336 759.36133 210.28125 759.36133 C 207.76265 759.36133 205.8313 762.16962 204.49023 767.7832 C 203.47625 771.94812 202.9707 778.48789 202.9707 787.40625 C 202.9707 798.45234 203.57492 806.0366 204.78516 810.15625 C 205.99539 814.23063 207.69717 816.26758 209.88867 816.26758 C 212.01476 816.26758 213.61591 814.61532 214.69531 811.31055 C 215.79107 808.00578 216.58554 803.20671 217.07617 796.91406 L 226.81445 805.0625 C 226.16027 812.62273 225.1311 818.93748 223.72461 824.00781 C 222.31812 829.07815 220.56799 832.90394 218.47461 835.48438 C 216.39759 838.06481 213.74723 839.35547 210.52539 839.35547 C 206.61666 839.35547 203.41948 837.79361 200.93359 834.66992 C 198.46406 831.50096 196.33025 825.9556 194.53125 818.0332 C 192.73225 810.11081 191.83203 799.97027 191.83203 787.61133 C 191.83203 771.13274 193.40998 758.47821 196.56641 749.65039 C 199.73918 740.77731 204.22027 736.3418 210.00977 736.3418 z M 358.55078 736.3418 C 363.1464 736.3418 366.64667 738.71922 369.05078 743.47266 C 371.47125 748.18082 372.90926 755.69583 373.36719 766.01758 L 362.89258 767.71484 C 362.61455 763.23303 362.02645 759.97273 361.12695 757.93555 C 360.24381 755.89836 359.0173 754.88086 357.44727 754.88086 C 356.15526 754.88086 355.18152 755.65024 354.52734 757.18945 C 353.87316 758.68339 353.54688 760.51645 353.54688 762.68945 C 353.54688 764.27393 353.81577 765.69921 354.35547 766.9668 C 354.87881 768.27965 356.12144 769.50299 358.08398 770.63477 C 362.94128 773.5321 366.41639 776.47501 368.50977 779.46289 C 370.6195 782.4055 372.14909 786.07162 373.09766 790.46289 C 374.06257 794.85416 374.54492 799.76672 374.54492 805.19922 C 374.54492 811.58241 373.90651 817.46629 372.63086 822.85352 C 371.35521 828.24075 369.57284 832.33774 367.2832 835.14453 C 364.99357 837.90605 362.10656 839.28711 358.62305 839.28711 C 352.50646 839.28711 348.27107 836.02877 345.91602 829.50977 C 343.56097 822.99076 342.2287 814.70638 341.91797 804.65625 L 352.49023 802.82227 C 352.7192 807.5757 353.18543 811.1976 353.88867 813.6875 C 355.03349 817.71661 356.66883 819.73047 358.79492 819.73047 C 360.38131 819.73047 361.60074 818.71102 362.45117 816.67383 C 363.31796 814.59137 363.75195 812.19281 363.75195 809.47656 C 363.75195 806.89612 363.34312 804.58797 362.52539 802.55078 C 361.70766 800.51359 359.81051 798.58818 356.83398 796.77734 C 351.96034 793.7442 348.48327 789.71647 346.40625 784.69141 C 344.31287 779.66634 343.26758 773.25924 343.26758 765.47266 C 343.26758 760.35705 343.79828 755.53685 344.86133 751.00977 C 345.94073 746.43741 347.55287 742.85973 349.69531 740.2793 C 351.85411 737.65359 354.8056 736.3418 358.55078 736.3418 z M 492.32227 736.3418 C 498.30802 736.3418 502.92001 740.80039 506.1582 749.71875 C 509.3964 758.59184 511.01563 771.04248 511.01562 787.06836 C 511.01563 798.70297 510.3037 808.25492 508.88086 815.72461 C 507.47437 823.14903 505.43019 828.9425 502.74805 833.10742 C 500.08226 837.22707 496.75417 839.28711 492.76367 839.28711 C 488.70775 839.28711 485.34743 837.50022 482.68164 833.92383 C 480.03221 830.34743 477.88032 824.68858 476.22852 816.94727 C 474.57671 809.20595 473.75195 799.51742 473.75195 787.88281 C 473.75195 771.63058 475.3873 758.978 478.6582 749.92383 C 481.92911 740.86966 486.4837 736.3418 492.32227 736.3418 z M 531.74414 736.3418 C 536.33976 736.3418 539.84003 738.71922 542.24414 743.47266 C 544.66461 748.18082 546.10457 755.69583 546.5625 766.01758 L 536.08594 767.71484 C 535.80791 763.23303 535.21981 759.97273 534.32031 757.93555 C 533.43717 755.89836 532.21066 754.88086 530.64062 754.88086 C 529.34862 754.88086 528.37488 755.65024 527.7207 757.18945 C 527.06652 758.68339 526.74023 760.51645 526.74023 762.68945 C 526.74023 764.27393 527.01108 765.69921 527.55078 766.9668 C 528.07413 768.27965 529.31675 769.50299 531.2793 770.63477 C 536.13659 773.5321 539.6117 776.47501 541.70508 779.46289 C 543.81481 782.4055 545.34441 786.07162 546.29297 790.46289 C 547.25789 794.85416 547.74023 799.76672 547.74023 805.19922 C 547.74023 811.58241 547.10182 817.46629 545.82617 822.85352 C 544.55052 828.24075 542.76815 832.33774 540.47852 835.14453 C 538.18888 837.90605 535.30187 839.28711 531.81836 839.28711 C 525.70177 839.28711 521.46638 836.02877 519.11133 829.50977 C 516.75628 822.99076 515.42206 814.70638 515.11133 804.65625 L 525.68555 802.82227 C 525.91451 807.5757 526.38074 811.1976 527.08398 813.6875 C 528.2288 817.71661 529.86415 819.73047 531.99023 819.73047 C 533.57662 819.73047 534.7941 818.71102 535.64453 816.67383 C 536.51132 814.59137 536.94531 812.19281 536.94531 809.47656 C 536.94531 806.89612 536.53648 804.58797 535.71875 802.55078 C 534.90102 800.51359 533.00387 798.58818 530.02734 796.77734 C 525.1537 793.7442 521.67859 789.71647 519.60156 784.69141 C 517.50818 779.66634 516.46094 773.25924 516.46094 765.47266 C 516.46094 760.35705 516.9936 755.53685 518.05664 751.00977 C 519.13604 746.43741 520.74623 742.85973 522.88867 740.2793 C 525.04747 737.65359 527.99896 736.3418 531.74414 736.3418 z M 120.46875 738.03906 L 138.94141 738.03906 C 142.96462 738.03906 145.9735 740.68769 147.96875 745.98438 C 149.98036 751.28106 150.98633 758.81915 150.98633 768.59766 C 150.98633 778.64778 149.89072 786.5013 147.69922 792.16016 C 145.52407 797.81901 142.19598 800.64844 137.71484 800.64844 L 131.63086 800.64844 L 131.63086 837.58984 L 120.46875 837.58984 L 120.46875 738.03906 z M 156.80078 738.03906 L 186.58203 738.03906 L 186.58203 759.29492 L 167.93945 759.29492 L 167.93945 775.11523 L 185.23242 775.11523 L 185.23242 795.41992 L 167.93945 795.41992 L 167.93945 815.04492 L 187.12305 815.04492 L 187.12305 837.58984 L 156.80078 837.58984 L 156.80078 738.03906 z M 232.62891 738.03906 L 243.76562 738.03906 L 243.76562 837.58984 L 232.62891 837.58984 L 232.62891 738.03906 z M 261.60156 738.03906 L 273.71875 738.03906 L 287.23633 837.58984 L 275.60938 837.58984 L 273.8418 821.15625 L 261.18359 821.15625 L 259.44141 837.58984 L 248.08398 837.58984 L 261.60156 738.03906 z M 290.76953 738.03906 L 301.88281 738.03906 L 301.88281 813.07617 L 319.22656 813.07617 L 319.22656 837.58984 L 290.76953 837.58984 L 290.76953 738.03906 z M 324.76953 738.03906 L 335.9082 738.03906 L 335.9082 837.58984 L 324.76953 837.58984 L 324.76953 738.03906 z M 377.63672 738.03906 L 411.41602 738.03906 L 411.41602 762.62109 L 400.08203 762.62109 L 400.08203 837.58984 L 388.9707 837.58984 L 388.9707 762.62109 L 377.63672 762.62109 L 377.63672 738.03906 z M 433.29883 738.03906 L 444.41211 738.03906 L 444.41211 772.875 L 456.55469 772.875 L 456.55469 738.03906 L 467.7168 738.03906 L 467.7168 837.58984 L 456.55469 837.58984 L 456.55469 797.32227 L 444.41211 797.32227 L 444.41211 837.58984 L 433.29883 837.58984 L 433.29883 738.03906 z M 553.30859 738.03906 L 571.78125 738.03906 C 575.80446 738.03906 578.81334 740.68769 580.80859 745.98438 C 582.8202 751.28106 583.82617 758.81915 583.82617 768.59766 C 583.82617 778.64778 582.73057 786.5013 580.53906 792.16016 C 578.36391 797.81901 575.03583 800.64844 570.55469 800.64844 L 564.4707 800.64844 L 564.4707 837.58984 L 553.30859 837.58984 L 553.30859 738.03906 z M 590.10547 738.03906 L 601.24414 738.03906 L 601.24414 837.58984 L 590.10547 837.58984 L 590.10547 738.03906 z M 606.66406 738.03906 L 640.44531 738.03906 L 640.44531 762.62109 L 629.11133 762.62109 L 629.11133 837.58984 L 617.99805 837.58984 L 617.99805 762.62109 L 606.66406 762.62109 L 606.66406 738.03906 z M 652 738.03906 L 664.11914 738.03906 L 677.63477 837.58984 L 666.00781 837.58984 L 664.24023 821.15625 L 651.58203 821.15625 L 649.83984 837.58984 L 638.48242 837.58984 L 652 738.03906 z M 681.2168 738.03906 L 692.33008 738.03906 L 692.33008 813.07617 L 709.67383 813.07617 L 709.67383 837.58984 L 681.2168 837.58984 L 681.2168 738.03906 z M 131.63086 758.27539 L 131.63086 780.48047 L 134.35547 780.48047 C 136.49791 780.48047 138.00235 779.46297 138.86914 777.42578 C 139.73593 775.34332 140.16797 772.6947 140.16797 769.48047 C 140.16797 766.35678 139.79332 763.70816 139.04102 761.53516 C 138.28871 759.36216 136.8739 758.27539 134.79688 758.27539 L 131.63086 758.27539 z M 564.4707 758.27539 L 564.4707 780.48047 L 567.19336 780.48047 C 569.3358 780.48047 570.84024 779.46297 571.70703 777.42578 C 572.57382 775.34332 573.00781 772.6947 573.00781 769.48047 C 573.00781 766.35678 572.63121 763.70816 571.87891 761.53516 C 571.1266 759.36216 569.71179 758.27539 567.63477 758.27539 L 564.4707 758.27539 z M 492.29688 759.63281 C 490.05631 759.63281 488.25782 761.82943 486.90039 766.2207 C 485.54297 770.61197 484.86523 777.87691 484.86523 788.01758 C 484.86523 798.06771 485.53588 805.28842 486.87695 809.67969 C 488.23438 814.07096 490.07414 816.26758 492.39648 816.26758 C 494.78424 816.26758 496.63109 814.11714 497.93945 809.81641 C 499.24781 805.51568 499.90234 797.79678 499.90234 786.66016 C 499.90234 777.28909 499.21558 770.45307 497.8418 766.15234 C 496.48437 761.80634 494.63557 759.63281 492.29688 759.63281 z M 267.53711 763.84375 L 263.58789 799.63086 L 271.51172 799.63086 L 267.53711 763.84375 z M 657.93555 763.84375 L 653.98633 799.63086 L 661.91016 799.63086 L 657.93555 763.84375 z "
       transform="matrix(0.26458332,0,0,0.26458332,-6.9494465,17.835087)"
       id="rect1442" />
  </g>
</svg>
