<?xml version="1.0" encoding="UTF-8" standalone="no"?>
<svg
   xmlns:dc="http://purl.org/dc/elements/1.1/"
   xmlns:cc="http://creativecommons.org/ns#"
   xmlns:rdf="http://www.w3.org/1999/02/22-rdf-syntax-ns#"
   xmlns:svg="http://www.w3.org/2000/svg"
   xmlns="http://www.w3.org/2000/svg"
   id="svg8"
   version="1.1"
   viewBox="0 0 17.411857 19.949687"
   height="75.400391"
   width="65.808594">
  <defs
     id="defs2" />
  <metadata
     id="metadata5">
    <rdf:RDF>
      <cc:Work
         rdf:about="">
        <dc:format>image/svg+xml</dc:format>
        <dc:type
           rdf:resource="http://purl.org/dc/dcmitype/StillImage" />
        <dc:title></dc:title>
      </cc:Work>
    </rdf:RDF>
  </metadata>
  <g
     transform="translate(-3.0308227,-263.0801)"
     id="layer1">
    <path
       id="rect3713"
       transform="matrix(0.26458333,0,0,0.26458333,3.0308227,263.0801)"
       d="M 4.0410156 0 C 1.8031069 0 0 1.8011525 0 4.0390625 L 0 38.529297 L 65.808594 38.529297 L 65.808594 4.0390625 C 65.808594 1.8011525 64.007441 0 61.769531 0 L 4.0410156 0 z M 17.447266 3.6464844 C 21.176053 3.6464854 24.014197 4.3504705 25.964844 5.7578125 C 27.92876 7.1517505 29.097198 9.3756981 29.46875 12.431641 L 20.96875 12.933594 C 20.743165 11.606672 20.266938 10.642208 19.537109 10.039062 C 18.820544 9.4359165 17.824673 9.1347656 16.550781 9.1347656 C 15.502475 9.1347656 14.712429 9.3626484 14.181641 9.8183594 C 13.650853 10.260662 13.386719 10.80391 13.386719 11.447266 C 13.386719 11.91638 13.605069 12.3376 14.042969 12.712891 C 14.467599 13.101585 15.475994 13.463747 17.068359 13.798828 C 21.009457 14.656637 23.828822 15.527494 25.527344 16.412109 C 27.239136 17.283316 28.480357 18.369806 29.25 19.669922 C 30.032913 20.970038 30.423828 22.42286 30.423828 24.03125 C 30.423828 25.921109 29.906131 27.664778 28.871094 29.259766 C 27.836057 30.854753 26.390962 32.067436 24.533203 32.898438 C 22.675444 33.716033 20.332302 34.125 17.505859 34.125 C 12.542989 34.125 9.1061495 33.160538 7.1953125 31.230469 C 5.2844745 29.3004 4.2032959 26.846616 3.9511719 23.871094 L 12.529297 23.328125 C 12.715073 24.735467 13.093467 25.807743 13.664062 26.544922 C 14.592941 27.737812 15.91947 28.333984 17.644531 28.333984 C 18.931693 28.333984 19.921304 28.032831 20.611328 27.429688 C 21.314623 26.813138 21.666016 26.103024 21.666016 25.298828 C 21.666016 24.534843 21.33536 23.851193 20.671875 23.248047 C 20.00839 22.644901 18.467821 22.075192 16.052734 21.539062 C 12.098366 20.641047 9.279003 19.448696 7.59375 17.960938 C 5.895228 16.473176 5.046875 14.576844 5.046875 12.271484 C 5.046875 10.756921 5.4773128 9.3286072 6.3398438 7.9882812 C 7.2156435 6.6345535 8.5233864 5.576486 10.261719 4.8125 C 12.01332 4.035111 14.408503 3.6464854 17.447266 3.6464844 z M 44.21875 4.1484375 L 44.21875 12.271484 L 48.675781 12.271484 L 48.675781 18.242188 L 44.21875 18.242188 L 44.21875 25.822266 C 44.21875 26.733687 44.304062 27.335987 44.476562 27.630859 C 44.741956 28.086565 45.207609 28.314453 45.871094 28.314453 C 46.468231 28.314453 47.30406 28.1395 48.378906 27.791016 L 48.974609 33.441406 C 46.970883 33.883714 45.09966 34.105469 43.361328 34.105469 C 41.344333 34.105469 39.859716 33.843039 38.904297 33.320312 C 37.948878 32.797588 37.237874 32.008076 36.773438 30.949219 C 36.322268 29.876959 36.097656 28.147498 36.097656 25.761719 L 36.097656 18.242188 L 33.111328 18.242188 L 33.111328 12.271484 L 36.097656 12.271484 L 36.097656 8.3496094 L 44.21875 4.1484375 z M 50.974609 27.017578 L 59.355469 27.017578 L 59.355469 33.441406 L 50.974609 33.441406 L 50.974609 27.017578 z M 0 41.294922 L 0 71.361328 L 0 71.769531 L 0.041015625 71.769531 C 0.24730634 73.811392 1.9429762 75.400391 4.0410156 75.400391 L 61.769531 75.400391 C 63.867572 75.400391 65.561502 73.811392 65.767578 71.769531 L 65.921875 71.769531 L 65.921875 41.294922 L 65.808594 41.294922 L 0 41.294922 z M 52.736328 44.785156 C 54.687717 44.785156 56.17448 45.14974 57.195312 45.878906 C 58.22309 46.601128 58.834852 47.754557 59.029297 49.337891 L 54.580078 49.597656 C 54.462023 48.910156 54.212023 48.410156 53.830078 48.097656 C 53.455078 47.785156 52.934245 47.628906 52.267578 47.628906 C 51.718967 47.628906 51.307075 47.746311 51.029297 47.982422 C 50.751519 48.211589 50.611328 48.492839 50.611328 48.826172 C 50.611328 49.069227 50.725911 49.287977 50.955078 49.482422 C 51.1773 49.683811 51.70573 49.871311 52.539062 50.044922 C 54.601562 50.489366 56.077908 50.942057 56.966797 51.400391 C 57.86263 51.85178 58.511286 52.41428 58.914062 53.087891 C 59.323785 53.761502 59.529297 54.514323 59.529297 55.347656 C 59.529297 56.326823 59.258464 57.230252 58.716797 58.056641 C 58.17513 58.88303 57.417535 59.510851 56.445312 59.941406 C 55.473091 60.365017 54.246745 60.576172 52.767578 60.576172 C 50.170356 60.576172 48.373047 60.076172 47.373047 59.076172 C 46.373047 58.076172 45.805773 56.805339 45.673828 55.263672 L 50.164062 54.982422 C 50.261285 55.711589 50.459202 56.268446 50.757812 56.650391 C 51.243924 57.268446 51.939019 57.576172 52.841797 57.576172 C 53.515408 57.576172 54.031467 57.419922 54.392578 57.107422 C 54.760634 56.787977 54.945312 56.420573 54.945312 56.003906 C 54.945312 55.608073 54.77105 55.253906 54.423828 54.941406 C 54.076606 54.628906 53.271701 54.334418 52.007812 54.056641 C 49.938369 53.591363 48.462023 52.972005 47.580078 52.201172 C 46.691189 51.430339 46.248047 50.448351 46.248047 49.253906 C 46.248047 48.469184 46.472439 47.729601 46.923828 47.035156 C 47.382161 46.333767 48.066841 45.784505 48.976562 45.388672 C 49.893229 44.985894 51.14605 44.785156 52.736328 44.785156 z M 6.3925781 45.044922 L 11.123047 45.044922 L 11.123047 60.316406 L 6.3925781 60.316406 L 6.3925781 45.044922 z M 12.986328 45.044922 L 17.923828 45.044922 L 21.361328 56.035156 L 24.748047 45.044922 L 29.539062 45.044922 L 23.873047 60.316406 L 18.757812 60.316406 L 12.986328 45.044922 z M 31.070312 45.044922 L 43.716797 45.044922 L 43.716797 48.306641 L 35.798828 48.306641 L 35.798828 50.732422 L 43.142578 50.732422 L 43.142578 53.847656 L 35.798828 53.847656 L 35.798828 56.857422 L 43.945312 56.857422 L 43.945312 60.316406 L 31.070312 60.316406 L 31.070312 45.044922 z M 37.539062 63.060547 C 38.089394 63.060547 38.52203 63.235625 38.835938 63.585938 C 39.151832 63.93625 39.386082 64.473571 39.539062 65.199219 L 38.347656 65.617188 C 38.305934 65.407625 38.262492 65.255165 38.216797 65.158203 C 38.1413 64.995558 38.048725 64.870781 37.939453 64.783203 C 37.830182 64.695625 37.707365 64.650391 37.572266 64.650391 C 37.266305 64.650391 37.032055 64.844576 36.869141 65.232422 C 36.745962 65.520179 36.685547 65.971716 36.685547 66.587891 C 36.685547 67.351072 36.757277 67.875527 36.904297 68.160156 C 37.051317 68.441658 37.259165 68.582031 37.525391 68.582031 C 37.783669 68.582031 37.978249 68.468563 38.109375 68.240234 C 38.242488 68.011906 38.338835 67.680857 38.398438 67.246094 L 39.582031 67.808594 C 39.502561 68.330935 39.375939 68.766875 39.205078 69.117188 C 39.034217 69.4675 38.822664 69.731872 38.568359 69.910156 C 38.316042 70.08844 37.992953 70.177734 37.601562 70.177734 C 37.126728 70.177734 36.739487 70.069333 36.4375 69.853516 C 36.1375 69.63457 35.878699 69.252442 35.660156 68.705078 C 35.441613 68.157714 35.332031 67.457403 35.332031 66.603516 C 35.332031 65.464999 35.522806 64.590388 35.90625 63.980469 C 36.29168 63.367421 36.835751 63.060547 37.539062 63.060547 z M 56.195312 63.060547 C 56.745644 63.060547 57.17828 63.235625 57.492188 63.585938 C 57.808082 63.93625 58.042332 64.473571 58.195312 65.199219 L 57.003906 65.617188 C 56.962184 65.407625 56.916789 65.255165 56.871094 65.158203 C 56.795597 64.995558 56.704975 64.870781 56.595703 64.783203 C 56.486432 64.695625 56.363615 64.650391 56.228516 64.650391 C 55.922555 64.650391 55.688305 64.844576 55.525391 65.232422 C 55.402212 65.520179 55.339844 65.971716 55.339844 66.587891 C 55.339844 67.351072 55.413527 67.875527 55.560547 68.160156 C 55.707567 68.441658 55.913462 68.582031 56.179688 68.582031 C 56.437966 68.582031 56.634499 68.468563 56.765625 68.240234 C 56.898738 68.011906 56.995085 67.680857 57.054688 67.246094 L 58.236328 67.808594 C 58.156858 68.330935 58.032189 68.766875 57.861328 69.117188 C 57.690467 69.4675 57.478914 69.731872 57.224609 69.910156 C 56.972292 70.08844 56.649203 70.177734 56.257812 70.177734 C 55.782978 70.177734 55.395737 70.069333 55.09375 69.853516 C 54.79375 69.63457 54.532996 69.252442 54.314453 68.705078 C 54.09591 68.157714 53.986328 67.457403 53.986328 66.603516 C 53.986328 65.464999 54.179056 64.590388 54.5625 63.980469 C 54.94793 63.367421 55.492001 63.060547 56.195312 63.060547 z M 7.6855469 63.177734 L 11.023438 63.177734 L 11.023438 64.65625 L 9.0410156 64.65625 L 9.0410156 65.857422 L 10.734375 65.857422 L 10.734375 67.246094 L 9.0410156 67.246094 L 9.0410156 70.056641 L 7.6855469 70.056641 L 7.6855469 63.177734 z M 12.957031 63.177734 L 14.429688 63.177734 L 16.070312 70.056641 L 14.658203 70.056641 L 14.443359 68.919922 L 12.90625 68.919922 L 12.695312 70.056641 L 11.314453 70.056641 L 12.957031 63.177734 z M 16.484375 63.177734 L 18.261719 63.177734 L 18.947266 67.363281 L 19.628906 63.177734 L 21.400391 63.177734 L 21.400391 70.056641 L 20.296875 70.056641 L 20.296875 64.810547 L 19.441406 70.056641 L 18.443359 70.056641 L 17.591797 64.810547 L 17.591797 70.056641 L 16.484375 70.056641 L 16.484375 63.177734 z M 22.310547 63.177734 L 23.664062 63.177734 L 23.664062 70.056641 L 22.310547 70.056641 L 22.310547 63.177734 z M 24.630859 63.177734 L 25.980469 63.177734 L 25.980469 68.361328 L 28.087891 68.361328 L 28.087891 70.056641 L 24.630859 70.056641 L 24.630859 63.177734 z M 28.265625 63.177734 L 29.765625 63.177734 L 30.646484 65.5 L 31.529297 63.177734 L 33.019531 63.177734 L 31.320312 67.175781 L 31.320312 70.056641 L 29.966797 70.056641 L 29.966797 67.175781 L 28.265625 63.177734 z M 40.234375 63.177734 L 41.583984 63.177734 L 41.583984 68.361328 L 43.691406 68.361328 L 43.691406 70.056641 L 40.234375 70.056641 L 40.234375 63.177734 z M 44.365234 63.177734 L 45.716797 63.177734 L 45.716797 70.056641 L 44.365234 70.056641 L 44.365234 63.177734 z M 46.691406 63.177734 L 47.953125 63.177734 L 49.597656 66.982422 L 49.597656 63.177734 L 50.869141 63.177734 L 50.869141 70.056641 L 49.597656 70.056641 L 47.960938 66.279297 L 47.960938 70.056641 L 46.691406 70.056641 L 46.691406 63.177734 z M 51.826172 63.177734 L 53.179688 63.177734 L 53.179688 70.056641 L 51.826172 70.056641 L 51.826172 63.177734 z M 13.677734 64.960938 L 13.197266 67.433594 L 14.160156 67.433594 L 13.677734 64.960938 z "
       style="fill:#d9534f;fill-opacity:1;stroke:none;stroke-width:0.75436455" />
    <text
       id="text4598"
       y="277.75616"
       x="-6.6498957"
       style="font-style:normal;font-weight:normal;font-size:10.58333302px;line-height:1.25;font-family:sans-serif;letter-spacing:0px;word-spacing:0px;fill:#000000;fill-opacity:1;stroke:none;stroke-width:0.26458332"
       xml:space="preserve"><tspan
         style="stroke-width:0.26458332"
         y="287.41165"
         x="-6.6498957"
         id="tspan4596" /></text>
  </g>
</svg>
