<?xml version="1.0" encoding="UTF-8" standalone="no"?>
<!-- Created with Inkscape (http://www.inkscape.org/) -->

<svg
   xmlns:dc="http://purl.org/dc/elements/1.1/"
   xmlns:cc="http://creativecommons.org/ns#"
   xmlns:rdf="http://www.w3.org/1999/02/22-rdf-syntax-ns#"
   xmlns:svg="http://www.w3.org/2000/svg"
   xmlns="http://www.w3.org/2000/svg"
   xmlns:sodipodi="http://sodipodi.sourceforge.net/DTD/sodipodi-0.dtd"
   xmlns:inkscape="http://www.inkscape.org/namespaces/inkscape"
   width="65.808594"
   height="75.400391"
   viewBox="0 0 17.411857 19.949687"
   version="1.1"
   id="svg8"
   sodipodi:docname="st_ives_specialist1.svg"
   inkscape:version="0.92.4 (5da689c313, 2019-01-14)">
  <defs
     id="defs2" />
  <sodipodi:namedview
     id="base"
     pagecolor="#ffffff"
     bordercolor="#666666"
     borderopacity="1.0"
     inkscape:pageopacity="0.0"
     inkscape:pageshadow="2"
     inkscape:zoom="3.58"
     inkscape:cx="100.45454"
     inkscape:cy="63.476424"
     inkscape:document-units="px"
     inkscape:current-layer="layer1"
     showgrid="false"
     units="px"
     inkscape:pagecheckerboard="true"
     inkscape:window-width="1366"
     inkscape:window-height="706"
     inkscape:window-x="-8"
     inkscape:window-y="-8"
     inkscape:window-maximized="1" />
  <metadata
     id="metadata5">
    <rdf:RDF>
      <cc:Work
         rdf:about="">
        <dc:format>image/svg+xml</dc:format>
        <dc:type
           rdf:resource="http://purl.org/dc/dcmitype/StillImage" />
        <dc:title></dc:title>
      </cc:Work>
    </rdf:RDF>
  </metadata>
  <g
     inkscape:label="Layer 1"
     inkscape:groupmode="layer"
     id="layer1"
     transform="translate(-3.0308227,-263.0801)">
    <path
       style="fill:#d9534f;fill-opacity:1;stroke:none;stroke-width:0.75436455"
       d="M 4.0410156 0 C 1.8031069 0 0 1.8011525 0 4.0390625 L 0 38.529297 L 65.808594 38.529297 L 65.808594 4.0390625 C 65.808594 1.8011525 64.007441 0 61.769531 0 L 4.0410156 0 z M 17.447266 3.6464844 C 21.176053 3.6464854 24.014197 4.3504705 25.964844 5.7578125 C 27.92876 7.1517505 29.097198 9.3756981 29.46875 12.431641 L 20.96875 12.933594 C 20.743165 11.606672 20.266938 10.642208 19.537109 10.039062 C 18.820544 9.4359165 17.824673 9.1347656 16.550781 9.1347656 C 15.502475 9.1347656 14.712429 9.3626484 14.181641 9.8183594 C 13.650853 10.260662 13.386719 10.80391 13.386719 11.447266 C 13.386719 11.91638 13.605069 12.3376 14.042969 12.712891 C 14.467599 13.101585 15.475994 13.463747 17.068359 13.798828 C 21.009457 14.656637 23.828822 15.527494 25.527344 16.412109 C 27.239136 17.283316 28.480357 18.369806 29.25 19.669922 C 30.032913 20.970038 30.423828 22.42286 30.423828 24.03125 C 30.423828 25.921109 29.906131 27.664778 28.871094 29.259766 C 27.836057 30.854753 26.390962 32.067436 24.533203 32.898438 C 22.675444 33.716033 20.332302 34.125 17.505859 34.125 C 12.542989 34.125 9.1061495 33.160538 7.1953125 31.230469 C 5.2844745 29.3004 4.2032959 26.846616 3.9511719 23.871094 L 12.529297 23.328125 C 12.715073 24.735467 13.093467 25.807743 13.664062 26.544922 C 14.592941 27.737812 15.91947 28.333984 17.644531 28.333984 C 18.931693 28.333984 19.921304 28.032831 20.611328 27.429688 C 21.314623 26.813138 21.666016 26.103024 21.666016 25.298828 C 21.666016 24.534843 21.33536 23.851193 20.671875 23.248047 C 20.00839 22.644901 18.467821 22.075192 16.052734 21.539062 C 12.098366 20.641047 9.279003 19.448696 7.59375 17.960938 C 5.895228 16.473176 5.046875 14.576844 5.046875 12.271484 C 5.046875 10.756921 5.4773128 9.3286072 6.3398438 7.9882812 C 7.2156435 6.6345535 8.5233864 5.576486 10.261719 4.8125 C 12.01332 4.035111 14.408503 3.6464854 17.447266 3.6464844 z M 44.21875 4.1484375 L 44.21875 12.271484 L 48.675781 12.271484 L 48.675781 18.242188 L 44.21875 18.242188 L 44.21875 25.822266 C 44.21875 26.733687 44.304062 27.335987 44.476562 27.630859 C 44.741956 28.086565 45.207609 28.314453 45.871094 28.314453 C 46.468231 28.314453 47.30406 28.1395 48.378906 27.791016 L 48.974609 33.441406 C 46.970883 33.883714 45.09966 34.105469 43.361328 34.105469 C 41.344333 34.105469 39.859716 33.843039 38.904297 33.320312 C 37.948878 32.797588 37.237874 32.008076 36.773438 30.949219 C 36.322268 29.876959 36.097656 28.147498 36.097656 25.761719 L 36.097656 18.242188 L 33.111328 18.242188 L 33.111328 12.271484 L 36.097656 12.271484 L 36.097656 8.3496094 L 44.21875 4.1484375 z M 50.974609 27.017578 L 59.355469 27.017578 L 59.355469 33.441406 L 50.974609 33.441406 L 50.974609 27.017578 z M 0 41.294922 L 0 71.361328 L 0 71.769531 L 0.041015625 71.769531 C 0.24730634 73.811392 1.9429762 75.400391 4.0410156 75.400391 L 61.769531 75.400391 C 63.867572 75.400391 65.561502 73.811392 65.767578 71.769531 L 65.921875 71.769531 L 65.921875 41.294922 L 65.808594 41.294922 L 0 41.294922 z M 52.736328 44.785156 C 54.687717 44.785156 56.17448 45.14974 57.195312 45.878906 C 58.22309 46.601128 58.834852 47.754557 59.029297 49.337891 L 54.580078 49.597656 C 54.462023 48.910156 54.212023 48.410156 53.830078 48.097656 C 53.455078 47.785156 52.934245 47.628906 52.267578 47.628906 C 51.718967 47.628906 51.307075 47.746311 51.029297 47.982422 C 50.751519 48.211589 50.611328 48.492839 50.611328 48.826172 C 50.611328 49.069227 50.725911 49.287977 50.955078 49.482422 C 51.1773 49.683811 51.70573 49.871311 52.539062 50.044922 C 54.601562 50.489366 56.077908 50.942057 56.966797 51.400391 C 57.86263 51.85178 58.511286 52.41428 58.914062 53.087891 C 59.323785 53.761502 59.529297 54.514323 59.529297 55.347656 C 59.529297 56.326823 59.258464 57.230252 58.716797 58.056641 C 58.17513 58.88303 57.417535 59.510851 56.445312 59.941406 C 55.473091 60.365017 54.246745 60.576172 52.767578 60.576172 C 50.170356 60.576172 48.373047 60.076172 47.373047 59.076172 C 46.373047 58.076172 45.805773 56.805339 45.673828 55.263672 L 50.164062 54.982422 C 50.261285 55.711589 50.459202 56.268446 50.757812 56.650391 C 51.243924 57.268446 51.939019 57.576172 52.841797 57.576172 C 53.515408 57.576172 54.031467 57.419922 54.392578 57.107422 C 54.760634 56.787977 54.945312 56.420573 54.945312 56.003906 C 54.945312 55.608073 54.77105 55.253906 54.423828 54.941406 C 54.076606 54.628906 53.271701 54.334418 52.007812 54.056641 C 49.938369 53.591363 48.462023 52.972005 47.580078 52.201172 C 46.691189 51.430339 46.248047 50.448351 46.248047 49.253906 C 46.248047 48.469184 46.472439 47.729601 46.923828 47.035156 C 47.382161 46.333767 48.066841 45.784505 48.976562 45.388672 C 49.893229 44.985894 51.14605 44.785156 52.736328 44.785156 z M 6.3925781 45.044922 L 11.123047 45.044922 L 11.123047 60.316406 L 6.3925781 60.316406 L 6.3925781 45.044922 z M 12.986328 45.044922 L 17.923828 45.044922 L 21.361328 56.035156 L 24.748047 45.044922 L 29.539062 45.044922 L 23.873047 60.316406 L 18.757812 60.316406 L 12.986328 45.044922 z M 31.070312 45.044922 L 43.716797 45.044922 L 43.716797 48.306641 L 35.798828 48.306641 L 35.798828 50.732422 L 43.142578 50.732422 L 43.142578 53.847656 L 35.798828 53.847656 L 35.798828 56.857422 L 43.945312 56.857422 L 43.945312 60.316406 L 31.070312 60.316406 L 31.070312 45.044922 z M 7.3847656 63.484375 C 7.7782159 63.484375 8.0773768 63.645744 8.2832031 63.96875 C 8.4904296 64.28868 8.6150919 64.800569 8.6542969 65.501953 L 7.7558594 65.617188 C 7.7320563 65.312639 7.6824786 65.091556 7.6054688 64.953125 C 7.5298591 64.814694 7.4254328 64.744141 7.2910156 64.744141 C 7.1804015 64.744141 7.0970228 64.797751 7.0410156 64.902344 C 6.9850085 65.00386 6.9570312 65.127731 6.9570312 65.275391 C 6.9570312 65.383059 6.9791847 65.480271 7.0253906 65.566406 C 7.0701964 65.655617 7.1776817 65.737547 7.3457031 65.814453 C 7.7615563 66.011333 8.0590583 66.21103 8.2382812 66.414062 C 8.4189043 66.614019 8.549649 66.863713 8.6308594 67.162109 C 8.7134699 67.460505 8.7539062 67.794913 8.7539062 68.164062 C 8.7539062 68.597813 8.6990577 68.997208 8.5898438 69.363281 C 8.4806298 69.729355 8.3288376 70.008491 8.1328125 70.199219 C 7.9367874 70.38687 7.6888631 70.480469 7.390625 70.480469 C 6.8669581 70.480469 6.5043601 70.259386 6.3027344 69.816406 C 6.1011086 69.373427 5.9875409 68.80988 5.9609375 68.126953 L 6.8652344 68.001953 C 6.8848369 68.324959 6.9261204 68.571041 6.9863281 68.740234 C 7.0843407 69.01402 7.2242267 69.150391 7.40625 69.150391 C 7.5420674 69.150391 7.6459407 69.08179 7.71875 68.943359 C 7.7929595 68.801852 7.8300781 68.639653 7.8300781 68.455078 C 7.8300781 68.279732 7.7946183 68.122806 7.7246094 67.984375 C 7.6546004 67.845944 7.4931138 67.714847 7.2382812 67.591797 C 6.8210279 67.385688 6.5235259 67.110995 6.3457031 66.769531 C 6.1664802 66.428068 6.0761719 65.993958 6.0761719 65.464844 C 6.0761719 65.117228 6.121879 64.790047 6.2128906 64.482422 C 6.3053024 64.171721 6.4435297 63.927299 6.6269531 63.751953 C 6.8117767 63.573531 7.0641246 63.484375 7.3847656 63.484375 z M 16.896484 63.484375 C 17.284334 63.484375 17.589319 63.657413 17.810547 64.001953 C 18.033175 64.346493 18.198827 64.876154 18.306641 65.589844 L 17.466797 66 C 17.437393 65.793891 17.405251 65.642239 17.373047 65.546875 C 17.31984 65.38691 17.254744 65.263869 17.177734 65.177734 C 17.100725 65.091599 17.015134 65.048828 16.919922 65.048828 C 16.704294 65.048828 16.538643 65.239639 16.423828 65.621094 C 16.337017 65.904108 16.294922 66.349057 16.294922 66.955078 C 16.294922 67.705682 16.345606 68.220062 16.449219 68.5 C 16.552832 68.776862 16.699095 68.916016 16.886719 68.916016 C 17.068742 68.916016 17.206416 68.802691 17.298828 68.578125 C 17.39264 68.353559 17.459948 68.029161 17.501953 67.601562 L 18.335938 68.154297 C 18.27993 68.66803 18.190728 69.096867 18.070312 69.441406 C 17.949897 69.785946 17.800317 70.04731 17.621094 70.222656 C 17.443271 70.398002 17.217242 70.484375 16.941406 70.484375 C 16.606763 70.484375 16.331968 70.378277 16.119141 70.166016 C 15.907714 69.950678 15.726285 69.573499 15.572266 69.035156 C 15.418246 68.496813 15.339844 67.808565 15.339844 66.96875 C 15.339844 65.848996 15.475859 64.98854 15.746094 64.388672 C 16.017728 63.785727 16.400821 63.484375 16.896484 63.484375 z M 29.613281 63.484375 C 30.006732 63.484375 30.307846 63.645744 30.513672 63.96875 C 30.720898 64.28868 30.843607 64.800569 30.882812 65.501953 L 29.986328 65.617188 C 29.962525 65.312639 29.910994 65.091556 29.833984 64.953125 C 29.758375 64.814694 29.653948 64.744141 29.519531 64.744141 C 29.408917 64.744141 29.325538 64.797751 29.269531 64.902344 C 29.213524 65.00386 29.185547 65.127731 29.185547 65.275391 C 29.185547 65.383059 29.209653 65.480271 29.255859 65.566406 C 29.300665 65.655617 29.406197 65.737547 29.574219 65.814453 C 29.990072 66.011333 30.287574 66.21103 30.466797 66.414062 C 30.64742 66.614019 30.778165 66.863713 30.859375 67.162109 C 30.941986 67.460505 30.984375 67.794913 30.984375 68.164062 C 30.984375 68.597813 30.929526 68.997208 30.820312 69.363281 C 30.711099 69.729355 30.557353 70.008491 30.361328 70.199219 C 30.165303 70.38687 29.919332 70.480469 29.621094 70.480469 C 29.097427 70.480469 28.734829 70.259386 28.533203 69.816406 C 28.331577 69.373427 28.216057 68.80988 28.189453 68.126953 L 29.095703 68.001953 C 29.115306 68.324959 29.154636 68.571041 29.214844 68.740234 C 29.312856 69.01402 29.452742 69.150391 29.634766 69.150391 C 29.770583 69.150391 29.874456 69.08179 29.947266 68.943359 C 30.021475 68.801852 30.058594 68.639653 30.058594 68.455078 C 30.058594 68.279732 30.025087 68.122806 29.955078 67.984375 C 29.885069 67.845944 29.721629 67.714847 29.466797 67.591797 C 29.049544 67.385688 28.752041 67.110995 28.574219 66.769531 C 28.394996 66.428068 28.306641 65.993958 28.306641 65.464844 C 28.306641 65.117228 28.350395 64.790047 28.441406 64.482422 C 28.533818 64.171721 28.672045 63.927299 28.855469 63.751953 C 29.040292 63.573531 29.29264 63.484375 29.613281 63.484375 z M 41.066406 63.484375 C 41.578872 63.484375 41.974718 63.788511 42.251953 64.394531 C 42.529189 64.997476 42.667969 65.842649 42.667969 66.931641 C 42.667969 67.722236 42.606191 68.371326 42.484375 68.878906 C 42.36396 69.383411 42.188614 69.777532 41.958984 70.060547 C 41.730755 70.340485 41.447112 70.480469 41.105469 70.480469 C 40.758224 70.480469 40.470417 70.358258 40.242188 70.115234 C 40.015359 69.872211 39.830871 69.488929 39.689453 68.962891 C 39.548035 68.436852 39.476562 67.776924 39.476562 66.986328 C 39.476562 65.881956 39.616449 65.023452 39.896484 64.408203 C 40.17652 63.792954 40.566542 63.484375 41.066406 63.484375 z M 44.441406 63.484375 C 44.834857 63.484375 45.135971 63.645744 45.341797 63.96875 C 45.549023 64.28868 45.671732 64.800569 45.710938 65.501953 L 44.814453 65.617188 C 44.79065 65.312639 44.739119 65.091556 44.662109 64.953125 C 44.5865 64.814694 44.482073 64.744141 44.347656 64.744141 C 44.237042 64.744141 44.153663 64.797751 44.097656 64.902344 C 44.041649 65.00386 44.013672 65.127731 44.013672 65.275391 C 44.013672 65.383059 44.035825 65.480271 44.082031 65.566406 C 44.126837 65.655617 44.234322 65.737547 44.402344 65.814453 C 44.818197 66.011333 45.115699 66.21103 45.294922 66.414062 C 45.475545 66.614019 45.60629 66.863713 45.6875 67.162109 C 45.770111 67.460505 45.810547 67.794913 45.810547 68.164062 C 45.810547 68.597813 45.757651 68.997208 45.648438 69.363281 C 45.539224 69.729355 45.385478 70.008491 45.189453 70.199219 C 44.993428 70.38687 44.747457 70.480469 44.449219 70.480469 C 43.925552 70.480469 43.562954 70.259386 43.361328 69.816406 C 43.159702 69.373427 43.044182 68.80988 43.017578 68.126953 L 43.923828 68.001953 C 43.943431 68.324959 43.982761 68.571041 44.042969 68.740234 C 44.140981 69.01402 44.280867 69.150391 44.462891 69.150391 C 44.598708 69.150391 44.702581 69.08179 44.775391 68.943359 C 44.8496 68.801852 44.886719 68.639653 44.886719 68.455078 C 44.886719 68.279732 44.853212 68.122806 44.783203 67.984375 C 44.713194 67.845944 44.549754 67.714847 44.294922 67.591797 C 43.877669 67.385688 43.580166 67.110995 43.402344 66.769531 C 43.223121 66.428068 43.132812 65.993958 43.132812 65.464844 C 43.132813 65.117228 43.17852 64.790047 43.269531 64.482422 C 43.361943 64.171721 43.50017 63.927299 43.683594 63.751953 C 43.868417 63.573531 44.120765 63.484375 44.441406 63.484375 z M 9.2304688 63.599609 L 10.8125 63.599609 C 11.156944 63.599609 11.415116 63.780704 11.585938 64.140625 C 11.75816 64.500546 11.84375 65.011312 11.84375 65.675781 C 11.84375 66.358708 11.750124 66.892813 11.5625 67.277344 C 11.376276 67.661875 11.09068 67.855469 10.707031 67.855469 L 10.1875 67.855469 L 10.1875 70.365234 L 9.2304688 70.365234 L 9.2304688 63.599609 z M 12.341797 63.599609 L 14.890625 63.599609 L 14.890625 65.044922 L 13.294922 65.044922 L 13.294922 66.119141 L 14.775391 66.119141 L 14.775391 67.5 L 13.294922 67.5 L 13.294922 68.832031 L 14.9375 68.832031 L 14.9375 70.365234 L 12.341797 70.365234 L 12.341797 63.599609 z M 18.833984 63.599609 L 19.787109 63.599609 L 19.787109 70.365234 L 18.833984 70.365234 L 18.833984 63.599609 z M 21.314453 63.599609 L 22.351562 63.599609 L 23.507812 70.365234 L 22.513672 70.365234 L 22.361328 69.248047 L 21.277344 69.248047 L 21.128906 70.365234 L 20.15625 70.365234 L 21.314453 63.599609 z M 23.810547 63.599609 L 24.761719 63.599609 L 24.761719 68.699219 L 26.248047 68.699219 L 26.248047 70.365234 L 23.810547 70.365234 L 23.810547 63.599609 z M 26.722656 63.599609 L 27.675781 63.599609 L 27.675781 70.365234 L 26.722656 70.365234 L 26.722656 63.599609 z M 31.248047 63.599609 L 34.140625 63.599609 L 34.140625 65.271484 L 33.169922 65.271484 L 33.169922 70.365234 L 32.21875 70.365234 L 32.21875 65.271484 L 31.248047 65.271484 L 31.248047 63.599609 z M 36.013672 63.599609 L 36.964844 63.599609 L 36.964844 65.966797 L 38.003906 65.966797 L 38.003906 63.599609 L 38.960938 63.599609 L 38.960938 70.365234 L 38.003906 70.365234 L 38.003906 67.628906 L 36.964844 67.628906 L 36.964844 70.365234 L 36.013672 70.365234 L 36.013672 63.599609 z M 46.289062 63.599609 L 47.869141 63.599609 C 48.213585 63.599609 48.471756 63.780704 48.642578 64.140625 C 48.8148 64.500546 48.900391 65.011312 48.900391 65.675781 C 48.900391 66.358708 48.806765 66.892813 48.619141 67.277344 C 48.432917 67.661875 48.149274 67.855469 47.765625 67.855469 L 47.244141 67.855469 L 47.244141 70.365234 L 46.289062 70.365234 L 46.289062 63.599609 z M 49.439453 63.599609 L 50.392578 63.599609 L 50.392578 70.365234 L 49.439453 70.365234 L 49.439453 63.599609 z M 50.855469 63.599609 L 53.748047 63.599609 L 53.748047 65.271484 L 52.777344 65.271484 L 52.777344 70.365234 L 51.826172 70.365234 L 51.826172 65.271484 L 50.855469 65.271484 L 50.855469 63.599609 z M 55.027344 63.599609 L 56.064453 63.599609 L 57.222656 70.365234 L 56.226562 70.365234 L 56.076172 69.248047 L 54.992188 69.248047 L 54.841797 70.365234 L 53.871094 70.365234 L 55.027344 63.599609 z M 57.525391 63.599609 L 58.476562 63.599609 L 58.476562 68.699219 L 59.960938 68.699219 L 59.960938 70.365234 L 57.525391 70.365234 L 57.525391 63.599609 z M 10.1875 64.974609 L 10.1875 66.484375 L 10.419922 66.484375 C 10.603345 66.484375 10.732431 66.415775 10.806641 66.277344 C 10.88085 66.135836 10.917969 65.954742 10.917969 65.736328 C 10.917969 65.524067 10.884721 65.344925 10.820312 65.197266 C 10.755904 65.049606 10.634854 64.974609 10.457031 64.974609 L 10.1875 64.974609 z M 47.244141 64.974609 L 47.244141 66.484375 L 47.476562 66.484375 C 47.659986 66.484375 47.789072 66.415775 47.863281 66.277344 C 47.937491 66.135836 47.974609 65.954742 47.974609 65.736328 C 47.974609 65.524067 47.943314 65.344925 47.878906 65.197266 C 47.814498 65.049606 47.693448 64.974609 47.515625 64.974609 L 47.244141 64.974609 z M 41.064453 65.068359 C 40.872629 65.068359 40.71973 65.217229 40.603516 65.515625 C 40.487301 65.814021 40.427734 66.307014 40.427734 66.996094 C 40.427734 67.679021 40.486748 68.170354 40.601562 68.46875 C 40.717777 68.767146 40.87344 68.916016 41.072266 68.916016 C 41.276692 68.916016 41.436814 68.770759 41.548828 68.478516 C 41.660842 68.186272 41.716797 67.661054 41.716797 66.904297 C 41.716797 66.267514 41.656678 65.802009 41.539062 65.509766 C 41.422848 65.214446 41.264679 65.068359 41.064453 65.068359 z M 21.822266 65.353516 L 21.484375 67.785156 L 22.162109 67.785156 L 21.822266 65.353516 z M 55.535156 65.353516 L 55.197266 67.785156 L 55.875 67.785156 L 55.535156 65.353516 z "
       transform="matrix(0.26458333,0,0,0.26458333,3.0308227,263.0801)"
       id="rect3713" />
    <text
       xml:space="preserve"
       style="font-style:normal;font-weight:normal;font-size:10.58333302px;line-height:1.25;font-family:sans-serif;letter-spacing:0px;word-spacing:0px;fill:#000000;fill-opacity:1;stroke:none;stroke-width:0.26458332"
       x="-6.6498957"
       y="277.75616"
       id="text4598"><tspan
         sodipodi:role="line"
         id="tspan4596"
         x="-6.6498957"
         y="287.41165"
         style="stroke-width:0.26458332" /></text>
  </g>
</svg>
