<?xml version="1.0" encoding="UTF-8" standalone="no"?>
<svg
   xmlns:dc="http://purl.org/dc/elements/1.1/"
   xmlns:cc="http://creativecommons.org/ns#"
   xmlns:rdf="http://www.w3.org/1999/02/22-rdf-syntax-ns#"
   xmlns:svg="http://www.w3.org/2000/svg"
   xmlns="http://www.w3.org/2000/svg"
   id="svg8"
   version="1.1"
   viewBox="0 0 17.411857 19.949687"
   height="75.400391"
   width="65.808594">
  <defs
     id="defs2" />
  <metadata
     id="metadata5">
    <rdf:RDF>
      <cc:Work
         rdf:about="">
        <dc:format>image/svg+xml</dc:format>
        <dc:type
           rdf:resource="http://purl.org/dc/dcmitype/StillImage" />
        <dc:title></dc:title>
      </cc:Work>
    </rdf:RDF>
  </metadata>
  <g
     transform="translate(-3.0308227,-263.0801)"
     id="layer1">
    <path
       id="rect3713"
       transform="matrix(0.26458333,0,0,0.26458333,3.0308227,263.0801)"
       d="M 4.0410156 0 C 1.8031069 0 0 1.8011525 0 4.0390625 L 0 38.529297 L 65.808594 38.529297 L 65.808594 4.0390625 C 65.808594 1.8011525 64.007441 0 61.769531 0 L 4.0410156 0 z M 17.447266 3.6464844 C 21.176053 3.6464854 24.014197 4.3504705 25.964844 5.7578125 C 27.92876 7.1517505 29.097198 9.3756981 29.46875 12.431641 L 20.96875 12.933594 C 20.743165 11.606672 20.266938 10.642208 19.537109 10.039062 C 18.820544 9.4359165 17.824673 9.1347656 16.550781 9.1347656 C 15.502475 9.1347656 14.712429 9.3626484 14.181641 9.8183594 C 13.650853 10.260662 13.386719 10.80391 13.386719 11.447266 C 13.386719 11.91638 13.605069 12.3376 14.042969 12.712891 C 14.467599 13.101585 15.475994 13.463747 17.068359 13.798828 C 21.009457 14.656637 23.828822 15.527494 25.527344 16.412109 C 27.239136 17.283316 28.480357 18.369806 29.25 19.669922 C 30.032913 20.970038 30.423828 22.42286 30.423828 24.03125 C 30.423828 25.921109 29.906131 27.664778 28.871094 29.259766 C 27.836057 30.854753 26.390962 32.067436 24.533203 32.898438 C 22.675444 33.716033 20.332302 34.125 17.505859 34.125 C 12.542989 34.125 9.1061495 33.160538 7.1953125 31.230469 C 5.2844745 29.3004 4.2032959 26.846616 3.9511719 23.871094 L 12.529297 23.328125 C 12.715073 24.735467 13.093467 25.807743 13.664062 26.544922 C 14.592941 27.737812 15.91947 28.333984 17.644531 28.333984 C 18.931693 28.333984 19.921304 28.032831 20.611328 27.429688 C 21.314623 26.813138 21.666016 26.103024 21.666016 25.298828 C 21.666016 24.534843 21.33536 23.851193 20.671875 23.248047 C 20.00839 22.644901 18.467821 22.075192 16.052734 21.539062 C 12.098366 20.641047 9.279003 19.448696 7.59375 17.960938 C 5.895228 16.473176 5.046875 14.576844 5.046875 12.271484 C 5.046875 10.756921 5.4773128 9.3286072 6.3398438 7.9882812 C 7.2156435 6.6345535 8.5233864 5.576486 10.261719 4.8125 C 12.01332 4.035111 14.408503 3.6464854 17.447266 3.6464844 z M 44.21875 4.1484375 L 44.21875 12.271484 L 48.675781 12.271484 L 48.675781 18.242188 L 44.21875 18.242188 L 44.21875 25.822266 C 44.21875 26.733687 44.304062 27.335987 44.476562 27.630859 C 44.741956 28.086565 45.207609 28.314453 45.871094 28.314453 C 46.468231 28.314453 47.30406 28.1395 48.378906 27.791016 L 48.974609 33.441406 C 46.970883 33.883714 45.09966 34.105469 43.361328 34.105469 C 41.344333 34.105469 39.859716 33.843039 38.904297 33.320312 C 37.948878 32.797588 37.237874 32.008076 36.773438 30.949219 C 36.322268 29.876959 36.097656 28.147498 36.097656 25.761719 L 36.097656 18.242188 L 33.111328 18.242188 L 33.111328 12.271484 L 36.097656 12.271484 L 36.097656 8.3496094 L 44.21875 4.1484375 z M 50.974609 27.017578 L 59.355469 27.017578 L 59.355469 33.441406 L 50.974609 33.441406 L 50.974609 27.017578 z M 0 41.294922 L 0 71.361328 L 0 71.769531 L 0.041015625 71.769531 C 0.24730634 73.811392 1.9429762 75.400391 4.0410156 75.400391 L 61.769531 75.400391 C 63.867572 75.400391 65.561502 73.811392 65.767578 71.769531 L 65.921875 71.769531 L 65.921875 41.294922 L 65.808594 41.294922 L 0 41.294922 z M 52.736328 44.785156 C 54.687717 44.785156 56.17448 45.14974 57.195312 45.878906 C 58.22309 46.601128 58.834852 47.754557 59.029297 49.337891 L 54.580078 49.597656 C 54.462023 48.910156 54.212023 48.410156 53.830078 48.097656 C 53.455078 47.785156 52.934245 47.628906 52.267578 47.628906 C 51.718967 47.628906 51.307075 47.746311 51.029297 47.982422 C 50.751519 48.211589 50.611328 48.492839 50.611328 48.826172 C 50.611328 49.069227 50.725911 49.287977 50.955078 49.482422 C 51.1773 49.683811 51.70573 49.871311 52.539062 50.044922 C 54.601562 50.489366 56.077908 50.942057 56.966797 51.400391 C 57.86263 51.85178 58.511286 52.41428 58.914062 53.087891 C 59.323785 53.761502 59.529297 54.514323 59.529297 55.347656 C 59.529297 56.326823 59.258464 57.230252 58.716797 58.056641 C 58.17513 58.88303 57.417535 59.510851 56.445312 59.941406 C 55.473091 60.365017 54.246745 60.576172 52.767578 60.576172 C 50.170356 60.576172 48.373047 60.076172 47.373047 59.076172 C 46.373047 58.076172 45.805773 56.805339 45.673828 55.263672 L 50.164062 54.982422 C 50.261285 55.711589 50.459202 56.268446 50.757812 56.650391 C 51.243924 57.268446 51.939019 57.576172 52.841797 57.576172 C 53.515408 57.576172 54.031467 57.419922 54.392578 57.107422 C 54.760634 56.787977 54.945312 56.420573 54.945312 56.003906 C 54.945312 55.608073 54.77105 55.253906 54.423828 54.941406 C 54.076606 54.628906 53.271701 54.334418 52.007812 54.056641 C 49.938369 53.591363 48.462023 52.972005 47.580078 52.201172 C 46.691189 51.430339 46.248047 50.448351 46.248047 49.253906 C 46.248047 48.469184 46.472439 47.729601 46.923828 47.035156 C 47.382161 46.333767 48.066841 45.784505 48.976562 45.388672 C 49.893229 44.985894 51.14605 44.785156 52.736328 44.785156 z M 6.3925781 45.044922 L 11.123047 45.044922 L 11.123047 60.316406 L 6.3925781 60.316406 L 6.3925781 45.044922 z M 12.986328 45.044922 L 17.923828 45.044922 L 21.361328 56.035156 L 24.748047 45.044922 L 29.539062 45.044922 L 23.873047 60.316406 L 18.757812 60.316406 L 12.986328 45.044922 z M 31.070312 45.044922 L 43.716797 45.044922 L 43.716797 48.306641 L 35.798828 48.306641 L 35.798828 50.732422 L 43.142578 50.732422 L 43.142578 53.847656 L 35.798828 53.847656 L 35.798828 56.857422 L 43.945312 56.857422 L 43.945312 60.316406 L 31.070312 60.316406 L 31.070312 45.044922 z M 39.962891 63.898438 C 40.513222 63.898438 40.945858 64.073515 41.259766 64.423828 C 41.57566 64.774141 41.80991 65.311462 41.962891 66.037109 L 40.769531 66.455078 C 40.727809 66.245516 40.684367 66.093055 40.638672 65.996094 C 40.563175 65.833449 40.4706 65.708672 40.361328 65.621094 C 40.252057 65.533516 40.131193 65.488281 39.996094 65.488281 C 39.690133 65.488281 39.455883 65.682466 39.292969 66.070312 C 39.16979 66.358069 39.107422 66.809606 39.107422 67.425781 C 39.107422 68.188963 39.181105 68.713418 39.328125 68.998047 C 39.475145 69.279548 39.68104 69.419922 39.947266 69.419922 C 40.205544 69.419922 40.400124 69.306454 40.53125 69.078125 C 40.664363 68.849796 40.76071 68.518748 40.820312 68.083984 L 42.003906 68.646484 C 41.924436 69.168826 41.799767 69.604765 41.628906 69.955078 C 41.458045 70.305391 41.244539 70.569763 40.990234 70.748047 C 40.737917 70.926331 40.416781 71.015625 40.025391 71.015625 C 39.550556 71.015625 39.161362 70.907224 38.859375 70.691406 C 38.559375 70.472461 38.300574 70.090332 38.082031 69.542969 C 37.863488 68.995605 37.753906 68.295294 37.753906 67.441406 C 37.753906 66.30289 37.946634 65.428279 38.330078 64.818359 C 38.715509 64.205312 39.259579 63.898438 39.962891 63.898438 z M 10.095703 64.015625 L 11.445312 64.015625 L 11.445312 66.421875 L 12.921875 66.421875 L 12.921875 64.015625 L 14.277344 64.015625 L 14.277344 70.894531 L 12.921875 70.894531 L 12.921875 68.111328 L 11.445312 68.111328 L 11.445312 70.894531 L 10.095703 70.894531 L 10.095703 64.015625 z M 15.177734 64.015625 L 18.794922 64.015625 L 18.794922 65.484375 L 16.529297 65.484375 L 16.529297 66.578125 L 18.630859 66.578125 L 18.630859 67.980469 L 16.529297 67.980469 L 16.529297 69.335938 L 18.861328 69.335938 L 18.861328 70.894531 L 15.177734 70.894531 L 15.177734 64.015625 z M 20.791016 64.015625 L 22.263672 64.015625 L 23.90625 70.894531 L 22.494141 70.894531 L 22.279297 69.757812 L 20.740234 69.757812 L 20.529297 70.894531 L 19.150391 70.894531 L 20.791016 64.015625 z M 24.333984 64.015625 L 25.685547 64.015625 L 25.685547 69.199219 L 27.791016 69.199219 L 27.791016 70.894531 L 24.333984 70.894531 L 24.333984 64.015625 z M 28.105469 64.015625 L 32.208984 64.015625 L 32.208984 65.714844 L 30.832031 65.714844 L 30.832031 70.894531 L 29.482422 70.894531 L 29.482422 65.714844 L 28.105469 65.714844 L 28.105469 64.015625 z M 32.828125 64.015625 L 34.177734 64.015625 L 34.177734 66.421875 L 35.654297 66.421875 L 35.654297 64.015625 L 37.009766 64.015625 L 37.009766 70.894531 L 35.654297 70.894531 L 35.654297 68.111328 L 34.177734 68.111328 L 34.177734 70.894531 L 32.828125 70.894531 L 32.828125 64.015625 z M 43.857422 64.015625 L 45.330078 64.015625 L 46.972656 70.894531 L 45.558594 70.894531 L 45.345703 69.757812 L 43.806641 69.757812 L 43.595703 70.894531 L 42.214844 70.894531 L 43.857422 64.015625 z M 47.419922 64.015625 L 49.669922 64.015625 C 50.08714 64.015625 50.40447 64.072946 50.625 64.185547 C 50.84553 64.298147 51.023104 64.505976 51.158203 64.8125 C 51.293302 65.115896 51.361328 65.48789 51.361328 65.925781 C 51.361328 66.307372 51.310343 66.637642 51.207031 66.916016 C 51.10372 67.191261 50.962045 67.413909 50.78125 67.585938 C 50.666018 67.69541 50.507303 67.785483 50.306641 67.857422 C 50.467568 67.941872 50.584693 68.026878 50.658203 68.111328 C 50.707872 68.167628 50.779669 68.288116 50.873047 68.472656 C 50.968411 68.657196 51.032665 68.800301 51.064453 68.900391 L 51.716797 70.894531 L 50.191406 70.894531 L 49.46875 68.791016 C 49.377359 68.518898 49.296133 68.343041 49.224609 68.261719 C 49.127258 68.155374 49.01771 68.101562 48.894531 68.101562 L 48.775391 68.101562 L 48.775391 70.894531 L 47.419922 70.894531 L 47.419922 64.015625 z M 52.142578 64.015625 L 55.759766 64.015625 L 55.759766 65.484375 L 53.496094 65.484375 L 53.496094 66.578125 L 55.595703 66.578125 L 55.595703 67.980469 L 53.496094 67.980469 L 53.496094 69.335938 L 55.826172 69.335938 L 55.826172 70.894531 L 52.142578 70.894531 L 52.142578 64.015625 z M 48.775391 65.404297 L 48.775391 66.802734 L 49.34375 66.802734 C 49.405339 66.802734 49.524351 66.77154 49.701172 66.708984 C 49.790576 66.680834 49.864293 66.607916 49.919922 66.492188 C 49.977538 66.376459 50.005859 66.243884 50.005859 66.09375 C 50.005859 65.871677 49.960498 65.700887 49.871094 65.582031 C 49.78169 65.463175 49.613545 65.404297 49.367188 65.404297 L 48.775391 65.404297 z M 21.513672 65.798828 L 21.033203 68.271484 L 21.996094 68.271484 L 21.513672 65.798828 z M 44.578125 65.798828 L 44.099609 68.271484 L 45.0625 68.271484 L 44.578125 65.798828 z "
       style="fill:#d9534f;fill-opacity:1;stroke:none;stroke-width:0.75436455" />
    <text
       id="text4598"
       y="277.75616"
       x="-6.6498957"
       style="font-style:normal;font-weight:normal;font-size:10.58333302px;line-height:1.25;font-family:sans-serif;letter-spacing:0px;word-spacing:0px;fill:#000000;fill-opacity:1;stroke:none;stroke-width:0.26458332"
       xml:space="preserve"><tspan
         style="stroke-width:0.26458332"
         y="287.41165"
         x="-6.6498957"
         id="tspan4596" /></text>
  </g>
</svg>
