<?xml version="1.0" encoding="UTF-8" standalone="no"?>
<!-- Created with Inkscape (http://www.inkscape.org/) -->

<svg
   xmlns:dc="http://purl.org/dc/elements/1.1/"
   xmlns:cc="http://creativecommons.org/ns#"
   xmlns:rdf="http://www.w3.org/1999/02/22-rdf-syntax-ns#"
   xmlns:svg="http://www.w3.org/2000/svg"
   xmlns="http://www.w3.org/2000/svg"
   xmlns:sodipodi="http://sodipodi.sourceforge.net/DTD/sodipodi-0.dtd"
   xmlns:inkscape="http://www.inkscape.org/namespaces/inkscape"
   width="65.808594"
   height="75.400391"
   viewBox="0 0 17.411857 19.949687"
   version="1.1"
   id="svg8"
   sodipodi:docname="st_ives_blood1.svg"
   inkscape:version="0.92.4 (5da689c313, 2019-01-14)">
  <defs
     id="defs2" />
  <sodipodi:namedview
     id="base"
     pagecolor="#ffffff"
     bordercolor="#666666"
     borderopacity="1.0"
     inkscape:pageopacity="0.0"
     inkscape:pageshadow="2"
     inkscape:zoom="3.58"
     inkscape:cx="98.186725"
     inkscape:cy="29.956871"
     inkscape:document-units="px"
     inkscape:current-layer="layer1"
     showgrid="false"
     units="px"
     inkscape:pagecheckerboard="true"
     inkscape:window-width="1366"
     inkscape:window-height="706"
     inkscape:window-x="-8"
     inkscape:window-y="-8"
     inkscape:window-maximized="1" />
  <metadata
     id="metadata5">
    <rdf:RDF>
      <cc:Work
         rdf:about="">
        <dc:format>image/svg+xml</dc:format>
        <dc:type
           rdf:resource="http://purl.org/dc/dcmitype/StillImage" />
        <dc:title></dc:title>
      </cc:Work>
    </rdf:RDF>
  </metadata>
  <g
     inkscape:label="Layer 1"
     inkscape:groupmode="layer"
     id="layer1"
     transform="translate(-3.0308227,-263.0801)">
    <path
       style="fill:#d9534f;fill-opacity:1;stroke:none;stroke-width:0.75436455"
       d="M 4.0410156 0 C 1.8031069 0 0 1.8011525 0 4.0390625 L 0 38.529297 L 65.808594 38.529297 L 65.808594 4.0390625 C 65.808594 1.8011525 64.007441 0 61.769531 0 L 4.0410156 0 z M 17.447266 3.6464844 C 21.176053 3.6464854 24.014197 4.3504705 25.964844 5.7578125 C 27.92876 7.1517505 29.097198 9.3756981 29.46875 12.431641 L 20.96875 12.933594 C 20.743165 11.606672 20.266938 10.642208 19.537109 10.039062 C 18.820544 9.4359165 17.824673 9.1347656 16.550781 9.1347656 C 15.502475 9.1347656 14.712429 9.3626484 14.181641 9.8183594 C 13.650853 10.260662 13.386719 10.80391 13.386719 11.447266 C 13.386719 11.91638 13.605069 12.3376 14.042969 12.712891 C 14.467599 13.101585 15.475994 13.463747 17.068359 13.798828 C 21.009457 14.656637 23.828822 15.527494 25.527344 16.412109 C 27.239136 17.283316 28.480357 18.369806 29.25 19.669922 C 30.032913 20.970038 30.423828 22.42286 30.423828 24.03125 C 30.423828 25.921109 29.906131 27.664778 28.871094 29.259766 C 27.836057 30.854753 26.390962 32.067436 24.533203 32.898438 C 22.675444 33.716033 20.332302 34.125 17.505859 34.125 C 12.542989 34.125 9.1061495 33.160538 7.1953125 31.230469 C 5.2844745 29.3004 4.2032959 26.846616 3.9511719 23.871094 L 12.529297 23.328125 C 12.715073 24.735467 13.093467 25.807743 13.664062 26.544922 C 14.592941 27.737812 15.91947 28.333984 17.644531 28.333984 C 18.931693 28.333984 19.921304 28.032831 20.611328 27.429688 C 21.314623 26.813138 21.666016 26.103024 21.666016 25.298828 C 21.666016 24.534843 21.33536 23.851193 20.671875 23.248047 C 20.00839 22.644901 18.467821 22.075192 16.052734 21.539062 C 12.098366 20.641047 9.279003 19.448696 7.59375 17.960938 C 5.895228 16.473176 5.046875 14.576844 5.046875 12.271484 C 5.046875 10.756921 5.4773128 9.3286072 6.3398438 7.9882812 C 7.2156435 6.6345535 8.5233864 5.576486 10.261719 4.8125 C 12.01332 4.035111 14.408503 3.6464854 17.447266 3.6464844 z M 44.21875 4.1484375 L 44.21875 12.271484 L 48.675781 12.271484 L 48.675781 18.242188 L 44.21875 18.242188 L 44.21875 25.822266 C 44.21875 26.733687 44.304062 27.335987 44.476562 27.630859 C 44.741956 28.086565 45.207609 28.314453 45.871094 28.314453 C 46.468231 28.314453 47.30406 28.1395 48.378906 27.791016 L 48.974609 33.441406 C 46.970883 33.883714 45.09966 34.105469 43.361328 34.105469 C 41.344333 34.105469 39.859716 33.843039 38.904297 33.320312 C 37.948878 32.797588 37.237874 32.008076 36.773438 30.949219 C 36.322268 29.876959 36.097656 28.147498 36.097656 25.761719 L 36.097656 18.242188 L 33.111328 18.242188 L 33.111328 12.271484 L 36.097656 12.271484 L 36.097656 8.3496094 L 44.21875 4.1484375 z M 50.974609 27.017578 L 59.355469 27.017578 L 59.355469 33.441406 L 50.974609 33.441406 L 50.974609 27.017578 z M 0 41.294922 L 0 71.361328 L 0 71.769531 L 0.041015625 71.769531 C 0.24730634 73.811392 1.9429762 75.400391 4.0410156 75.400391 L 61.769531 75.400391 C 63.867572 75.400391 65.561502 73.811392 65.767578 71.769531 L 65.921875 71.769531 L 65.921875 41.294922 L 65.808594 41.294922 L 0 41.294922 z M 52.736328 44.785156 C 54.687717 44.785156 56.17448 45.14974 57.195312 45.878906 C 58.22309 46.601128 58.834852 47.754557 59.029297 49.337891 L 54.580078 49.597656 C 54.462023 48.910156 54.212023 48.410156 53.830078 48.097656 C 53.455078 47.785156 52.934245 47.628906 52.267578 47.628906 C 51.718967 47.628906 51.307075 47.746311 51.029297 47.982422 C 50.751519 48.211589 50.611328 48.492839 50.611328 48.826172 C 50.611328 49.069227 50.725911 49.287977 50.955078 49.482422 C 51.1773 49.683811 51.70573 49.871311 52.539062 50.044922 C 54.601562 50.489366 56.077908 50.942057 56.966797 51.400391 C 57.86263 51.85178 58.511286 52.41428 58.914062 53.087891 C 59.323785 53.761502 59.529297 54.514323 59.529297 55.347656 C 59.529297 56.326823 59.258464 57.230252 58.716797 58.056641 C 58.17513 58.88303 57.417535 59.510851 56.445312 59.941406 C 55.473091 60.365017 54.246745 60.576172 52.767578 60.576172 C 50.170356 60.576172 48.373047 60.076172 47.373047 59.076172 C 46.373047 58.076172 45.805773 56.805339 45.673828 55.263672 L 50.164062 54.982422 C 50.261285 55.711589 50.459202 56.268446 50.757812 56.650391 C 51.243924 57.268446 51.939019 57.576172 52.841797 57.576172 C 53.515408 57.576172 54.031467 57.419922 54.392578 57.107422 C 54.760634 56.787977 54.945312 56.420573 54.945312 56.003906 C 54.945312 55.608073 54.77105 55.253906 54.423828 54.941406 C 54.076606 54.628906 53.271701 54.334418 52.007812 54.056641 C 49.938369 53.591363 48.462023 52.972005 47.580078 52.201172 C 46.691189 51.430339 46.248047 50.448351 46.248047 49.253906 C 46.248047 48.469184 46.472439 47.729601 46.923828 47.035156 C 47.382161 46.333767 48.066841 45.784505 48.976562 45.388672 C 49.893229 44.985894 51.14605 44.785156 52.736328 44.785156 z M 6.3925781 45.044922 L 11.123047 45.044922 L 11.123047 60.316406 L 6.3925781 60.316406 L 6.3925781 45.044922 z M 12.986328 45.044922 L 17.923828 45.044922 L 21.361328 56.035156 L 24.748047 45.044922 L 29.539062 45.044922 L 23.873047 60.316406 L 18.757812 60.316406 L 12.986328 45.044922 z M 31.070312 45.044922 L 43.716797 45.044922 L 43.716797 48.306641 L 35.798828 48.306641 L 35.798828 50.732422 L 43.142578 50.732422 L 43.142578 53.847656 L 35.798828 53.847656 L 35.798828 56.857422 L 43.945312 56.857422 L 43.945312 60.316406 L 31.070312 60.316406 L 31.070312 45.044922 z M 21.367188 62.78125 C 22.09434 62.78125 22.653498 63.088903 23.046875 63.705078 C 23.440252 64.318125 23.636719 65.177918 23.636719 66.285156 C 23.636719 67.088999 23.551754 67.749539 23.378906 68.265625 C 23.208045 68.778583 22.95864 69.17904 22.632812 69.466797 C 22.308971 69.751426 21.90469 69.894531 21.419922 69.894531 C 20.927207 69.894531 20.519154 69.770533 20.195312 69.523438 C 19.873458 69.276342 19.612772 68.884462 19.412109 68.349609 C 19.211447 67.814757 19.111328 67.14564 19.111328 66.341797 C 19.111328 65.218919 19.30968 64.344309 19.707031 63.71875 C 20.104382 63.093191 20.657916 62.78125 21.367188 62.78125 z M 26.457031 62.78125 C 27.184184 62.78125 27.743341 63.088903 28.136719 63.705078 C 28.530096 64.318125 28.728516 65.177918 28.728516 66.285156 C 28.728516 67.088999 28.641598 67.749539 28.46875 68.265625 C 28.297889 68.778583 28.048484 69.17904 27.722656 69.466797 C 27.398815 69.751426 26.994534 69.894531 26.509766 69.894531 C 26.01705 69.894531 25.608997 69.770533 25.285156 69.523438 C 24.963302 69.276342 24.702615 68.884462 24.501953 68.349609 C 24.301291 67.814757 24.201172 67.14564 24.201172 66.341797 C 24.201172 65.218919 24.399524 64.344309 24.796875 63.71875 C 25.194226 63.093191 25.74776 62.78125 26.457031 62.78125 z M 10.462891 62.898438 L 12.990234 62.898438 C 13.411426 62.898437 13.734481 63.062207 13.958984 63.390625 C 14.185474 63.719043 14.298828 64.12652 14.298828 64.611328 C 14.298828 65.017941 14.217568 65.365365 14.056641 65.65625 C 13.949356 65.850173 13.79256 66.004587 13.585938 66.117188 C 13.899845 66.236044 14.130324 66.441537 14.277344 66.732422 C 14.42635 67.020179 14.5 67.382422 14.5 67.820312 C 14.5 68.176881 14.447095 68.496621 14.341797 68.78125 C 14.236499 69.065879 14.092938 69.291258 13.910156 69.457031 C 13.796911 69.560248 13.626914 69.634724 13.398438 69.681641 C 13.094464 69.744196 12.892306 69.777344 12.792969 69.777344 L 10.462891 69.777344 L 10.462891 62.898438 z M 15.203125 62.898438 L 16.554688 62.898438 L 16.554688 68.082031 L 18.660156 68.082031 L 18.660156 69.777344 L 15.203125 69.777344 L 15.203125 62.898438 z M 29.478516 62.898438 L 31.484375 62.898438 C 31.879739 62.898437 32.199022 62.983443 32.441406 63.152344 C 32.685777 63.321245 32.885981 63.562999 33.044922 63.878906 C 33.203862 64.194813 33.319102 64.563298 33.390625 64.982422 C 33.462148 65.401546 33.498047 65.845284 33.498047 66.314453 C 33.498047 67.049484 33.445175 67.620731 33.337891 68.027344 C 33.232593 68.430829 33.085226 68.769676 32.896484 69.044922 C 32.707743 69.31704 32.505619 69.497185 32.289062 69.587891 C 31.993036 69.713002 31.724772 69.777344 31.484375 69.777344 L 29.478516 69.777344 L 29.478516 62.898438 z M 36.246094 62.898438 L 38.773438 62.898438 C 39.19463 62.898437 39.517684 63.062207 39.742188 63.390625 C 39.968678 63.719043 40.082031 64.12652 40.082031 64.611328 C 40.082031 65.017941 40.000771 65.365365 39.839844 65.65625 C 39.732559 65.850173 39.575763 66.004587 39.369141 66.117188 C 39.683048 66.236044 39.913527 66.441537 40.060547 66.732422 C 40.209553 67.020179 40.285156 67.382422 40.285156 67.820312 C 40.285156 68.176881 40.232251 68.496621 40.126953 68.78125 C 40.021655 69.065879 39.878094 69.291258 39.695312 69.457031 C 39.582067 69.560248 39.410117 69.634724 39.181641 69.681641 C 38.877667 69.744196 38.67551 69.777344 38.576172 69.777344 L 36.246094 69.777344 L 36.246094 62.898438 z M 42.189453 62.898438 L 43.660156 62.898438 L 45.302734 69.777344 L 43.890625 69.777344 L 43.675781 68.640625 L 42.138672 68.640625 L 41.925781 69.777344 L 40.546875 69.777344 L 42.189453 62.898438 z M 45.742188 62.898438 L 47.001953 62.898438 L 48.646484 66.703125 L 48.646484 62.898438 L 49.919922 62.898438 L 49.919922 69.777344 L 48.646484 69.777344 L 47.011719 66 L 47.011719 69.777344 L 45.742188 69.777344 L 45.742188 62.898438 z M 50.828125 62.898438 L 52.177734 62.898438 L 52.177734 65.498047 L 53.59375 62.898438 L 55.388672 62.898438 L 53.796875 65.492188 L 55.458984 69.777344 L 53.796875 69.777344 L 52.875 66.947266 L 52.177734 68.097656 L 52.177734 69.777344 L 50.828125 69.777344 L 50.828125 62.898438 z M 11.824219 64.291016 L 11.824219 65.595703 L 12.412109 65.595703 C 12.622705 65.595703 12.768152 65.540335 12.849609 65.427734 C 12.933053 65.312006 12.974609 65.145505 12.974609 64.929688 C 12.974609 64.729509 12.933053 64.573538 12.849609 64.460938 C 12.768152 64.348337 12.624558 64.291016 12.419922 64.291016 L 11.824219 64.291016 z M 37.609375 64.291016 L 37.609375 65.595703 L 38.195312 65.595703 C 38.405909 65.595703 38.551356 65.540335 38.632812 65.427734 C 38.716256 65.312006 38.757813 65.145505 38.757812 64.929688 C 38.757813 64.729509 38.716256 64.573538 38.632812 64.460938 C 38.551356 64.348337 38.409714 64.291016 38.205078 64.291016 L 37.609375 64.291016 z M 21.363281 64.390625 C 21.091096 64.390625 20.873885 64.542307 20.708984 64.845703 C 20.544084 65.149099 20.460938 65.650937 20.460938 66.351562 C 20.460938 67.045932 20.542164 67.54426 20.705078 67.847656 C 20.869979 68.151052 21.092881 68.302734 21.375 68.302734 C 21.665066 68.302734 21.889888 68.154562 22.048828 67.857422 C 22.207769 67.560282 22.287109 67.027249 22.287109 66.257812 C 22.287109 65.610359 22.203997 65.136984 22.037109 64.839844 C 21.872209 64.539576 21.647387 64.390625 21.363281 64.390625 z M 26.453125 64.390625 C 26.18094 64.390625 25.963729 64.542307 25.798828 64.845703 C 25.633927 65.149099 25.550781 65.650937 25.550781 66.351562 C 25.550781 67.045932 25.632008 67.54426 25.794922 67.847656 C 25.959823 68.151052 26.182725 68.302734 26.464844 68.302734 C 26.75491 68.302734 26.979731 68.154562 27.138672 67.857422 C 27.297612 67.560282 27.376953 67.027249 27.376953 66.257812 C 27.376953 65.610359 27.293841 65.136984 27.126953 64.839844 C 26.962052 64.539576 26.737231 64.390625 26.453125 64.390625 z M 30.828125 64.455078 L 30.828125 68.214844 L 31.160156 68.214844 C 31.442275 68.214844 31.642513 68.165321 31.761719 68.068359 C 31.880924 67.96827 31.973466 67.796702 32.041016 67.552734 C 32.108565 67.305639 32.142578 66.90596 32.142578 66.355469 C 32.142578 65.626693 32.067009 65.128365 31.916016 64.859375 C 31.765022 64.590385 31.515684 64.455078 31.166016 64.455078 L 30.828125 64.455078 z M 42.910156 64.681641 L 42.429688 67.154297 L 43.392578 67.154297 L 42.910156 64.681641 z M 11.824219 66.904297 L 11.824219 68.298828 L 12.513672 68.298828 C 12.746122 68.298828 12.908542 68.233708 13.003906 68.105469 C 13.09927 67.974101 13.148438 67.799024 13.148438 67.580078 C 13.148438 67.376772 13.09927 67.213781 13.003906 67.091797 C 12.910529 66.966685 12.746189 66.904297 12.509766 66.904297 L 11.824219 66.904297 z M 37.609375 66.904297 L 37.609375 68.298828 L 38.296875 68.298828 C 38.529325 68.298828 38.693698 68.233708 38.789062 68.105469 C 38.884427 67.974101 38.931641 67.799024 38.931641 67.580078 C 38.931641 67.376772 38.884427 67.213781 38.789062 67.091797 C 38.695685 66.966685 38.529393 66.904297 38.292969 66.904297 L 37.609375 66.904297 z "
       transform="matrix(0.26458333,0,0,0.26458333,3.0308227,263.0801)"
       id="rect3713" />
    <text
       xml:space="preserve"
       style="font-style:normal;font-weight:normal;font-size:10.58333302px;line-height:1.25;font-family:sans-serif;letter-spacing:0px;word-spacing:0px;fill:#000000;fill-opacity:1;stroke:none;stroke-width:0.26458332"
       x="-6.6498957"
       y="277.75616"
       id="text4598"><tspan
         sodipodi:role="line"
         id="tspan4596"
         x="-6.6498957"
         y="287.41165"
         style="stroke-width:0.26458332" /></text>
  </g>
</svg>
