<?xml version="1.0" encoding="UTF-8" standalone="no"?>
<svg
   xmlns:dc="http://purl.org/dc/elements/1.1/"
   xmlns:cc="http://creativecommons.org/ns#"
   xmlns:rdf="http://www.w3.org/1999/02/22-rdf-syntax-ns#"
   xmlns:svg="http://www.w3.org/2000/svg"
   xmlns="http://www.w3.org/2000/svg"
   id="svg8"
   version="1.1"
   viewBox="0 0 17.411857 19.949687"
   height="75.400391"
   width="65.808594">
  <defs
     id="defs2" />
  <metadata
     id="metadata5">
    <rdf:RDF>
      <cc:Work
         rdf:about="">
        <dc:format>image/svg+xml</dc:format>
        <dc:type
           rdf:resource="http://purl.org/dc/dcmitype/StillImage" />
        <dc:title></dc:title>
      </cc:Work>
    </rdf:RDF>
  </metadata>
  <g
     transform="translate(-3.0308227,-263.0801)"
     id="layer1">
    <path
       id="rect3713"
       transform="matrix(0.26458333,0,0,0.26458333,3.0308227,263.0801)"
       d="M 3.984375 0 C 1.7464661 0 -0.056640625 1.8011287 -0.056640625 4.0390625 L -0.056640625 38.529297 L 65.751953 38.529297 L 65.751953 4.0390625 C 65.751953 1.8011287 63.950802 0 61.712891 0 L 3.984375 0 z M 17.390625 3.6464844 C 21.119412 3.6464844 23.957556 4.3504676 25.908203 5.7578125 C 27.872119 7.1517401 29.040555 9.3757036 29.412109 12.431641 L 20.912109 12.933594 C 20.686524 11.606677 20.210298 10.6422 19.480469 10.039062 C 18.763904 9.4359255 17.768033 9.1347656 16.494141 9.1347656 C 15.445835 9.1347656 14.655788 9.3626995 14.125 9.8183594 C 13.594212 10.260677 13.330078 10.803877 13.330078 11.447266 C 13.330078 11.916381 13.548429 12.337584 13.986328 12.712891 C 14.410958 13.101577 15.419354 13.463735 17.011719 13.798828 C 20.952817 14.65663 23.772181 15.527511 25.470703 16.412109 C 27.182495 17.283328 28.423715 18.369802 29.193359 19.669922 C 29.976273 20.970042 30.367187 22.422834 30.367188 24.03125 C 30.367188 25.921089 29.849488 27.664767 28.814453 29.259766 C 27.779414 30.854726 26.334322 32.067433 24.476562 32.898438 C 22.618804 33.716025 20.275662 34.125 17.449219 34.125 C 12.486349 34.125 9.0495088 33.16056 7.1386719 31.230469 C 5.2278338 29.300415 4.1466552 26.84664 3.8945312 23.871094 L 12.472656 23.328125 C 12.658431 24.73547 13.036828 25.807763 13.607422 26.544922 C 14.536301 27.737816 15.86283 28.333984 17.587891 28.333984 C 18.875053 28.333984 19.864663 28.032749 20.554688 27.429688 C 21.257982 26.813133 21.609375 26.103036 21.609375 25.298828 C 21.609375 24.534834 21.27872 23.851184 20.615234 23.248047 C 19.951749 22.644872 18.411181 22.075188 15.996094 21.539062 C 12.041726 20.641047 9.2223622 19.448711 7.5371094 17.960938 C 5.8385871 16.473202 4.9902344 14.576845 4.9902344 12.271484 C 4.9902344 10.756914 5.4206719 9.3285773 6.2832031 7.9882812 C 7.1590024 6.6345301 8.4667453 5.5764937 10.205078 4.8125 C 11.956679 4.035089 14.351862 3.6464844 17.390625 3.6464844 z M 44.162109 4.1484375 L 44.162109 12.271484 L 48.619141 12.271484 L 48.619141 18.242188 L 44.162109 18.242188 L 44.162109 25.822266 C 44.162109 26.733699 44.247424 27.336018 44.419922 27.630859 C 44.68532 28.086595 45.150968 28.314453 45.814453 28.314453 C 46.411592 28.314453 47.247417 28.13945 48.322266 27.791016 L 48.917969 33.441406 C 46.914241 33.883724 45.043021 34.105469 43.304688 34.105469 C 41.287693 34.105469 39.803075 33.843172 38.847656 33.320312 C 37.892237 32.797604 37.181233 32.008053 36.716797 30.949219 C 36.265627 29.876967 36.041016 28.147508 36.041016 25.761719 L 36.041016 18.242188 L 33.054688 18.242188 L 33.054688 12.271484 L 36.041016 12.271484 L 36.041016 8.3496094 L 44.162109 4.1484375 z M 50.917969 27.017578 L 59.298828 27.017578 L 59.298828 33.441406 L 50.917969 33.441406 L 50.917969 27.017578 z M -0.056640625 41.294922 L -0.056640625 71.361328 L -0.056640625 71.769531 L -0.015625 71.769531 C 0.19066539 73.811383 1.8863355 75.400391 3.984375 75.400391 L 61.712891 75.400391 C 63.810933 75.400391 65.504863 73.811383 65.710938 71.769531 L 65.865234 71.769531 L 65.865234 41.294922 L 65.751953 41.294922 L -0.056640625 41.294922 z M 52.679688 44.785156 C 54.631076 44.785156 56.11784 45.149911 57.138672 45.878906 C 58.16645 46.601136 58.778211 47.754571 58.972656 49.337891 L 54.523438 49.597656 C 54.405403 48.91016 54.155385 48.410148 53.773438 48.097656 C 53.398433 47.785089 52.877605 47.628906 52.210938 47.628906 C 51.662324 47.628906 51.250433 47.746579 50.972656 47.982422 C 50.694899 48.211461 50.554687 48.492855 50.554688 48.826172 C 50.554688 49.069195 50.669285 49.288003 50.898438 49.482422 C 51.120674 49.683871 51.649089 49.871328 52.482422 50.044922 C 54.544921 50.489357 56.021264 50.942047 56.910156 51.400391 C 57.805987 51.85178 58.454649 52.414265 58.857422 53.087891 C 59.267145 53.761516 59.472656 54.514308 59.472656 55.347656 C 59.472656 56.326818 59.201815 57.230247 58.660156 58.056641 C 58.118489 58.883034 57.360895 59.510842 56.388672 59.941406 C 56.026291 60.099391 55.616535 60.217383 55.183594 60.316406 L 49.914062 60.316406 C 48.775132 60.074139 47.904085 59.663851 47.316406 59.076172 C 46.316408 58.076184 45.749135 56.805341 45.617188 55.263672 L 50.107422 54.982422 C 50.204631 55.711606 50.402563 56.268432 50.701172 56.650391 C 51.187283 57.268457 51.882378 57.576172 52.785156 57.576172 C 53.45877 57.576172 53.974826 57.419724 54.335938 57.107422 C 54.703988 56.788052 54.888676 56.420561 54.888672 56.003906 C 54.888672 55.608076 54.714398 55.253898 54.367188 54.941406 C 54.019962 54.628839 53.215061 54.334398 51.951172 54.056641 C 49.881729 53.591343 48.405383 52.972007 47.523438 52.201172 C 46.634549 51.430337 46.191406 50.44835 46.191406 49.253906 C 46.191406 48.469201 46.415799 47.729607 46.867188 47.035156 C 47.325523 46.333752 48.010201 45.784502 48.919922 45.388672 C 49.836586 44.985888 51.08941 44.785156 52.679688 44.785156 z M 6.3359375 45.044922 L 11.066406 45.044922 L 11.066406 60.316406 L 6.3359375 60.316406 L 6.3359375 45.044922 z M 12.929688 45.044922 L 17.867188 45.044922 L 21.304688 56.035156 L 24.691406 45.044922 L 29.482422 45.044922 L 23.816406 60.316406 L 18.701172 60.316406 L 12.929688 45.044922 z M 31.013672 45.044922 L 43.660156 45.044922 L 43.660156 48.306641 L 35.742188 48.306641 L 35.742188 50.732422 L 43.085938 50.732422 L 43.085938 53.847656 L 35.742188 53.847656 L 35.742188 56.857422 L 43.888672 56.857422 L 43.888672 60.316406 L 31.013672 60.316406 L 31.013672 45.044922 z M 12.595703 62.480469 C 13.52136 62.480469 14.23361 62.906835 14.734375 63.759766 C 15.23514 64.608367 15.486328 65.799354 15.486328 67.332031 C 15.486328 68.444738 15.376283 69.357882 15.15625 70.072266 C 14.938746 70.78232 14.621807 71.336052 14.207031 71.734375 C 13.794785 72.128368 13.281167 72.326172 12.664062 72.326172 C 12.036841 72.326172 11.515762 72.154538 11.103516 71.8125 C 10.693799 71.470462 10.36091 70.929814 10.105469 70.189453 C 9.8500279 69.449092 9.7226562 68.52091 9.7226562 67.408203 C 9.7226562 65.853877 9.9765983 64.645216 10.482422 63.779297 C 10.988245 62.913377 11.692808 62.480469 12.595703 62.480469 z M 51.896484 62.480469 C 52.822141 62.480469 53.536344 62.906835 54.037109 63.759766 C 54.537875 64.608367 54.789063 65.799354 54.789062 67.332031 C 54.789062 68.444738 54.679018 69.357882 54.458984 70.072266 C 54.24148 70.78232 53.924541 71.336052 53.509766 71.734375 C 53.097519 72.128368 52.581948 72.326172 51.964844 72.326172 C 51.337623 72.326172 50.818496 72.154538 50.40625 71.8125 C 49.996533 71.470462 49.663644 70.929814 49.408203 70.189453 C 49.152762 69.449092 49.025391 68.52091 49.025391 67.408203 C 49.025391 65.853877 49.279333 64.645216 49.785156 63.779297 C 50.29098 62.913377 50.993589 62.480469 51.896484 62.480469 z M 4.7578125 62.642578 L 9.0058594 62.642578 L 9.0058594 64.6875 L 6.4824219 64.6875 L 6.4824219 66.349609 L 8.6386719 66.349609 L 8.6386719 68.273438 L 6.4824219 68.273438 L 6.4824219 72.162109 L 4.7578125 72.162109 L 4.7578125 62.642578 z M 16.421875 62.642578 L 18.136719 62.642578 L 18.136719 68.455078 C 18.136719 68.97463 18.22175 69.381369 18.388672 69.675781 C 18.558123 69.965864 18.791408 70.111328 19.089844 70.111328 C 19.385751 70.111328 19.616281 69.967394 19.783203 69.681641 C 19.952654 69.391558 20.037109 68.983289 20.037109 68.455078 L 20.037109 62.642578 L 21.751953 62.642578 L 21.751953 68.318359 C 21.751953 68.881207 21.70135 69.413782 21.597656 69.916016 C 21.496492 70.413919 21.335268 70.851841 21.115234 71.228516 C 20.89773 71.600861 20.669954 71.862136 20.429688 72.013672 C 20.095844 72.225822 19.694449 72.332031 19.226562 72.332031 C 18.955947 72.332031 18.659089 72.299319 18.337891 72.234375 C 18.019222 72.169431 17.752084 72.042065 17.537109 71.851562 C 17.322134 71.656731 17.12488 71.382371 16.945312 71.027344 C 16.768274 70.672317 16.647788 70.306363 16.582031 69.929688 C 16.475808 69.323544 16.421875 68.785956 16.421875 68.318359 L 16.421875 62.642578 z M 22.910156 62.642578 L 24.513672 62.642578 L 26.609375 67.908203 L 26.609375 62.642578 L 28.228516 62.642578 L 28.228516 72.162109 L 26.609375 72.162109 L 24.525391 66.935547 L 24.525391 72.162109 L 22.910156 72.162109 L 22.910156 62.642578 z M 29.400391 62.642578 L 31.953125 62.642578 C 32.456419 62.642578 32.863323 62.758389 33.171875 62.992188 C 33.482956 63.225986 33.739077 63.562711 33.941406 64 C 34.143736 64.437289 34.291764 64.945224 34.382812 65.525391 C 34.473861 66.105557 34.517578 66.719701 34.517578 67.369141 C 34.517578 68.386596 34.451025 69.177387 34.314453 69.740234 C 34.18041 70.298753 33.992219 70.769386 33.751953 71.150391 C 33.511687 71.527066 33.254189 71.776785 32.978516 71.902344 C 32.601677 72.075528 32.259148 72.162109 31.953125 72.162109 L 29.400391 72.162109 L 29.400391 62.642578 z M 36.613281 62.642578 L 38.486328 62.642578 L 40.576172 72.162109 L 38.779297 72.162109 L 38.505859 70.591797 L 36.548828 70.591797 L 36.279297 72.162109 L 34.521484 72.162109 L 36.613281 62.642578 z M 40.208984 62.642578 L 45.433594 62.642578 L 45.433594 64.992188 L 43.679688 64.992188 L 43.679688 72.162109 L 41.960938 72.162109 L 41.960938 64.992188 L 40.208984 64.992188 L 40.208984 62.642578 z M 46.291016 62.642578 L 48.011719 62.642578 L 48.011719 72.162109 L 46.291016 72.162109 L 46.291016 62.642578 z M 55.732422 62.642578 L 57.337891 62.642578 L 59.431641 67.908203 L 59.431641 62.642578 L 61.050781 62.642578 L 61.050781 72.162109 L 59.431641 72.162109 L 57.349609 66.935547 L 57.349609 72.162109 L 55.732422 72.162109 L 55.732422 62.642578 z M 12.591797 64.707031 C 12.245308 64.707031 11.965776 64.91792 11.755859 65.337891 C 11.545943 65.757862 11.441406 66.452045 11.441406 67.421875 C 11.441406 68.383046 11.544565 69.07417 11.751953 69.494141 C 11.96187 69.914112 12.246334 70.123047 12.605469 70.123047 C 12.97472 70.123047 13.260561 69.917171 13.462891 69.505859 C 13.66522 69.094548 13.767578 68.35805 13.767578 67.292969 C 13.767578 66.396742 13.661665 65.74139 13.449219 65.330078 C 13.239302 64.914437 12.953461 64.707031 12.591797 64.707031 z M 51.892578 64.707031 C 51.546089 64.707031 51.268511 64.91792 51.058594 65.337891 C 50.848677 65.757862 50.744141 66.452045 50.744141 67.421875 C 50.744141 68.383046 50.8473 69.07417 51.054688 69.494141 C 51.264604 69.914112 51.549068 70.123047 51.908203 70.123047 C 52.277454 70.123047 52.563296 69.917171 52.765625 69.505859 C 52.967954 69.094548 53.070312 68.35805 53.070312 67.292969 C 53.070312 66.396742 52.962446 65.74139 52.75 65.330078 C 52.540083 64.914437 52.254242 64.707031 51.892578 64.707031 z M 31.119141 64.798828 L 31.119141 70 L 31.541016 70 C 31.90015 70 32.154894 69.933046 32.306641 69.798828 C 32.458388 69.660281 32.578072 69.421693 32.664062 69.083984 C 32.750053 68.741946 32.792969 68.189744 32.792969 67.427734 C 32.792969 66.418938 32.696119 65.729767 32.503906 65.357422 C 32.311693 64.985076 31.993953 64.798828 31.548828 64.798828 L 31.119141 64.798828 z M 37.53125 65.109375 L 36.919922 68.533203 L 38.144531 68.533203 L 37.53125 65.109375 z "
       style="fill:#d9534f;fill-opacity:1;stroke:none;stroke-width:0.75436449" />
    <text
       id="text4598"
       y="277.75616"
       x="-6.6498957"
       style="font-style:normal;font-weight:normal;font-size:10.58333302px;line-height:1.25;font-family:sans-serif;letter-spacing:0px;word-spacing:0px;fill:#000000;fill-opacity:1;stroke:none;stroke-width:0.26458332"
       xml:space="preserve"><tspan
         style="stroke-width:0.26458332"
         y="287.41165"
         x="-6.6498957"
         id="tspan4596" /></text>
    <text
       id="text820"
       y="267.56583"
       x="25.302071"
       style="font-style:normal;font-weight:normal;font-size:22.57777789px;line-height:1.25;font-family:sans-serif;letter-spacing:0px;word-spacing:0px;fill:#000000;fill-opacity:1;stroke:none;stroke-width:0.26458332;"
       xml:space="preserve"><tspan
         style="stroke-width:0.26458332;font-size:22.57777789px;"
         y="312.51193"
         x="25.302071"
         id="tspan818" /></text>
  </g>
</svg>
