<?xml version="1.0" encoding="UTF-8" standalone="no"?>
<svg
   xmlns:dc="http://purl.org/dc/elements/1.1/"
   xmlns:cc="http://creativecommons.org/ns#"
   xmlns:rdf="http://www.w3.org/1999/02/22-rdf-syntax-ns#"
   xmlns:svg="http://www.w3.org/2000/svg"
   xmlns="http://www.w3.org/2000/svg"
   id="svg8"
   version="1.1"
   viewBox="0 0 17.411857 19.949687"
   height="75.400391"
   width="65.808594">
  <defs
     id="defs2" />
  <metadata
     id="metadata5">
    <rdf:RDF>
      <cc:Work
         rdf:about="">
        <dc:format>image/svg+xml</dc:format>
        <dc:type
           rdf:resource="http://purl.org/dc/dcmitype/StillImage" />
        <dc:title></dc:title>
      </cc:Work>
    </rdf:RDF>
  </metadata>
  <g
     transform="translate(-3.0308227,-263.0801)"
     id="layer1">
    <path
       id="rect3713"
       transform="matrix(0.26458333,0,0,0.26458333,3.0308227,263.0801)"
       d="M 4.0410156 0 C 1.8031069 0 0 1.8011525 0 4.0390625 L 0 38.529297 L 65.808594 38.529297 L 65.808594 4.0390625 C 65.808594 1.8011525 64.007441 0 61.769531 0 L 4.0410156 0 z M 17.447266 3.6464844 C 21.176053 3.6464854 24.014197 4.3504705 25.964844 5.7578125 C 27.92876 7.1517505 29.097198 9.3756981 29.46875 12.431641 L 20.96875 12.933594 C 20.743165 11.606672 20.266938 10.642208 19.537109 10.039062 C 18.820544 9.4359165 17.824673 9.1347656 16.550781 9.1347656 C 15.502475 9.1347656 14.712429 9.3626484 14.181641 9.8183594 C 13.650853 10.260662 13.386719 10.80391 13.386719 11.447266 C 13.386719 11.91638 13.605069 12.3376 14.042969 12.712891 C 14.467599 13.101585 15.475994 13.463747 17.068359 13.798828 C 21.009457 14.656637 23.828822 15.527494 25.527344 16.412109 C 27.239136 17.283316 28.480357 18.369806 29.25 19.669922 C 30.032913 20.970038 30.423828 22.42286 30.423828 24.03125 C 30.423828 25.921109 29.906131 27.664778 28.871094 29.259766 C 27.836057 30.854753 26.390962 32.067436 24.533203 32.898438 C 22.675444 33.716033 20.332302 34.125 17.505859 34.125 C 12.542989 34.125 9.1061495 33.160538 7.1953125 31.230469 C 5.2844745 29.3004 4.2032959 26.846616 3.9511719 23.871094 L 12.529297 23.328125 C 12.715073 24.735467 13.093467 25.807743 13.664062 26.544922 C 14.592941 27.737812 15.91947 28.333984 17.644531 28.333984 C 18.931693 28.333984 19.921304 28.032831 20.611328 27.429688 C 21.314623 26.813138 21.666016 26.103024 21.666016 25.298828 C 21.666016 24.534843 21.33536 23.851193 20.671875 23.248047 C 20.00839 22.644901 18.467821 22.075192 16.052734 21.539062 C 12.098366 20.641047 9.279003 19.448696 7.59375 17.960938 C 5.895228 16.473176 5.046875 14.576844 5.046875 12.271484 C 5.046875 10.756921 5.4773128 9.3286072 6.3398438 7.9882812 C 7.2156435 6.6345535 8.5233864 5.576486 10.261719 4.8125 C 12.01332 4.035111 14.408503 3.6464854 17.447266 3.6464844 z M 44.21875 4.1484375 L 44.21875 12.271484 L 48.675781 12.271484 L 48.675781 18.242188 L 44.21875 18.242188 L 44.21875 25.822266 C 44.21875 26.733687 44.304062 27.335987 44.476562 27.630859 C 44.741956 28.086565 45.207609 28.314453 45.871094 28.314453 C 46.468231 28.314453 47.30406 28.1395 48.378906 27.791016 L 48.974609 33.441406 C 46.970883 33.883714 45.09966 34.105469 43.361328 34.105469 C 41.344333 34.105469 39.859716 33.843039 38.904297 33.320312 C 37.948878 32.797588 37.237874 32.008076 36.773438 30.949219 C 36.322268 29.876959 36.097656 28.147498 36.097656 25.761719 L 36.097656 18.242188 L 33.111328 18.242188 L 33.111328 12.271484 L 36.097656 12.271484 L 36.097656 8.3496094 L 44.21875 4.1484375 z M 50.974609 27.017578 L 59.355469 27.017578 L 59.355469 33.441406 L 50.974609 33.441406 L 50.974609 27.017578 z M 0 41.294922 L 0 71.361328 L 0 71.769531 L 0.041015625 71.769531 C 0.24730634 73.811392 1.9429762 75.400391 4.0410156 75.400391 L 61.769531 75.400391 C 63.867572 75.400391 65.561502 73.811392 65.767578 71.769531 L 65.921875 71.769531 L 65.921875 41.294922 L 65.808594 41.294922 L 0 41.294922 z M 52.736328 44.785156 C 54.687717 44.785156 56.17448 45.14974 57.195312 45.878906 C 58.22309 46.601128 58.834852 47.754557 59.029297 49.337891 L 54.580078 49.597656 C 54.462023 48.910156 54.212023 48.410156 53.830078 48.097656 C 53.455078 47.785156 52.934245 47.628906 52.267578 47.628906 C 51.718967 47.628906 51.307075 47.746311 51.029297 47.982422 C 50.751519 48.211589 50.611328 48.492839 50.611328 48.826172 C 50.611328 49.069227 50.725911 49.287977 50.955078 49.482422 C 51.1773 49.683811 51.70573 49.871311 52.539062 50.044922 C 54.601562 50.489366 56.077908 50.942057 56.966797 51.400391 C 57.86263 51.85178 58.511286 52.41428 58.914062 53.087891 C 59.323785 53.761502 59.529297 54.514323 59.529297 55.347656 C 59.529297 56.326823 59.258464 57.230252 58.716797 58.056641 C 58.17513 58.88303 57.417535 59.510851 56.445312 59.941406 C 55.473091 60.365017 54.246745 60.576172 52.767578 60.576172 C 50.170356 60.576172 48.373047 60.076172 47.373047 59.076172 C 46.373047 58.076172 45.805773 56.805339 45.673828 55.263672 L 50.164062 54.982422 C 50.261285 55.711589 50.459202 56.268446 50.757812 56.650391 C 51.243924 57.268446 51.939019 57.576172 52.841797 57.576172 C 53.515408 57.576172 54.031467 57.419922 54.392578 57.107422 C 54.760634 56.787977 54.945312 56.420573 54.945312 56.003906 C 54.945312 55.608073 54.77105 55.253906 54.423828 54.941406 C 54.076606 54.628906 53.271701 54.334418 52.007812 54.056641 C 49.938369 53.591363 48.462023 52.972005 47.580078 52.201172 C 46.691189 51.430339 46.248047 50.448351 46.248047 49.253906 C 46.248047 48.469184 46.472439 47.729601 46.923828 47.035156 C 47.382161 46.333767 48.066841 45.784505 48.976562 45.388672 C 49.893229 44.985894 51.14605 44.785156 52.736328 44.785156 z M 6.3925781 45.044922 L 11.123047 45.044922 L 11.123047 60.316406 L 6.3925781 60.316406 L 6.3925781 45.044922 z M 12.986328 45.044922 L 17.923828 45.044922 L 21.361328 56.035156 L 24.748047 45.044922 L 29.539062 45.044922 L 23.873047 60.316406 L 18.757812 60.316406 L 12.986328 45.044922 z M 31.070312 45.044922 L 43.716797 45.044922 L 43.716797 48.306641 L 35.798828 48.306641 L 35.798828 50.732422 L 43.142578 50.732422 L 43.142578 53.847656 L 35.798828 53.847656 L 35.798828 56.857422 L 43.945312 56.857422 L 43.945312 60.316406 L 31.070312 60.316406 L 31.070312 45.044922 z M 5.9609375 63.736328 L 9.2988281 63.736328 L 9.2988281 65.214844 L 7.3164062 65.214844 L 7.3164062 66.416016 L 9.0097656 66.416016 L 9.0097656 67.804688 L 7.3164062 67.804688 L 7.3164062 70.615234 L 5.9609375 70.615234 L 5.9609375 63.736328 z M 10.029297 63.736328 L 13.646484 63.736328 L 13.646484 65.205078 L 11.380859 65.205078 L 11.380859 66.298828 L 13.482422 66.298828 L 13.482422 67.701172 L 11.380859 67.701172 L 11.380859 69.056641 L 13.712891 69.056641 L 13.712891 70.615234 L 10.029297 70.615234 L 10.029297 63.736328 z M 14.460938 63.736328 L 16.710938 63.736328 C 17.128156 63.736328 17.445486 63.791696 17.666016 63.904297 C 17.886545 64.016897 18.066073 64.226679 18.201172 64.533203 C 18.336271 64.836599 18.402344 65.208593 18.402344 65.646484 C 18.402344 66.028075 18.351358 66.358345 18.248047 66.636719 C 18.144736 66.911964 18.00306 67.134612 17.822266 67.306641 C 17.707034 67.416113 17.548318 67.506186 17.347656 67.578125 C 17.508583 67.662575 17.625709 67.747581 17.699219 67.832031 C 17.748888 67.888332 17.820685 68.00882 17.914062 68.193359 C 18.009427 68.377899 18.073681 68.521004 18.105469 68.621094 L 18.757812 70.615234 L 17.232422 70.615234 L 16.509766 68.511719 C 16.418375 68.239601 16.337148 68.063744 16.265625 67.982422 C 16.168274 67.876077 16.058726 67.822266 15.935547 67.822266 L 15.816406 67.822266 L 15.816406 70.615234 L 14.460938 70.615234 L 14.460938 63.736328 z M 18.878906 63.736328 L 22.984375 63.736328 L 22.984375 65.435547 L 21.607422 65.435547 L 21.607422 70.615234 L 20.255859 70.615234 L 20.255859 65.435547 L 18.878906 65.435547 L 18.878906 63.736328 z M 23.650391 63.736328 L 25.003906 63.736328 L 25.003906 70.615234 L 23.650391 70.615234 L 23.650391 63.736328 z M 25.96875 63.736328 L 27.320312 63.736328 L 27.320312 68.919922 L 29.425781 68.919922 L 29.425781 70.615234 L 25.96875 70.615234 L 25.96875 63.736328 z M 30.099609 63.736328 L 31.453125 63.736328 L 31.453125 70.615234 L 30.099609 70.615234 L 30.099609 63.736328 z M 32.111328 63.736328 L 36.214844 63.736328 L 36.214844 65.435547 L 34.837891 65.435547 L 34.837891 70.615234 L 33.488281 70.615234 L 33.488281 65.435547 L 32.111328 65.435547 L 32.111328 63.736328 z M 36.388672 63.736328 L 37.886719 63.736328 L 38.769531 66.058594 L 39.650391 63.736328 L 41.140625 63.736328 L 39.443359 67.734375 L 39.443359 70.615234 L 38.089844 70.615234 L 38.089844 67.734375 L 36.388672 63.736328 z M 43.615234 63.736328 L 44.962891 63.736328 L 44.962891 67.935547 C 44.962891 68.310882 45.027077 68.605669 45.158203 68.818359 C 45.291316 69.027921 45.474547 69.130859 45.708984 69.130859 C 45.941435 69.130859 46.124734 69.0287 46.255859 68.822266 C 46.388972 68.612704 46.455078 68.317138 46.455078 67.935547 L 46.455078 63.736328 L 47.802734 63.736328 L 47.802734 67.835938 C 47.802734 68.242551 47.761144 68.62741 47.679688 68.990234 C 47.600217 69.349931 47.473629 69.667335 47.300781 69.939453 C 47.12992 70.208443 46.95046 70.396387 46.761719 70.505859 C 46.499467 70.659121 46.183956 70.736328 45.816406 70.736328 C 45.603823 70.736328 45.371458 70.712933 45.119141 70.666016 C 44.86881 70.619099 44.659109 70.526295 44.490234 70.388672 C 44.32136 70.247921 44.16645 70.049448 44.025391 69.792969 C 43.886318 69.53649 43.79189 69.272118 43.740234 69 C 43.656791 68.562109 43.615234 68.173739 43.615234 67.835938 L 43.615234 63.736328 z M 48.710938 63.736328 L 49.970703 63.736328 L 51.617188 67.541016 L 51.617188 63.736328 L 52.888672 63.736328 L 52.888672 70.615234 L 51.617188 70.615234 L 49.980469 66.837891 L 49.980469 70.615234 L 48.710938 70.615234 L 48.710938 63.736328 z M 53.845703 63.736328 L 55.199219 63.736328 L 55.199219 70.615234 L 53.845703 70.615234 L 53.845703 63.736328 z M 55.857422 63.736328 L 59.960938 63.736328 L 59.960938 65.435547 L 58.583984 65.435547 L 58.583984 70.615234 L 57.234375 70.615234 L 57.234375 65.435547 L 55.857422 65.435547 L 55.857422 63.736328 z M 15.816406 65.125 L 15.816406 66.523438 L 16.384766 66.523438 C 16.446355 66.523438 16.565366 66.492243 16.742188 66.429688 C 16.831591 66.401537 16.905308 66.328619 16.960938 66.212891 C 17.018553 66.097162 17.046875 65.964587 17.046875 65.814453 C 17.046875 65.59238 17.001513 65.42159 16.912109 65.302734 C 16.822705 65.183878 16.656514 65.125 16.410156 65.125 L 15.816406 65.125 z "
       style="fill:#d9534f;fill-opacity:1;stroke:none;stroke-width:0.75436455" />
    <text
       id="text4598"
       y="277.75616"
       x="-6.6498957"
       style="font-style:normal;font-weight:normal;font-size:10.58333302px;line-height:1.25;font-family:sans-serif;letter-spacing:0px;word-spacing:0px;fill:#000000;fill-opacity:1;stroke:none;stroke-width:0.26458332"
       xml:space="preserve"><tspan
         style="stroke-width:0.26458332"
         y="287.41165"
         x="-6.6498957"
         id="tspan4596" /></text>
  </g>
</svg>
