<?xml version="1.0" encoding="UTF-8" standalone="no"?>
<!-- Created with Inkscape (http://www.inkscape.org/) -->

<svg
   xmlns:dc="http://purl.org/dc/elements/1.1/"
   xmlns:cc="http://creativecommons.org/ns#"
   xmlns:rdf="http://www.w3.org/1999/02/22-rdf-syntax-ns#"
   xmlns:svg="http://www.w3.org/2000/svg"
   xmlns="http://www.w3.org/2000/svg"
   xmlns:sodipodi="http://sodipodi.sourceforge.net/DTD/sodipodi-0.dtd"
   xmlns:inkscape="http://www.inkscape.org/namespaces/inkscape"
   width="65.808594"
   height="75.400391"
   viewBox="0 0 17.411857 19.949687"
   version="1.1"
   id="svg8"
   sodipodi:docname="st_ives_pharmacy100.svg"
   inkscape:version="0.92.3 (2405546, 2018-03-11)">
  <defs
     id="defs2" />
  <sodipodi:namedview
     id="base"
     pagecolor="#ffffff"
     bordercolor="#666666"
     borderopacity="1.0"
     inkscape:pageopacity="0.0"
     inkscape:pageshadow="2"
     inkscape:zoom="6.7241031"
     inkscape:cx="28.867133"
     inkscape:cy="30.960628"
     inkscape:document-units="px"
     inkscape:current-layer="layer1"
     showgrid="false"
     units="px"
     inkscape:pagecheckerboard="true"
     inkscape:window-width="1280"
     inkscape:window-height="735"
     inkscape:window-x="0"
     inkscape:window-y="0"
     inkscape:window-maximized="1" />
  <metadata
     id="metadata5">
    <rdf:RDF>
      <cc:Work
         rdf:about="">
        <dc:format>image/svg+xml</dc:format>
        <dc:type
           rdf:resource="http://purl.org/dc/dcmitype/StillImage" />
        <dc:title></dc:title>
      </cc:Work>
    </rdf:RDF>
  </metadata>
  <g
     inkscape:label="Layer 1"
     inkscape:groupmode="layer"
     id="layer1"
     transform="translate(-3.0308227,-263.0801)">
    <path
       style="fill:#d9534f;fill-opacity:1;stroke:none;stroke-width:0.75436449"
       d="M 3.984375 0 C 1.7464661 0 -0.056640625 1.8011287 -0.056640625 4.0390625 L -0.056640625 38.529297 L 65.751953 38.529297 L 65.751953 4.0390625 C 65.751953 1.8011287 63.950802 0 61.712891 0 L 3.984375 0 z M 17.390625 3.6464844 C 21.119412 3.6464844 23.957556 4.3504676 25.908203 5.7578125 C 27.872117 7.1517401 29.040555 9.3757036 29.412109 12.431641 L 20.912109 12.933594 C 20.686524 11.606677 20.210298 10.6422 19.480469 10.039062 C 18.763904 9.4359255 17.768033 9.1347656 16.494141 9.1347656 C 15.445835 9.1347656 14.655788 9.3626995 14.125 9.8183594 C 13.594212 10.260677 13.330078 10.803877 13.330078 11.447266 C 13.330078 11.916381 13.548429 12.337584 13.986328 12.712891 C 14.410958 13.101577 15.419354 13.463735 17.011719 13.798828 C 20.952817 14.65663 23.772181 15.527511 25.470703 16.412109 C 27.182493 17.283328 28.423715 18.369802 29.193359 19.669922 C 29.976273 20.970042 30.367187 22.422834 30.367188 24.03125 C 30.367188 25.921089 29.849488 27.664767 28.814453 29.259766 C 27.779414 30.854726 26.334322 32.067433 24.476562 32.898438 C 22.618804 33.716025 20.275662 34.125 17.449219 34.125 C 12.486349 34.125 9.0495088 33.16056 7.1386719 31.230469 C 5.2278338 29.300415 4.1466552 26.84664 3.8945312 23.871094 L 12.472656 23.328125 C 12.658431 24.73547 13.036828 25.807763 13.607422 26.544922 C 14.536301 27.737816 15.86283 28.333984 17.587891 28.333984 C 18.875053 28.333984 19.864663 28.032749 20.554688 27.429688 C 21.257982 26.813133 21.609375 26.103036 21.609375 25.298828 C 21.609375 24.534834 21.27872 23.851184 20.615234 23.248047 C 19.951749 22.644872 18.411181 22.075188 15.996094 21.539062 C 12.041726 20.641047 9.2223622 19.448711 7.5371094 17.960938 C 5.8385871 16.473202 4.9902344 14.576845 4.9902344 12.271484 C 4.9902344 10.756914 5.4206719 9.3285773 6.2832031 7.9882812 C 7.1590024 6.6345301 8.4667453 5.5764937 10.205078 4.8125 C 11.956679 4.035089 14.351862 3.6464844 17.390625 3.6464844 z M 44.162109 4.1484375 L 44.162109 12.271484 L 48.619141 12.271484 L 48.619141 18.242188 L 44.162109 18.242188 L 44.162109 25.822266 C 44.162109 26.733699 44.247424 27.336018 44.419922 27.630859 C 44.68532 28.086595 45.150968 28.314453 45.814453 28.314453 C 46.411592 28.314453 47.247417 28.13945 48.322266 27.791016 L 48.917969 33.441406 C 46.914241 33.883724 45.043021 34.105469 43.304688 34.105469 C 41.287693 34.105469 39.803075 33.843172 38.847656 33.320312 C 37.892237 32.797604 37.181233 32.008053 36.716797 30.949219 C 36.265627 29.876967 36.041016 28.147508 36.041016 25.761719 L 36.041016 18.242188 L 33.054688 18.242188 L 33.054688 12.271484 L 36.041016 12.271484 L 36.041016 8.3496094 L 44.162109 4.1484375 z M 50.917969 27.017578 L 59.298828 27.017578 L 59.298828 33.441406 L 50.917969 33.441406 L 50.917969 27.017578 z M -0.056640625 41.294922 L -0.056640625 71.361328 L -0.056640625 71.769531 L -0.015625 71.769531 C 0.19066539 73.811383 1.8863355 75.400391 3.984375 75.400391 L 61.712891 75.400391 C 63.810933 75.400391 65.504863 73.811383 65.710938 71.769531 L 65.865234 71.769531 L 65.865234 41.294922 L 65.751953 41.294922 L -0.056640625 41.294922 z M 52.679688 44.785156 C 54.631076 44.785156 56.11784 45.149911 57.138672 45.878906 C 58.16645 46.601136 58.778211 47.754571 58.972656 49.337891 L 54.523438 49.597656 C 54.405403 48.91016 54.155385 48.410148 53.773438 48.097656 C 53.398433 47.785089 52.877605 47.628906 52.210938 47.628906 C 51.662324 47.628906 51.250433 47.746579 50.972656 47.982422 C 50.694899 48.211461 50.554688 48.492855 50.554688 48.826172 C 50.554688 49.069195 50.669285 49.288003 50.898438 49.482422 C 51.120674 49.683871 51.649089 49.871328 52.482422 50.044922 C 54.544921 50.489357 56.021264 50.942047 56.910156 51.400391 C 57.805987 51.85178 58.454649 52.414265 58.857422 53.087891 C 59.267145 53.761516 59.472656 54.514308 59.472656 55.347656 C 59.472656 56.326818 59.201815 57.230247 58.660156 58.056641 C 58.118489 58.883034 57.360895 59.510842 56.388672 59.941406 C 56.026291 60.099391 55.616535 60.217383 55.183594 60.316406 L 49.914062 60.316406 C 48.775132 60.074139 47.904085 59.663851 47.316406 59.076172 C 46.316408 58.076184 45.749135 56.805341 45.617188 55.263672 L 50.107422 54.982422 C 50.204631 55.711606 50.402563 56.268432 50.701172 56.650391 C 51.187283 57.268457 51.882378 57.576172 52.785156 57.576172 C 53.45877 57.576172 53.974826 57.419724 54.335938 57.107422 C 54.703988 56.788052 54.888676 56.420561 54.888672 56.003906 C 54.888672 55.608076 54.714398 55.253898 54.367188 54.941406 C 54.019962 54.628839 53.215061 54.334398 51.951172 54.056641 C 49.881729 53.591343 48.405383 52.972007 47.523438 52.201172 C 46.634549 51.430337 46.191406 50.44835 46.191406 49.253906 C 46.191406 48.469201 46.415799 47.729607 46.867188 47.035156 C 47.325523 46.333752 48.010201 45.784502 48.919922 45.388672 C 49.836586 44.985888 51.08941 44.785156 52.679688 44.785156 z M 6.3359375 45.044922 L 11.066406 45.044922 L 11.066406 60.316406 L 6.3359375 60.316406 L 6.3359375 45.044922 z M 12.929688 45.044922 L 17.867188 45.044922 L 21.304688 56.035156 L 24.691406 45.044922 L 29.482422 45.044922 L 23.816406 60.316406 L 18.701172 60.316406 L 12.929688 45.044922 z M 31.013672 45.044922 L 43.660156 45.044922 L 43.660156 48.306641 L 35.742188 48.306641 L 35.742188 50.732422 L 43.085938 50.732422 L 43.085938 53.847656 L 35.742188 53.847656 L 35.742188 56.857422 L 43.888672 56.857422 L 43.888672 60.316406 L 31.013672 60.316406 L 31.013672 45.044922 z M 50.044922 62.480469 C 50.81703 62.480469 51.422873 62.722116 51.863281 63.207031 C 52.306477 63.691946 52.63498 64.436939 52.849609 65.441406 L 51.177734 66.019531 C 51.119199 65.729448 51.058251 65.51703 50.994141 65.382812 C 50.88822 65.157673 50.758775 64.98451 50.605469 64.863281 C 50.452162 64.742053 50.279387 64.681641 50.089844 64.681641 C 49.660585 64.681641 49.332082 64.949458 49.103516 65.486328 C 48.930697 65.884651 48.84375 66.51035 48.84375 67.363281 C 48.84375 68.419703 48.94803 69.145069 49.154297 69.539062 C 49.360564 69.928726 49.649927 70.123047 50.023438 70.123047 C 50.385799 70.123047 50.659782 69.966451 50.84375 69.650391 C 51.030505 69.33433 51.164425 68.875252 51.248047 68.273438 L 52.908203 69.052734 C 52.796707 69.775777 52.622528 70.378366 52.382812 70.863281 C 52.143097 71.348196 51.843115 71.71415 51.486328 71.960938 C 51.132329 72.207725 50.681929 72.332031 50.132812 72.332031 C 49.466625 72.332031 48.921731 72.181555 48.498047 71.882812 C 48.07715 71.579741 47.712863 71.050648 47.40625 70.292969 C 47.099637 69.535289 46.947266 68.564793 46.947266 67.382812 C 46.947266 65.806839 47.215939 64.596225 47.753906 63.751953 C 48.294661 62.903352 49.058184 62.480469 50.044922 62.480469 z M 5.9257812 62.642578 L 9.0742188 62.642578 C 9.759918 62.642578 10.273219 62.895781 10.613281 63.402344 C 10.956131 63.908907 11.126953 64.62926 11.126953 65.564453 C 11.126953 66.525624 10.939917 67.27716 10.566406 67.818359 C 10.195683 68.359559 9.6289807 68.630859 8.8652344 68.630859 L 7.828125 68.630859 L 7.828125 72.162109 L 5.9257812 72.162109 L 5.9257812 62.642578 z M 12.130859 62.642578 L 14.025391 62.642578 L 14.025391 65.974609 L 16.09375 65.974609 L 16.09375 62.642578 L 17.996094 62.642578 L 17.996094 72.162109 L 16.09375 72.162109 L 16.09375 68.3125 L 14.025391 68.3125 L 14.025391 72.162109 L 12.130859 72.162109 L 12.130859 62.642578 z M 20.949219 62.642578 L 23.013672 62.642578 L 25.318359 72.162109 L 23.335938 72.162109 L 23.035156 70.591797 L 20.876953 70.591797 L 20.580078 72.162109 L 18.644531 72.162109 L 20.949219 62.642578 z M 25.945312 62.642578 L 29.101562 62.642578 C 29.686916 62.642578 30.133959 62.719134 30.443359 62.875 C 30.75276 63.030866 31.001863 63.321793 31.191406 63.746094 C 31.380949 64.166065 31.476562 64.679013 31.476562 65.285156 C 31.476563 65.813367 31.40471 66.270916 31.259766 66.65625 C 31.114821 67.037255 30.915762 67.345856 30.662109 67.583984 C 30.50044 67.73552 30.277621 67.861357 29.996094 67.960938 C 30.221873 68.077837 30.387101 68.195601 30.490234 68.3125 C 30.559919 68.390433 30.660008 68.557054 30.791016 68.8125 C 30.924811 69.067946 31.013995 69.263797 31.058594 69.402344 L 31.974609 72.162109 L 29.833984 72.162109 L 28.822266 69.253906 C 28.694045 68.877231 28.578862 68.632101 28.478516 68.519531 C 28.341933 68.372325 28.18649 68.298828 28.013672 68.298828 L 27.847656 68.298828 L 27.847656 72.162109 L 25.945312 72.162109 L 25.945312 62.642578 z M 32.554688 62.642578 L 35.046875 62.642578 L 36.007812 68.435547 L 36.966797 62.642578 L 39.449219 62.642578 L 39.449219 72.162109 L 37.902344 72.162109 L 37.902344 64.902344 L 36.703125 72.162109 L 35.302734 72.162109 L 34.105469 64.902344 L 34.105469 72.162109 L 32.554688 72.162109 L 32.554688 62.642578 z M 42.339844 62.642578 L 44.404297 62.642578 L 46.708984 72.162109 L 44.726562 72.162109 L 44.425781 70.591797 L 42.267578 70.591797 L 41.970703 72.162109 L 40.035156 72.162109 L 42.339844 62.642578 z M 53.214844 62.642578 L 55.316406 62.642578 L 56.554688 65.857422 L 57.792969 62.642578 L 59.882812 62.642578 L 57.5 68.175781 L 57.5 72.162109 L 55.601562 72.162109 L 55.601562 68.175781 L 53.214844 62.642578 z M 27.847656 64.564453 L 27.847656 66.5 L 28.646484 66.5 C 28.732894 66.5 28.900359 66.455733 29.148438 66.369141 C 29.27387 66.330174 29.375078 66.230508 29.453125 66.070312 C 29.533959 65.910117 29.574219 65.727352 29.574219 65.519531 C 29.574219 65.21213 29.512152 64.975072 29.386719 64.810547 C 29.261286 64.646022 29.025325 64.564453 28.679688 64.564453 L 27.847656 64.564453 z M 7.828125 64.578125 L 7.828125 66.701172 L 8.2929688 66.701172 C 8.6581175 66.701172 8.9147681 66.603035 9.0625 66.408203 C 9.2102319 66.209042 9.2832031 65.955839 9.2832031 65.648438 C 9.2832031 65.349695 9.2200171 65.096493 9.0917969 64.888672 C 8.9635767 64.680851 8.7211867 64.578125 8.3671875 64.578125 L 7.828125 64.578125 z M 21.960938 65.109375 L 21.287109 68.533203 L 22.636719 68.533203 L 21.960938 65.109375 z M 43.351562 65.109375 L 42.677734 68.533203 L 44.027344 68.533203 L 43.351562 65.109375 z "
       transform="matrix(0.26458333,0,0,0.26458333,3.0308227,263.0801)"
       id="rect3713" />
    <text
       xml:space="preserve"
       style="font-style:normal;font-weight:normal;font-size:10.58333302px;line-height:1.25;font-family:sans-serif;letter-spacing:0px;word-spacing:0px;fill:#000000;fill-opacity:1;stroke:none;stroke-width:0.26458332"
       x="-6.6498957"
       y="277.75616"
       id="text4598"><tspan
         sodipodi:role="line"
         id="tspan4596"
         x="-6.6498957"
         y="287.41165"
         style="stroke-width:0.26458332" /></text>
    <text
       xml:space="preserve"
       style="font-style:normal;font-weight:normal;font-size:22.57777789px;line-height:1.25;font-family:sans-serif;letter-spacing:0px;word-spacing:0px;fill:#000000;fill-opacity:1;stroke:none;stroke-width:0.26458332;"
       x="25.302071"
       y="267.56583"
       id="text820"><tspan
         sodipodi:role="line"
         id="tspan818"
         x="25.302071"
         y="312.51193"
         style="stroke-width:0.26458332;font-size:22.57777789px;" /></text>
  </g>
</svg>
