<?xml version="1.0" encoding="UTF-8" standalone="no"?>
<svg
   xmlns:dc="http://purl.org/dc/elements/1.1/"
   xmlns:cc="http://creativecommons.org/ns#"
   xmlns:rdf="http://www.w3.org/1999/02/22-rdf-syntax-ns#"
   xmlns:svg="http://www.w3.org/2000/svg"
   xmlns="http://www.w3.org/2000/svg"
   id="svg8"
   version="1.1"
   viewBox="0 0 17.411857 19.949687"
   height="75.400391"
   width="65.808594">
  <defs
     id="defs2" />
  <metadata
     id="metadata5">
    <rdf:RDF>
      <cc:Work
         rdf:about="">
        <dc:format>image/svg+xml</dc:format>
        <dc:type
           rdf:resource="http://purl.org/dc/dcmitype/StillImage" />
        <dc:title></dc:title>
      </cc:Work>
    </rdf:RDF>
  </metadata>
  <g
     transform="translate(-3.0308227,-263.0801)"
     id="layer1">
    <path
       id="rect3713"
       transform="matrix(0.26458333,0,0,0.26458333,3.0308227,263.0801)"
       d="M 4.0410156 0 C 1.8031069 0 0 1.8011525 0 4.0390625 L 0 38.529297 L 65.808594 38.529297 L 65.808594 4.0390625 C 65.808594 1.8011525 64.007441 0 61.769531 0 L 4.0410156 0 z M 17.447266 3.6464844 C 21.176053 3.6464854 24.014197 4.3504705 25.964844 5.7578125 C 27.92876 7.1517505 29.097198 9.3756981 29.46875 12.431641 L 20.96875 12.933594 C 20.743165 11.606672 20.266938 10.642208 19.537109 10.039062 C 18.820544 9.4359165 17.824673 9.1347656 16.550781 9.1347656 C 15.502475 9.1347656 14.712429 9.3626484 14.181641 9.8183594 C 13.650853 10.260662 13.386719 10.80391 13.386719 11.447266 C 13.386719 11.91638 13.605069 12.3376 14.042969 12.712891 C 14.467599 13.101585 15.475994 13.463747 17.068359 13.798828 C 21.009457 14.656637 23.828822 15.527494 25.527344 16.412109 C 27.239136 17.283316 28.480357 18.369806 29.25 19.669922 C 30.032913 20.970038 30.423828 22.42286 30.423828 24.03125 C 30.423828 25.921109 29.906131 27.664778 28.871094 29.259766 C 27.836057 30.854753 26.390962 32.067436 24.533203 32.898438 C 22.675444 33.716033 20.332302 34.125 17.505859 34.125 C 12.542989 34.125 9.1061495 33.160538 7.1953125 31.230469 C 5.2844745 29.3004 4.2032959 26.846616 3.9511719 23.871094 L 12.529297 23.328125 C 12.715073 24.735467 13.093467 25.807743 13.664062 26.544922 C 14.592941 27.737812 15.91947 28.333984 17.644531 28.333984 C 18.931693 28.333984 19.921304 28.032831 20.611328 27.429688 C 21.314623 26.813138 21.666016 26.103024 21.666016 25.298828 C 21.666016 24.534843 21.33536 23.851193 20.671875 23.248047 C 20.00839 22.644901 18.467821 22.075192 16.052734 21.539062 C 12.098366 20.641047 9.279003 19.448696 7.59375 17.960938 C 5.895228 16.473176 5.046875 14.576844 5.046875 12.271484 C 5.046875 10.756921 5.4773128 9.3286072 6.3398438 7.9882812 C 7.2156435 6.6345535 8.5233864 5.576486 10.261719 4.8125 C 12.01332 4.035111 14.408503 3.6464854 17.447266 3.6464844 z M 44.21875 4.1484375 L 44.21875 12.271484 L 48.675781 12.271484 L 48.675781 18.242188 L 44.21875 18.242188 L 44.21875 25.822266 C 44.21875 26.733687 44.304062 27.335987 44.476562 27.630859 C 44.741956 28.086565 45.207609 28.314453 45.871094 28.314453 C 46.468231 28.314453 47.30406 28.1395 48.378906 27.791016 L 48.974609 33.441406 C 46.970883 33.883714 45.09966 34.105469 43.361328 34.105469 C 41.344333 34.105469 39.859716 33.843039 38.904297 33.320312 C 37.948878 32.797588 37.237874 32.008076 36.773438 30.949219 C 36.322268 29.876959 36.097656 28.147498 36.097656 25.761719 L 36.097656 18.242188 L 33.111328 18.242188 L 33.111328 12.271484 L 36.097656 12.271484 L 36.097656 8.3496094 L 44.21875 4.1484375 z M 50.974609 27.017578 L 59.355469 27.017578 L 59.355469 33.441406 L 50.974609 33.441406 L 50.974609 27.017578 z M 0 41.294922 L 0 71.361328 L 0 71.769531 L 0.041015625 71.769531 C 0.24730634 73.811392 1.9429762 75.400391 4.0410156 75.400391 L 61.769531 75.400391 C 63.867572 75.400391 65.561502 73.811392 65.767578 71.769531 L 65.921875 71.769531 L 65.921875 41.294922 L 65.808594 41.294922 L 0 41.294922 z M 52.736328 44.785156 C 54.687717 44.785156 56.17448 45.14974 57.195312 45.878906 C 58.22309 46.601128 58.834852 47.754557 59.029297 49.337891 L 54.580078 49.597656 C 54.462023 48.910156 54.212023 48.410156 53.830078 48.097656 C 53.455078 47.785156 52.934245 47.628906 52.267578 47.628906 C 51.718967 47.628906 51.307075 47.746311 51.029297 47.982422 C 50.751519 48.211589 50.611328 48.492839 50.611328 48.826172 C 50.611328 49.069227 50.725911 49.287977 50.955078 49.482422 C 51.1773 49.683811 51.70573 49.871311 52.539062 50.044922 C 54.601562 50.489366 56.077908 50.942057 56.966797 51.400391 C 57.86263 51.85178 58.511286 52.41428 58.914062 53.087891 C 59.323785 53.761502 59.529297 54.514323 59.529297 55.347656 C 59.529297 56.326823 59.258464 57.230252 58.716797 58.056641 C 58.17513 58.88303 57.417535 59.510851 56.445312 59.941406 C 55.473091 60.365017 54.246745 60.576172 52.767578 60.576172 C 50.170356 60.576172 48.373047 60.076172 47.373047 59.076172 C 46.373047 58.076172 45.805773 56.805339 45.673828 55.263672 L 50.164062 54.982422 C 50.261285 55.711589 50.459202 56.268446 50.757812 56.650391 C 51.243924 57.268446 51.939019 57.576172 52.841797 57.576172 C 53.515408 57.576172 54.031467 57.419922 54.392578 57.107422 C 54.760634 56.787977 54.945312 56.420573 54.945312 56.003906 C 54.945312 55.608073 54.77105 55.253906 54.423828 54.941406 C 54.076606 54.628906 53.271701 54.334418 52.007812 54.056641 C 49.938369 53.591363 48.462023 52.972005 47.580078 52.201172 C 46.691189 51.430339 46.248047 50.448351 46.248047 49.253906 C 46.248047 48.469184 46.472439 47.729601 46.923828 47.035156 C 47.382161 46.333767 48.066841 45.784505 48.976562 45.388672 C 49.893229 44.985894 51.14605 44.785156 52.736328 44.785156 z M 6.3925781 45.044922 L 11.123047 45.044922 L 11.123047 60.316406 L 6.3925781 60.316406 L 6.3925781 45.044922 z M 12.986328 45.044922 L 17.923828 45.044922 L 21.361328 56.035156 L 24.748047 45.044922 L 29.539062 45.044922 L 23.873047 60.316406 L 18.757812 60.316406 L 12.986328 45.044922 z M 31.070312 45.044922 L 43.716797 45.044922 L 43.716797 48.306641 L 35.798828 48.306641 L 35.798828 50.732422 L 43.142578 50.732422 L 43.142578 53.847656 L 35.798828 53.847656 L 35.798828 56.857422 L 43.945312 56.857422 L 43.945312 60.316406 L 31.070312 60.316406 L 31.070312 45.044922 z M 34.769531 63.060547 C 35.496684 63.060547 36.057794 63.3682 36.451172 63.984375 C 36.844549 64.597422 37.041016 65.457215 37.041016 66.564453 C 37.041016 67.368296 36.954098 68.028836 36.78125 68.544922 C 36.610389 69.05788 36.362937 69.458337 36.037109 69.746094 C 35.713268 70.030723 35.308987 70.173828 34.824219 70.173828 C 34.331504 70.173828 33.92345 70.04983 33.599609 69.802734 C 33.277755 69.555639 33.015115 69.163759 32.814453 68.628906 C 32.613791 68.094054 32.513672 67.424936 32.513672 66.621094 C 32.513672 65.498216 32.712024 64.623605 33.109375 63.998047 C 33.506726 63.372488 34.06026 63.060547 34.769531 63.060547 z M 39.960938 63.060547 C 40.443719 63.060547 40.804558 63.129955 41.042969 63.267578 C 41.283366 63.405201 41.481718 63.619272 41.638672 63.910156 C 41.797612 64.197913 41.916624 64.563666 41.996094 65.007812 L 40.695312 65.373047 C 40.64167 65.11344 40.549061 64.914967 40.419922 64.777344 C 40.29277 64.639721 40.130316 64.570312 39.931641 64.570312 C 39.635614 64.570312 39.399477 64.733303 39.222656 65.058594 C 39.047822 65.380756 38.958984 65.893124 38.958984 66.59375 C 38.958984 67.338165 39.047788 67.868465 39.224609 68.1875 C 39.403417 68.506535 39.652822 68.666016 39.970703 68.666016 C 40.121696 68.666016 40.265258 68.633265 40.402344 68.564453 C 40.53943 68.495642 40.696226 68.376711 40.873047 68.210938 L 40.873047 67.564453 L 39.970703 67.564453 L 39.970703 66.132812 L 42.056641 66.132812 L 42.056641 69.066406 C 41.657303 69.494914 41.304041 69.78697 40.996094 69.943359 C 40.690133 70.096621 40.325489 70.173828 39.904297 70.173828 C 39.385754 70.173828 38.96258 70.034233 38.634766 69.755859 C 38.308938 69.477486 38.055795 69.06221 37.875 68.511719 C 37.696192 67.961227 37.607422 67.330324 37.607422 66.617188 C 37.607422 65.866517 37.705655 65.213776 37.902344 64.660156 C 38.099032 64.103409 38.386155 63.680335 38.765625 63.392578 C 39.061651 63.170505 39.460275 63.060547 39.960938 63.060547 z M 23.865234 63.177734 L 26.392578 63.177734 C 26.81377 63.177734 27.136825 63.341504 27.361328 63.669922 C 27.587818 63.99834 27.701172 64.405817 27.701172 64.890625 C 27.701172 65.297238 27.619912 65.644662 27.458984 65.935547 C 27.3517 66.12947 27.194904 66.283884 26.988281 66.396484 C 27.302189 66.51534 27.532668 66.720834 27.679688 67.011719 C 27.828694 67.299476 27.904297 67.661718 27.904297 68.099609 C 27.904297 68.456178 27.851392 68.775918 27.746094 69.060547 C 27.640796 69.345176 27.497235 69.570555 27.314453 69.736328 C 27.201208 69.839545 27.029258 69.914021 26.800781 69.960938 C 26.496808 70.023493 26.29465 70.056641 26.195312 70.056641 L 23.865234 70.056641 L 23.865234 63.177734 z M 28.607422 63.177734 L 29.957031 63.177734 L 29.957031 68.361328 L 32.064453 68.361328 L 32.064453 70.056641 L 28.607422 70.056641 L 28.607422 63.177734 z M 25.226562 64.570312 L 25.226562 65.875 L 25.814453 65.875 C 26.025049 65.875 26.170496 65.819632 26.251953 65.707031 C 26.335397 65.591303 26.376953 65.424802 26.376953 65.208984 C 26.376953 65.008806 26.335397 64.852835 26.251953 64.740234 C 26.170496 64.627634 26.028855 64.570312 25.824219 64.570312 L 25.226562 64.570312 z M 34.767578 64.669922 C 34.495393 64.669922 34.276229 64.821604 34.111328 65.125 C 33.946427 65.428396 33.863281 65.930234 33.863281 66.630859 C 33.863281 67.325229 33.944508 67.823557 34.107422 68.126953 C 34.272323 68.430349 34.497178 68.582031 34.779297 68.582031 C 35.069363 68.582031 35.294185 68.433859 35.453125 68.136719 C 35.612065 67.839578 35.691406 67.306546 35.691406 66.537109 C 35.691406 65.889656 35.606341 65.416281 35.439453 65.119141 C 35.274552 64.818873 35.051684 64.669922 34.767578 64.669922 z M 25.226562 67.183594 L 25.226562 68.578125 L 25.916016 68.578125 C 26.148466 68.578125 26.312839 68.513005 26.408203 68.384766 C 26.503567 68.253398 26.550781 68.07832 26.550781 67.859375 C 26.550781 67.656068 26.503567 67.495031 26.408203 67.373047 C 26.314826 67.247935 26.148533 67.183594 25.912109 67.183594 L 25.226562 67.183594 z "
       style="fill:#d9534f;fill-opacity:1;stroke:none;stroke-width:0.75436455" />
    <text
       id="text4598"
       y="277.75616"
       x="-6.6498957"
       style="font-style:normal;font-weight:normal;font-size:10.58333302px;line-height:1.25;font-family:sans-serif;letter-spacing:0px;word-spacing:0px;fill:#000000;fill-opacity:1;stroke:none;stroke-width:0.26458332"
       xml:space="preserve"><tspan
         style="stroke-width:0.26458332"
         y="287.41165"
         x="-6.6498957"
         id="tspan4596" /></text>
  </g>
</svg>
