<?xml version="1.0" encoding="UTF-8" standalone="no"?>
<svg
   xmlns:dc="http://purl.org/dc/elements/1.1/"
   xmlns:cc="http://creativecommons.org/ns#"
   xmlns:rdf="http://www.w3.org/1999/02/22-rdf-syntax-ns#"
   xmlns:svg="http://www.w3.org/2000/svg"
   xmlns="http://www.w3.org/2000/svg"
   id="svg8"
   version="1.1"
   viewBox="0 0 52.916665 60.457304"
   height="228.50003"
   width="200">
  <defs
     id="defs2" />
  <metadata
     id="metadata5">
    <rdf:RDF>
      <cc:Work
         rdf:about="">
        <dc:format>image/svg+xml</dc:format>
        <dc:type
           rdf:resource="http://purl.org/dc/dcmitype/StillImage" />
        <dc:title></dc:title>
      </cc:Work>
    </rdf:RDF>
  </metadata>
  <g
     transform="translate(-16.021121,-210.65814)"
     id="layer1">
    <path
       id="rect10"
       d="m 16.021121,210.65814 v 37.70468 h 52.916668 v -37.70468 z m 12.196155,0.863 c 1.02526,0 2.116666,0.18189 3.274219,0.5457 1.157552,0.3638 2.364713,0.74415 3.621484,1.14102 0.595313,0 1.041797,-0.21497 1.339453,-0.64492 0.19844,-0.26458 0.330729,-0.61185 0.396875,-1.0418 h 1.041797 l 1.091406,10.5668 h -1.240234 c -0.463021,-2.28203 -1.455206,-4.2168 -2.976563,-5.8043 -1.719789,-1.81901 -3.803385,-2.72851 -6.250781,-2.72851 -1.35599,0 -2.530078,0.41341 -3.522266,1.24023 -0.992185,0.79375 -1.488281,1.91823 -1.488281,3.37344 0,2.01745 1.422135,3.96874 4.266406,5.8539 2.645836,1.68672 5.308204,3.37344 7.98711,5.06016 2.877344,2.24896 4.316016,4.8121 4.316016,7.68945 0,2.34817 -0.84336,4.36563 -2.530079,6.05235 -1.951302,1.9513 -4.597135,2.92695 -7.9375,2.92695 -1.455208,0 -3.026172,-0.28112 -4.71289,-0.84336 -1.686719,-0.56224 -2.678907,-0.84336 -2.976563,-0.84336 -0.496094,0 -0.87643,0.16537 -1.141016,0.4961 -0.264583,0.33073 -0.396875,0.71107 -0.396875,1.14101 h -1.091406 l -1.488281,-10.51719 h 1.141015 c 0.926042,2.24895 1.901693,4.00183 2.926954,5.2586 1.951302,2.34818 4.365625,3.52226 7.242969,3.52226 1.885156,0 3.340364,-0.54571 4.365625,-1.63711 1.058333,-1.12448 1.5875,-2.41433 1.5875,-3.86953 0,-1.52136 -0.429948,-2.79466 -1.289844,-3.81992 -1.091406,-1.28984 -3.356899,-2.9435 -6.796485,-4.96094 -2.711979,-1.55443 -4.564062,-2.87735 -5.55625,-3.96875 -1.455208,-1.5875 -2.182812,-3.50573 -2.182812,-5.75469 0,-2.67891 0.926041,-4.79558 2.778125,-6.35 1.653646,-1.38907 3.720703,-2.08359 6.201172,-2.08359 z m 22.373828,4.81211 c 0.231516,0 0.347266,0.21498 0.347266,0.64492 v 5.75469 h 5.010547 v 1.5875 H 50.93837 v 14.18828 c 0,1.25678 0.09922,2.18282 0.297656,2.77813 0.396875,1.12448 1.141016,1.68672 2.232422,1.68672 0.727604,0 1.35599,-0.19845 1.885157,-0.59532 0.297656,-0.23151 0.677994,-0.61184 1.141015,-1.14101 l 0.644922,0.5457 c -0.59531,1.09141 -1.438672,2.00091 -2.530078,2.72852 -1.058333,0.69453 -2.14974,1.04179 -3.274219,1.04179 -1.38906,0 -2.463932,-0.42994 -3.224609,-1.28984 -0.892969,-1.02526 -1.339454,-2.69546 -1.339454,-5.01055 v -14.93242 h -2.629296 l -0.198438,-0.34727 c 0,-0.19844 0.330729,-0.52916 0.992188,-0.99218 0.429947,-0.29766 0.826822,-0.62839 1.190625,-0.99219 0.760677,-0.79375 1.504817,-1.65364 2.232421,-2.57969 0.56224,-0.7276 1.306383,-1.75286 2.232422,-3.07578 z m 8.066175,25.14059 h 4.383712 v 3.33984 h -4.383712 z m -42.636158,8.1411 v 21.5005 h 52.916668 v -21.5005 z m 44.508914,1.34255 c 0.782132,0 1.579139,0.0307 2.391068,0.0925 0.811927,0.0618 1.642666,0.15485 2.491836,0.27853 v 0.9617 c -0.856621,-0.17901 -1.664872,-0.31261 -2.424658,-0.40049 -0.759785,-0.0879 -1.493771,-0.13178 -2.201415,-0.13178 -1.229067,0 -2.178524,0.10434 -2.848923,0.31264 -0.66295,0.20831 -0.994769,0.50427 -0.994769,0.88832 0,0.32224 0.219905,0.56626 0.659389,0.73226 0.446934,0.16274 1.288396,0.29494 2.524911,0.39584 l 1.363226,0.12196 c 1.683446,0.13996 2.923672,0.38729 3.720703,0.74207 0.804479,0.35152 1.206643,0.82355 1.206643,1.41593 0,0.7063 -0.543372,1.24157 -1.630908,1.60611 -1.080087,0.36454 -2.66678,0.54673 -4.759915,0.54673 -0.789585,0 -1.631564,-0.0392 -2.525429,-0.1173 -0.886415,-0.0781 -1.806065,-0.19325 -2.75952,-0.34623 v -1.01596 c 0.916213,0.22458 1.813891,0.39406 2.692858,0.50798 0.878967,0.11392 1.742919,0.17105 2.592091,0.17105 1.288656,0 2.283085,-0.11095 2.983281,-0.33228 0.700188,-0.22133 1.050065,-0.53712 1.050065,-0.94723 0,-0.35803 -0.253122,-0.63795 -0.759646,-0.83974 -0.499075,-0.2018 -1.321972,-0.35282 -2.469099,-0.45372 l -1.374593,-0.11731 c -1.683448,-0.14647 -2.901188,-0.37586 -3.653523,-0.68833 -0.752337,-0.31246 -1.128614,-0.74722 -1.128614,-1.30379 0,-0.64447 0.517482,-1.15186 1.552876,-1.52291 1.042845,-0.37105 2.477088,-0.55656 4.302065,-0.55656 z m -41.98917,0.13178 h 2.256708 v 7.28896 h -2.256708 z m 4.681368,0 h 2.357478 l 5.284949,6.13658 5.296318,-6.13658 h 2.346111 l -6.357237,7.28896 h -2.559016 z m 17.709513,0 h 10.547676 v 0.82992 h -8.290449 v 2.15801 h 7.944218 v 0.82992 h -7.944218 v 2.64119 h 8.491471 v 0.82992 H 40.931746 Z m 8.774658,10.29291 c 0.326385,0 0.632944,0.062 0.920358,0.18604 0.289849,0.12058 0.561623,0.30317 0.814938,0.54777 v 1.1007 c -0.248444,-0.32729 -0.513792,-0.57188 -0.796335,-0.7338 -0.280106,-0.16192 -0.578911,-0.24288 -0.895551,-0.24288 -0.623541,0 -1.100698,0.27044 -1.431954,0.81132 -0.331256,0.53744 -0.497128,1.31603 -0.497128,2.33578 0,1.01629 0.165872,1.79489 0.497128,2.33577 0.331256,0.53744 0.808413,0.80615 1.431954,0.80615 0.31664,0 0.615445,-0.081 0.895551,-0.24288 0.282543,-0.16192 0.547891,-0.40652 0.796335,-0.7338 v 1.09037 c -0.258186,0.24805 -0.532323,0.43408 -0.822174,0.55811 -0.287412,0.12402 -0.591608,0.18603 -0.913122,0.18603 -0.825704,0 -1.476338,-0.35656 -1.951302,-1.0697 -0.474962,-0.71658 -0.7121,-1.69327 -0.7121,-2.93005 0,-1.24024 0.237138,-2.21692 0.7121,-2.93006 0.474964,-0.71658 1.125598,-1.07487 1.951302,-1.07487 z m -31.16864,0.13953 h 0.737939 v 3.1626 h 2.681491 v -3.1626 h 0.738455 v 7.71529 h -0.738455 v -3.6742 h -2.681491 v 3.6742 h -0.737939 z m 5.626529,0 h 3.448886 v 0.8785 h -2.710945 v 2.2841 h 2.597775 v 0.87849 h -2.597775 v 2.7957 h 2.776575 v 0.8785 h -3.514516 z m 6.141744,0 h 0.836641 l 2.078427,7.71529 H 32.454229 L 31.9571,267.25779 h -2.458765 l -0.496609,1.97921 h -0.778248 z m 3.708302,0 h 0.737939 v 6.83679 h 2.656168 v 0.8785 h -3.394107 z m 2.385383,0 h 4.614706 v 0.8785 h -1.936316 v 6.83679 h -0.741555 v -6.83679 h -1.936835 z m 5.330941,0 h 0.737939 v 3.1626 h 2.681492 v -3.1626 h 0.737938 v 7.71529 h -0.737938 v -3.6742 h -2.681492 v 3.6742 h -0.737939 z m 12.264886,0 h 0.836641 l 2.078943,7.71529 h -0.767395 l -0.497129,-1.97921 h -2.458762 l -0.496612,1.97921 h -0.778246 z m 3.708302,0 h 1.666047 c 0.623541,0 1.088882,0.18431 1.39578,0.55294 0.306898,0.36862 0.45992,0.925 0.45992,1.66914 0,0.48577 -0.08005,0.88884 -0.240811,1.20923 -0.158321,0.3204 -0.389551,0.54261 -0.694015,0.66663 0.158321,0.0758 0.311343,0.23771 0.45992,0.48576 0.151014,0.24805 0.302189,0.58911 0.453202,1.02319 l 0.748792,2.1084 h -0.792715 l -0.697633,-1.97921 c -0.180242,-0.51676 -0.35557,-0.85955 -0.526065,-1.02836 -0.168066,-0.16881 -0.398114,-0.25321 -0.690399,-0.25321 H 58.44179 v 3.26078 h -0.737939 z m 5.202782,0 h 3.448884 v 0.8785 h -2.710945 v 2.2841 h 2.597775 v 0.87849 h -2.597775 v 2.7957 h 2.776575 v 0.8785 h -3.514514 z m -4.464843,0.85783 v 2.73885 h 0.928108 c 0.355613,0 0.623326,-0.11541 0.803568,-0.34623 0.182679,-0.23427 0.274402,-0.57707 0.274402,-1.02837 0,-0.45131 -0.09172,-0.79064 -0.274402,-1.01802 -0.180242,-0.23082 -0.447955,-0.34623 -0.803568,-0.34623 z m -27.719241,0.17053 -1.001487,3.83956 h 2.006078 z m 23.689512,0 -1.000972,3.83956 h 2.00556 z"
       style="fill:#ff0000;stroke:none;stroke-width:0.1598001" />
  </g>
</svg>
